<?xml version="1.0" encoding="UTF-8" standalone="no"?>
<!-- Created with Inkscape (http://www.inkscape.org/) -->

<svg
   xmlns:dc="http://purl.org/dc/elements/1.1/"
   xmlns:cc="http://creativecommons.org/ns#"
   xmlns:rdf="http://www.w3.org/1999/02/22-rdf-syntax-ns#"
   xmlns:svg="http://www.w3.org/2000/svg"
   xmlns="http://www.w3.org/2000/svg"
   xmlns:sodipodi="http://sodipodi.sourceforge.net/DTD/sodipodi-0.dtd"
   xmlns:inkscape="http://www.inkscape.org/namespaces/inkscape"
   width="210mm"
   height="297mm"
   viewBox="0 0 210 297"
   version="1.1"
   id="svg8"
   inkscape:version="0.92.2 5c3e80d, 2017-08-06"
   sodipodi:docname="Ampersand_SchoolFreeware_Free_Clipart_Black_and_White.svg">
  <defs
     id="defs2" />
  <sodipodi:namedview
     id="base"
     pagecolor="#ffffff"
     bordercolor="#666666"
     borderopacity="1.0"
     inkscape:pageopacity="0.0"
     inkscape:pageshadow="2"
     inkscape:zoom="0.98994949"
     inkscape:cx="554.81921"
     inkscape:cy="847.00649"
     inkscape:document-units="mm"
     inkscape:current-layer="text3701"
     showgrid="false"
     inkscape:window-width="1920"
     inkscape:window-height="963"
     inkscape:window-x="0"
     inkscape:window-y="1"
     inkscape:window-maximized="1" />
  <metadata
     id="metadata5">
    <rdf:RDF>
      <cc:Work
         rdf:about="">
        <dc:format>image/svg+xml</dc:format>
        <dc:type
           rdf:resource="http://purl.org/dc/dcmitype/StillImage" />
        <dc:title />
      </cc:Work>
    </rdf:RDF>
  </metadata>
  <g
     inkscape:label="Layer 1"
     inkscape:groupmode="layer"
     id="layer1">
    <g
       aria-label="&amp;"
       transform="scale(0.87380513,1.1444199)"
       style="font-style:normal;font-weight:normal;font-size:344.68264771px;line-height:1.25;font-family:sans-serif;letter-spacing:0px;word-spacing:0px;fill:#000000;fill-opacity:1;stroke:none;stroke-width:8.61706638"
       id="text3701">
      <path
         d="m 99.090898,23.935718 c 10.943892,0 19.699012,2.762498 26.265352,8.978116 5.83675,5.524995 8.75512,12.431238 8.75512,21.409353 0,14.50311 -11.30869,27.970284 -33.92608,40.40152 -2.918375,1.381249 -5.471952,2.762497 -7.660733,4.143746 C 84.863827,90.580961 79.027079,84.020031 75.379113,79.185661 67.353586,68.826297 63.705618,60.538806 63.705618,53.977875 c 0,-9.668739 2.918374,-16.920295 9.484715,-21.754665 5.836746,-5.524994 14.591867,-8.287492 25.900565,-8.287492 z M 68.447977,111.645 37.075461,128.21998 c -22.617395,15.53905 -33.9260926,34.87653 -33.9260926,57.66713 0,23.13592 8.7551196,41.09215 26.6301586,54.21401 16.41585,11.74061 37.938855,17.95623 64.569014,17.95623 34.655679,0 64.931599,-12.90832 86.819399,-36.38955 l 35.13389,34.5989 22.07744,-13.80326 -42.98206,-41.03728 c 0,0 13.2108,-22.46351 29.31978,-60.39012 l -29.48408,-5.68308 c -8.23325,19.36738 -11.87399,25.32637 -21.35869,44.66385 l -65.29862,-65.264 c 10.5791,-6.21562 20.79342,-12.77655 31.00772,-18.992166 16.05106,-12.431237 24.44138,-26.589035 24.44138,-43.164018 0,-15.884358 -6.56634,-28.315595 -18.96942,-37.293711 C 133.38177,6.3247998 118.06031,1.8357419 99.820491,1.8357419 c -18.604631,0 -33.926092,4.4890579 -45.964382,13.4671731 -13.132682,9.66874 -19.699022,22.445289 -19.699022,39.020272 0,9.668741 3.283169,19.682792 10.579103,30.042157 4.377561,6.56093 12.038292,15.539046 23.711787,27.279656 z m 24.806175,121.20456 c -17.510243,0 -31.737314,-4.14374 -42.681214,-12.43123 -11.673495,-8.97812 -17.510241,-20.37342 -17.510241,-34.1859 0,-13.81249 6.201544,-26.24373 19.334225,-36.60309 9.84951,-7.25156 20.793411,-14.50312 32.466905,-21.40936 l 74.418513,74.93274 c -16.78064,19.68279 -38.66845,29.69684 -66.028188,29.69684 z"
         style="font-style:normal;font-variant:normal;font-weight:normal;font-stretch:normal;font-family:'.PingFang HK';-inkscape-font-specification:'.PingFang HK';stroke-width:8.87301922"
         id="path3705"
         inkscape:connector-curvature="0"
         sodipodi:nodetypes="ssscccscsccscscccccccccscscsccscscccs" />
    </g>
  </g>
</svg>
