<?xml version="1.0" encoding="UTF-8" standalone="no"?>
<!-- Created with Inkscape (http://www.inkscape.org/) -->
<!-- ClipArt by Arvin61r58 (http://openclipart.org/user-detail/Arvin61r58) -->
<svg
   xmlns:dc="http://purl.org/dc/elements/1.1/"
   xmlns:cc="http://creativecommons.org/ns#"
   xmlns:rdf="http://www.w3.org/1999/02/22-rdf-syntax-ns#"
   xmlns:svg="http://www.w3.org/2000/svg"
   xmlns="http://www.w3.org/2000/svg"
   width="330"
   height="330"
   viewBox="0 0 330 330.00001"
   id="svg4224"
   version="1.1">
  <title
     id="title4798">Decorative Square 2</title>
  <defs
     id="defs4226" />
  <metadata
     id="metadata4229">
    <rdf:RDF>
      <cc:Work
         rdf:about="">
        <dc:format>image/svg+xml</dc:format>
        <dc:type
           rdf:resource="http://purl.org/dc/dcmitype/StillImage" />
        <dc:title>Decorative Square 2</dc:title>
        <dc:creator>
          <cc:Agent>
            <dc:title>Arvin61r58</dc:title>
          </cc:Agent>
        </dc:creator>
        <dc:publisher>
          <cc:Agent>
            <dc:title>Openclipart.org</dc:title>
          </cc:Agent>
        </dc:publisher>
        <dc:identifier>https://openclipart.org/</dc:identifier>
        <dc:source>https://openclipart.org/user-detail/Arvin61r58</dc:source>
        <dc:subject>
          <rdf:Bag>
            <rdf:li>decoration</rdf:li>
            <rdf:li>decorative</rdf:li>
            <rdf:li>design</rdf:li>
            <rdf:li>ornament</rdf:li>
            <rdf:li>square</rdf:li>
            <rdf:li>pattern</rdf:li>
            <rdf:li>emblem</rdf:li>
            <rdf:li />
          </rdf:Bag>
        </dc:subject>
        <dc:description>decorative square ornament</dc:description>
        <cc:license
           rdf:resource="http://creativecommons.org/publicdomain/zero/1.0/" />
      </cc:Work>
      <cc:License
         rdf:about="http://creativecommons.org/publicdomain/zero/1.0/">
        <cc:permits
           rdf:resource="http://creativecommons.org/ns#Reproduction" />
        <cc:permits
           rdf:resource="http://creativecommons.org/ns#Distribution" />
        <cc:permits
           rdf:resource="http://creativecommons.org/ns#DerivativeWorks" />
      </cc:License>
    </rdf:RDF>
  </metadata>
  <g
     id="layer1"
     transform="translate(-239.09525,-387.36223)">
    <title
       id="title4704">Decorative Square  --  by Arvin61r58</title>
    <g
       transform="matrix(1.7647059,0,0,1.7647059,-221.17247,130.37609)"
       id="g4915">
      <path
         id="path4896"
         d="m 439.31837,239.12548 0,-85 -85.00001,0 -84.99999,0 0,85 0,84.99999 84.99999,0 85.00001,0 0,-84.99999 z"
         style="fill:#000000" />
      <path
         id="path4894"
         d="m 279.31837,239.12548 0,-75 75,0 75,0 0,75 0,75 -75,0 -75,0 0,-75 z"
         style="fill:#000000;stroke:#ffffff;stroke-width:6" />
      <path
         id="path4892"
         d="m 295.98536,172.45849 c -5.55556,0 -8.33398,2.77841 -8.33398,8.33398 0,5.55555 2.77842,8.33399 8.33398,8.33399 5.55557,0 8.33398,-2.77844 8.33398,-8.33399 0,-5.55557 -2.77841,-8.33398 -8.33398,-8.33398 z m 116.66602,0 c -5.55557,0 -8.33204,2.77841 -8.33204,8.33398 0,5.55555 2.77646,8.33399 8.33204,8.33399 5.55556,0 8.33398,-2.77844 8.33398,-8.33399 0,-5.55557 -2.77842,-8.33398 -8.33398,-8.33398 z M 295.98536,289.12646 c -5.55556,0 -8.33398,2.77647 -8.33398,8.33202 0,5.55557 2.77842,8.33398 8.33398,8.33398 5.55557,0 8.33398,-2.77841 8.33398,-8.33398 0,-5.55556 -2.77841,-8.33202 -8.33398,-8.33202 z m 116.66602,0 c -5.55557,0 -8.33204,2.77647 -8.33204,8.33202 0,5.55557 2.77646,8.33398 8.33204,8.33398 5.55556,0 8.33398,-2.77841 8.33398,-8.33398 0,-5.55556 -2.77842,-8.33202 -8.33398,-8.33202 z"
         style="fill:#ffffff" />
      <circle
         r="65"
         cy="239.12547"
         cx="354.31836"
         id="path4912"
         style="opacity:1;fill:#ffffff;fill-opacity:1;fill-rule:nonzero;stroke:none;stroke-width:10;stroke-miterlimit:4;stroke-dasharray:none;stroke-opacity:1" />
      <path
         id="path4888"
         d="m 337.6517,293.29215 c 0,-2.29167 -3.75,-4.16667 -8.33334,-4.16667 -11.22373,0 -10.65593,-11.3645 1.04167,-20.84843 5.15623,-4.1805 7.80733,-9.16857 5.89134,-11.08457 -1.91601,-1.916 -6.90407,0.73507 -11.08457,5.89133 -9.48393,11.6976 -20.84844,12.2654 -20.84844,1.04167 0,-4.58333 -1.875,-8.33333 -4.16666,-8.33333 -2.29166,0 -4.16666,-7.5 -4.16666,-16.66667 0,-9.16667 1.875,-16.66667 4.16666,-16.66667 2.29166,0 4.16666,-3.75 4.16666,-8.33333 0,-11.22373 11.36451,-10.65593 20.84844,1.04167 4.1805,5.15623 9.16857,7.80733 11.08457,5.89133 1.916,-1.916 -0.7351,-6.90407 -5.89134,-11.08457 -11.6976,-9.48393 -12.2654,-20.84843 -1.04167,-20.84843 4.58334,0 8.33334,-1.875 8.33334,-4.16667 0,-2.29166 7.5,-4.16666 16.66666,-4.16666 9.16667,0 16.66667,1.875 16.66667,4.16666 0,2.29167 3.75,4.16667 8.33333,4.16667 11.22374,0 10.65594,11.3645 -1.04166,20.84843 -5.15627,4.1805 -7.80737,9.16857 -5.89133,11.08457 1.91599,1.916 6.90406,-0.7351 11.08454,-5.89133 9.48397,-11.6976 20.84847,-12.2654 20.84847,-1.04167 0,4.58332 1.875,8.33332 4.16666,8.33332 2.29166,0 4.16666,7.5 4.16666,16.66668 0,9.16667 -1.875,16.66666 -4.16666,16.66666 -2.29166,0 -4.16666,3.75 -4.16666,8.33333 0,11.22373 -11.3645,10.65593 -20.84847,-1.04167 -4.18048,-5.15626 -9.16855,-7.80733 -11.08453,-5.89133 -1.91605,1.916 0.73506,6.90407 5.89132,11.08457 11.69761,9.48393 12.2654,20.84843 1.04166,20.84843 -4.58332,0 -8.33332,1.875 -8.33332,4.16667 0,2.29166 -7.5,4.16666 -16.66668,4.16666 -9.16666,0 -16.66666,-1.875 -16.66666,-4.16666 z"
         style="fill:#000000" />
      <path
         id="path4886"
         d="m 364.88505,283.38586 c 6.82866,-6.8287 7.97415,-19.04763 1.78569,-19.04763 -2.29166,0 -4.16666,-3.75 -4.16666,-8.33333 0,-5.55557 2.77776,-8.33334 8.33333,-8.33334 4.58333,0 8.33333,1.875 8.33333,4.16667 0,2.29167 2.94643,4.16667 6.54764,4.16667 7.62959,0 18.45236,-9.7754 18.45236,-16.66667 0,-6.89127 -10.82277,-16.66667 -18.45236,-16.66667 -3.60121,0 -6.54764,1.875 -6.54764,4.16667 0,2.29167 -3.75,4.16667 -8.33333,4.16667 -5.55557,0 -8.33333,-2.77777 -8.33333,-8.33334 0,-4.58333 1.875,-8.33333 4.16666,-8.33333 2.29167,0 4.16667,-2.94643 4.16667,-6.54763 0,-7.6296 -9.7754,-18.45237 -16.66667,-18.45237 -6.89126,0 -16.66666,10.82277 -16.66666,18.45237 0,3.6012 1.875,6.54763 4.16666,6.54763 2.29167,0 4.16667,3.75 4.16667,8.33333 0,5.55557 -2.77776,8.33334 -8.33333,8.33334 -4.58334,0 -8.33334,-1.875 -8.33334,-4.16667 0,-6.18847 -12.21896,-5.04297 -19.04764,1.7857 -7.5428,7.54283 -7.5428,13.88577 0,21.4286 6.82867,6.82867 19.04764,7.97417 19.04764,1.7857 0,-2.29167 3.75,-4.16667 8.33334,-4.16667 5.55557,0 8.33333,2.77777 8.33333,8.33334 0,4.58333 -1.875,8.33333 -4.16667,8.33333 -5.84357,0 -5.19509,11.68363 1.04167,18.76737 6.73047,7.6445 14.70754,7.74533 22.17264,0.28033 z"
         style="fill:#ffffff" />
      <path
         id="path4884"
         d="m 345.98504,239.12548 c 0,-5.55557 2.77776,-8.33333 8.33334,-8.33333 5.55556,0 8.33332,2.77776 8.33332,8.33333 0,5.55556 -2.77776,8.33332 -8.33334,8.33332 -5.55556,0 -8.33332,-2.77776 -8.33332,-8.33332 z"
         style="fill:#000000" />
    </g>
  </g>
</svg>
