<svg xmlns="http://www.w3.org/2000/svg" viewBox="0 0 491.9 369.79"><defs><style>.cls-1{fill:#010101;}</style></defs><g id="Layer_2" data-name="Layer 2"><g id="Publicdomainvectors.org"><path class="cls-1" d="M245.26,182.63c28.85-25.11,3.4-81.91-40.78-74.75s-50.19,93-75.91,69.76c-23.18-20.92,38.72-62.22,69.36-82.11L151.16,77.89l59.69,5.65-59.69-32L216.4,77.89,183.78,47.78,219.46,75.4c5.88-14.18-2.86-29.72-12.74-37.27L191.81,15.86C82.15,23.31,43-31.57,11.93,28.33c-52.74,101.54,88,177.72,63.19,222C68.84,261.57,47,276.13,47.64,295l17.57-7.53S44.51,310,54.54,332c-.62-2.51,16.31-32,26.35-33.24,0,0-28.23,40.77-15.68,52.06,0,0-1.26-33.25,51.44-34.5s24.47-35.76,40.15-72.14,59.6-36.39,88.46-61.51m-47-32.6a17.57,17.57,0,0,1,0,35.14,18.1,18.1,0,0,1-3-.27c.26,0,.51,0,.77,0a14.83,14.83,0,1,0-14.82-14.83,14.47,14.47,0,0,0,.27,2.81,17.32,17.32,0,0,1-.83-5.32A17.59,17.59,0,0,1,198.21,150m-.74,14.64a4.29,4.29,0,1,1,4.29,4.29,4.29,4.29,0,0,1-4.29-4.29m257.74-97c-29.7-30.53-64.41-19.86-122.13-25.51-15.48-1.51-17.14,12.55-8.78,22.17,0,0,11.71-6.28,22.59-8.78L330.13,75.17S361.52,60.12,382,53.42c-12.51,7.11-47.68,32.94-47.68,32.94L363.62,76s-16.32,12.13-18,16.73,7.11,8.36,12.55,23.42,5,41.82-4.18,41.4-7.53-40.15-17.15-44.33-28,.84-40.57,34.71,12.81,60,28.86,66.94c12.55,5.42,18.4,29.26,18.82,39.29,10.87,8-6.69-56.46,23-90.33-46.42,104.14,42.66,192,22.59,149.3S447.08,224,470.47,200.85C505.6,166,495.46,109,455.21,67.64M328.69,185.17h-.05a14.81,14.81,0,1,0-15.22-8.91,17.56,17.56,0,1,1,15.27,8.92m0-20.5A4.29,4.29,0,1,1,333,169a4.29,4.29,0,0,1-4.29-4.29m.94,167.61c-18.19,9.72-48,17.56-70.57,15.37s-71.18-17.95-82.81-24.47c-26.87-15.05-17.57-41.4-10-23.21s63.2,39.08,89.08,27c35.76-16.72-3.76-23.21-12.23-32.62s2.82-13.48,10.35-19.44,15.06,6.58,5.33,15.61c15.69-2.26,15-22.72-1.21-24.4-9.65-1-13.74,24.26-25.66,4.19s31.58-29.91,44.13-28,25.4,2.83,35.44,14.12,5.33,26.66,2.2,22.58-3.14-15.68-15.37-11.6-18.2,20.42-10,24.33c1.88-6.14,1.36-18.51,11-18.36,12,.18,13.48,4.38,14.1,10.65s-5.64,16.94-12.86,19.45-17.56,6.59-16.94,16,9.73,12.23,24.47,12.23,25.41-14.74,28.86-27.92,11,18.82-7.22,28.55m-10.66,11c-22.59,27.91-69.32,44.22-115.43-5.34,20.39,15.69,91.9,28.23,115.43,5.34"/></g></g></svg>