<?xml version="1.0"?>
<svg xmlns:rdf="http://www.w3.org/1999/02/22-rdf-syntax-ns#" xmlns="http://www.w3.org/2000/svg" xmlns:cc="http://creativecommons.org/ns#" xmlns:dc="http://purl.org/dc/elements/1.1/" id="svg2" viewBox="0 0 265 366.23" version="1.1">
  <title id="title2820">Sapin (03) - Xmas - Black &amp; White</title>
  <g id="layer1" transform="translate(-22.5 -6.293)">
    <g id="g8089">
      <path id="path3058" d="m133 9.625l-7.03 21.469-22.63-0.032 18.25 13.313-7.03 21.469 15.16-10.938c-1.54 20.196-7.38 59.714-37.22 71.184 0 7.31 10.67 6.58 18.38 3.72-8.28 12.74-20.436 23.74-38.38 29.28 0 12.05 30 6.03 37.5 0v0.03c-10.266 17.67-26.548 33.56-52.625 40.97 0 9.4 17.253 9.22 31.281 5.97-14.185 17.01-33.843 31.32-61.156 39.03 0 14.51 29.723 12.61 50.031 6.69-17.928 19.31-42.826 35.57-77.531 44.31 0 17.27 57.646 20.23 89.5 15.25 6.263 0.82 12.98 1.46 20.03 1.91 7.48 16.48 4.52 29.44-5.94 38.87-1.88-0.29-3.845-0.56-6.121-0.84-1.821-0.21-3.663-0.34-5.5-0.37-14.799-0.93-30.05 0.62-43.813 7.68-0.796 5.61 8.278-1.04 11.25-1.5 14.71-6.43 29.874-5.31 45.874-3.03 7.61 1.44 10.63 3.31 17.28 4.5 6.32 1.42 12.71 1.71 19.1 1.32 8.19-0.41 16.94-2.13 25.03-3.38 11.06-1.48 31.04-2.34 45.97 5.25 2.77 1.6 11.62 7.8 11.15 2.16-13.33-7.86-28.48-10.29-43.31-10.22-2.56-0.11-5.11 0-7.66 0.22-3.94 0.4-7.39 0.84-10.59 1.28-13.44-9.59-18.06-23.49-9.84-41.75 8.17-0.45 15.93-1.16 23.09-2.1 31.85 4.98 89.5 2.02 89.5-15.25-34.71-8.74-59.6-25-77.53-44.31 20.31 5.92 50.03 7.82 50.03-6.69-27.28-7.7-46.91-21.99-61.09-38.97 13.97 3.18 30.97 3.31 30.97-6.03-25.89-7.35-42.13-23.05-52.41-40.56 0.02-0.15 0.03-0.28 0.03-0.44 7.5 6.03 37.5 12.05 37.5 0-17.94-5.54-30.1-16.54-38.38-29.28 7.71 2.86 18.38 3.59 18.38-3.72-30.13-11.59-35.77-51.739-37.25-71.746l15.91 11.594-6.94-21.5 18.31-13.25-22.59-0.063-6.94-21.5zm-0.03 5.031l5.81 18.032 18.94 0.031-15.34 11.093 5.81 18-15.28-11.156-15.35 11.094 5.88-17.969-15.28-11.187 18.93 0.062 5.88-18zm-0.41 38.188c0.07 1.083 0.11 2.062 0.22 3.437 0.57 6.929 1.64 15.868 3.94 25.188 4.43 17.988 13.61 37.601 32.81 46.091-0.13 0.2-0.26 0.4-0.47 0.56-0.55 0.46-1.63 0.88-3.12 1.04-2.99 0.3-7.36-0.5-10.91-1.82-1.03-0.38-2.29-0.04-2.97 0.82s-0.73 2.18-0.12 3.09c8.16 12.56 20.16 23.54 37.4 29.5-0.06 0.09-0.04 0.25-0.12 0.34-0.45 0.53-1.25 1.06-2.41 1.47-2.32 0.82-6.03 1.05-10.03 0.69-7.99-0.71-17.4-3.98-20.16-6.19-0.76-0.61-1.86-0.73-2.74-0.31-0.89 0.42-1.5 1.37-1.5 2.34 0 0.03 0.01 0.01 0 0.1-0.08 0.57 0.05 1.16 0.34 1.65 10.23 17.43 26.48 33.19 51.69 41-0.28 0.53-0.74 0.95-1.41 1.41-1.27 0.88-3.44 1.6-6.19 1.94-5.49 0.67-13.04-0.09-19.81-1.63-1.07-0.25-2.27 0.25-2.84 1.19s-0.47 2.23 0.25 3.06c14.09 16.88 33.6 31.14 60.25 39.13-0.43 1.65-1.51 2.79-3.41 3.87-2.54 1.45-6.56 2.37-11.31 2.66-9.5 0.57-21.86-1.3-31.75-4.19-1.08-0.29-2.32 0.2-2.91 1.16-0.58 0.95-0.47 2.29 0.28 3.12 17.83 19.2 42.54 35.38 76.44 44.38-0.29 0.71-0.73 1.41-1.44 2.15-1.29 1.37-3.38 2.75-6.12 3.97-5.49 2.45-13.52 4.29-22.56 5.41-18.09 2.24-40.36 1.72-55.97-0.72-0.25-0.04-0.51-0.04-0.75 0-14.67 1.43-28.13 2.52-42.66 2.59-14.21-0.25-28.48-0.84-42.656-2.59-0.249-0.04-0.502-0.04-0.75 0-15.611 2.44-37.879 2.96-55.969 0.72-9.045-1.12-17.07-2.96-22.563-5.41-2.7455-1.22-4.8299-2.6-6.1245-3.97-0.7067-0.74-1.1499-1.44-1.4375-2.15 33.901-9 58.611-25.18 76.438-44.38 0.75-0.83 0.866-2.17 0.281-3.12-0.586-0.96-1.825-1.45-2.907-1.16-9.896 2.89-22.251 4.76-31.75 4.19-4.749-0.29-8.777-1.21-11.312-2.66-1.901-1.08-2.977-2.22-3.406-3.87 26.686-8 46.21-22.28 60.312-39.19 0.713-0.83 0.821-2.13 0.25-3.06-0.571-0.94-1.777-1.44-2.844-1.19-6.795 1.57-14.437 2.38-20 1.72-2.781-0.33-4.987-1.06-6.281-1.94-0.68-0.46-1.127-0.91-1.406-1.44 25.382-7.88 41.665-23.83 51.875-41.4 0.24-0.41 0.37-0.88 0.37-1.35 0-0.97-0.61-1.92-1.5-2.34-0.88-0.42-1.98-0.3-2.74 0.31-2.76 2.21-12.168 5.48-20.161 6.19-3.997 0.36-7.711 0.13-10.031-0.69-1.161-0.41-1.959-0.94-2.407-1.47-0.077-0.09-0.06-0.25-0.125-0.34 17.243-5.96 29.244-16.94 37.404-29.5 0.61-0.91 0.56-2.23-0.12-3.09s-1.94-1.2-2.97-0.82c-3.55 1.32-7.92 2.12-10.908 1.82-1.491-0.16-2.569-0.58-3.124-1.04-0.209-0.16-0.341-0.36-0.469-0.56 19.201-8.49 28.381-28.103 32.811-46.091 2.3-9.32 3.37-18.259 3.94-25.188 0.11-1.338 0.16-2.293 0.22-3.343l0.12-0.094zm-20.4 260.57c6.53 0.36 13.34 0.56 20.34 0.56 5.94 0 11.76-0.11 17.38-0.38-6.77 18.27-2.89 32.33 8.4 42.16-8.26 1.18-15.28 2.21-25 2.13-4.11-0.42-8.17-0.89-12.22-1.72-6.2-1.72-10.24-2.74-14.12-3.47 8.85-9.65 11.39-22.74 5.22-39.28z" transform="translate(22.5 6.293)"/>
      <path id="path3105" d="m138.49 146.67c3.1214-5.4316 3.8204-10.678 2.4285-15.122-0.85242 2.8559-2.0828 5.8036-3.8136 8.8153-7.1798 12.494-20.262 22.681-33.788 27.493 14.307-1.7235 28.805-10.105 35.173-21.186z"/>
      <path id="path3105-1" d="m135.04 182.48c4.1337-6.7386 5.0594-13.247 3.2161-18.761-1.1289 3.5432-2.7583 7.2002-5.0504 10.937-9.5083 15.5-26.833 28.138-44.745 34.109 18.946-2.1382 38.146-12.536 46.579-26.284z"/>
      <path id="path3105-1-1" d="m111.74 230.14c5.1166-6.5096 6.643-13.015 5.0097-18.712-1.5269 3.4969-3.6199 7.0733-6.457 10.683-11.769 14.973-32.026 26.503-52.429 31.258 21.264-0.81341 43.438-9.9477 53.876-23.228z"/>
      <path id="path3105-7" d="m153.29 104.71c1.7689-6.1351 1.2255-11.509-1.1644-15.59-0.16301 3.0381-0.67219 6.2572-1.653 9.659-4.0688 14.112-14.415 27.339-26.446 35.335 13.51-5.1164 25.655-16.888 29.263-29.404z"/>
      <path id="path3105-1-3" d="m149.68 178.54c1.8951-6.0328 0.80325-11.128-2.6257-14.819-0.001 2.923-0.44451 6.0506-1.4953 9.3956-4.3591 13.877-17.034 27.473-32.292 36.215 17.405-6.1185 32.547-18.484 36.413-30.792z"/>
      <path id="path3105-1-7" d="m175.33 182.48c-4.1337-6.7386-5.0594-13.247-3.2161-18.761 1.1289 3.5432 2.7583 7.2002 5.0504 10.937 9.5083 15.5 26.833 28.138 44.745 34.109-18.946-2.1382-38.146-12.536-46.579-26.284z"/>
      <path id="path3105-1-3-8" d="m159.31 178.54c-1.8951-6.0328-0.80325-11.128 2.6257-14.819 0.001 2.923 0.44451 6.0506 1.4953 9.3956 4.3591 13.877 17.034 27.473 32.292 36.215-17.405-6.1185-32.547-18.484-36.413-30.792z"/>
      <path id="path3105-1-1-8" d="m129.42 227.55c3.3404-6.1387 3.6351-11.707 1.3728-16.116-0.75777 3.1049-1.9837 6.3642-3.8359 9.768-7.6836 14.12-23.099 26.759-39.68 33.873 17.918-4.021 35.328-15.001 42.143-27.525z"/>
      <path id="path3105-1-1-8-2" d="m146.54 226.03c2.705-5.9351 2.3792-10.956-0.41444-14.601-0.42137 2.8785-1.3012 5.9571-2.801 9.248-6.222 13.652-20.466 27.002-36.516 35.564 17.755-5.9717 34.213-18.102 39.732-30.211z"/>
      <path id="path3105-1-1-9" d="m195.57 230.14c-5.1166-6.5096-6.643-13.015-5.0097-18.712 1.5269 3.4969 3.6199 7.0733 6.457 10.683 11.769 14.973 32.026 26.503 52.429 31.258-21.264-0.81341-43.438-9.9477-53.876-23.228z"/>
      <path id="path3105-1-1-8-1" d="m177.88 227.55c-3.3404-6.1387-3.6351-11.707-1.3728-16.116 0.75777 3.1049 1.9837 6.3642 3.8359 9.768 7.6836 14.12 23.099 26.759 39.68 33.873-17.918-4.021-35.328-15.001-42.143-27.525z"/>
      <path id="path3105-1-1-8-2-3" d="m160.76 226.03c-2.705-5.9351-2.3792-10.956 0.41444-14.601 0.42137 2.8785 1.3012 5.9571 2.801 9.248 6.222 13.652 20.466 27.002 36.516 35.564-17.755-5.9717-34.213-18.102-39.732-30.211z"/>
      <path id="path3105-8" d="m170.85 146.67c-3.1214-5.4316-3.8204-10.678-2.4285-15.122 0.85242 2.8559 2.0828 5.8036 3.8136 8.8153 7.1798 12.494 20.262 22.681 33.788 27.493-14.307-1.7235-28.805-10.105-35.173-21.186z"/>
      <path id="path3105-59-4" d="m158.08 140.55c-0.83056-3.8752 0.43167-6.9567 3.2699-9.0008-0.26648 1.8123-0.22904 3.783 0.23149 5.9318 1.9104 8.9138 9.9116 18.246 20.24 24.752-12.135-5.0325-22.047-13.777-23.741-21.683z"/>
      <path id="path3105-7-0" d="m156.92 104.71c-1.7689-6.1351-1.2255-11.509 1.1644-15.59 0.16301 3.0381 0.67219 6.2572 1.653 9.659 4.0688 14.112 14.415 27.339 26.446 35.335-13.51-5.1164-25.655-16.888-29.263-29.404z"/>
      <path id="path3105-1-1-9-3" d="m214.66 284.42c-6.8527-7.8387-10.205-16.503-10.247-24.781 2.4906 4.4941 5.5557 8.967 9.3554 13.313 15.763 18.031 38.809 29.32 60.057 31.184-20.956 3.8002-45.185-3.7241-59.166-19.716z"/>
      <path id="path3105-1-1-8-1-6" d="m197.45 283.66c-5.0154-7.7362-6.8989-15.388-5.9582-22.024 1.6286 4.1289 3.7578 8.3633 6.5388 12.653 11.536 17.795 30.183 31.744 48.382 37.763-18.615-1.422-38.731-12.609-48.963-28.392z"/>
      <path id="path3105-1-1-8-2-3-1" d="m174.95 280.03c-4.23-7.6617-5.2526-14.714-3.4947-20.39 1.1808 3.91 2.8633 7.9983 5.2088 12.247 9.7298 17.623 27.223 33.079 45.203 41.484-18.955-4.4321-38.287-17.709-46.917-33.34z"/>
      <path id="path3105-1-1-8-2-3-1-5" d="m158.2 276.1c-2.5392-6.7816-1.74-12.353 1.7231-16.234 0.22748 3.2324 0.95459 6.7168 2.3625 10.477 5.8407 15.599 20.752 31.372 38.111 41.928-19.504-7.7796-37.016-22.335-42.197-36.171z"/>
      <path id="path3105-1-1-9-3-4" d="m93.414 284.42c6.8527-7.8387 10.205-16.503 10.247-24.781-2.4906 4.4941-5.5557 8.967-9.3554 13.313-15.763 18.031-38.809 29.32-60.057 31.184 20.956 3.8002 45.185-3.7241 59.166-19.716z"/>
      <path id="path3105-1-1-8-1-6-2" d="m110.63 283.66c5.0154-7.7362 6.8989-15.388 5.9582-22.024-1.6286 4.1289-3.7578 8.3633-6.5388 12.653-11.536 17.795-30.183 31.744-48.382 37.763 18.615-1.422 38.731-12.609 48.963-28.392z"/>
      <path id="path3105-1-1-8-2-3-1-0" d="m133.13 280.03c4.23-7.6617 5.2526-14.714 3.4947-20.39-1.1808 3.91-2.8633 7.9983-5.2088 12.247-9.7298 17.623-27.223 33.079-45.203 41.484 18.955-4.4321 38.287-17.709 46.917-33.34z"/>
      <path id="path3105-1-1-8-2-3-1-5-9" d="m149.88 276.53c2.5392-7.0761 1.74-12.889-1.7231-16.939-0.22748 3.3728-0.95459 7.0085-2.3625 10.932-5.8407 16.277-20.752 32.735-38.111 43.749 19.504-8.1175 37.016-23.306 42.197-37.742z"/>
      <path id="path6186" d="m134.09 39.906 12.261 9.0557 0.45369-1.3399-7.6522-5.8408 9.5774 0.14621 0.5625-1.875-15.202-0.14621z"/>
      <path id="path3002-2-2" d="m168.55 64.663-12.01-8.6796 1.3471-0.91306 9.937 7.3442 0.72577 2.2484z"/>
      <path id="path6186-0" d="m176.71 40.081-12.261 9.0557-0.45369-1.3399 7.6522-5.8408-9.5774 0.14621-0.5625-1.875 15.202-0.14621z"/>
      <path id="path6186-0-4" d="m155.48 24.472 4.7358 14.488-1.4146 0.0089-3.1351-9.1018-2.876 9.1365-1.9568-0.05632 4.6467-14.476z"/>
      <path id="path3002-2-2-6" d="m142.27 64.687 12.01-8.6796-1.3471-0.91306-9.937 7.3442-0.72577 2.2484z"/>
      <path id="path3105-1-1-8-2-3-1-5-9-7-73" d="m143.59 328.8c-0.72723-4.3433-2.3533-7.051-4.5223-8.0708 0.69702 1.7771 1.2766 3.8365 1.6798 6.2448 1.6728 9.9905 0.1538 22.778-3.4938 33.537 5.0806-9.9301 7.82-22.85 6.3363-31.711z"/>
      <path id="path3105-1-1-8-2-3-1-5-9-7-73-3" d="m151.23 329.93c-0.68472-4.4201-2.2871-7.1419-4.4511-8.1221 0.6806 1.797 1.2406 3.886 1.6202 6.3369 1.575 10.167-0.0782 23.286-3.8446 34.392 5.1944-10.3 8.0724-23.589 6.6754-32.607z"/>
      <path id="path3105-59-4-5" d="m151.56 140.55c0.83056-3.8752-0.43167-6.9567-3.2699-9.0008 0.26648 1.8123 0.22904 3.783-0.23149 5.9318-1.9104 8.9138-9.9116 18.246-20.24 24.752 12.135-5.0325 22.047-13.777 23.741-21.683z"/>
      <path id="rect6476" d="m119.47 0l-4.13 3 3.32 16.125-9.97-16.625-2.28 4.5938 10.93 13.437-17.31-9.312 0.38 5.093 19.28 7.563 1.19-0.813-1.41-23.062zm-1 2.0938l0.94 15-2.82-13.625 1.88-1.3752zm-9.69 2.7187l7.75 12.876-8.78-10.782 1.03-2.0935zm-7.44 8.3755l15.47 8.312-15.31-5.969-0.16-2.343z" transform="translate(22.5 6.293)"/>
      <path id="rect6476-3" d="m90.688 44.406l2.406 4.532 16.436-1.094-17.842 7.594 4.218 2.906 14.814-9-11.595 15.875 5.095 0.312 10.16-18.031-0.66-1.312-23.032-1.782zm1.937 1.313l14.995 1.125-13.87 0.906-1.125-2.031zm15.185 4.062l-11.872 7.219-1.938-1.312 13.81-5.907zm3.81 0.25l-8 14.344-2.34-0.187 10.34-14.157z" transform="translate(22.5 6.293)"/>
      <path id="rect6476-2" d="m145.28 0.25l-1.4 23.062 1.21 0.813 19.25-7.563 0.38-5.093-17.28 9.312 10.94-13.437-2.29-4.594-10 16.656 3.35-16.156-4.16-3zm1.03 2.0938l1.88 1.375-2.81 13.625 0.93-15zm9.69 2.7187l1.03 2.0937-8.78 10.782 7.75-12.876zm7.44 8.3755l-0.16 2.343-15.31 5.969 15.47-8.312z" transform="translate(22.5 6.293)"/>
      <path id="rect6476-2-9" d="m175.47 45.094l-23.06 1.031-0.69 1.281 9.56 18.375 5.1-0.187-11.07-16.188 14.5 9.438 4.31-2.75-17.59-8.188 16.41 1.625 2.53-4.437zm-1.97 1.218l-1.19 2.032-13.84-1.375 15.03-0.657zm-15.31 3.594l13.62 6.344-1.97 1.25-11.65-7.594zm-3.81 0.125l9.9 14.5-2.34 0.094-7.56-14.594z" transform="translate(22.5 6.293)"/>
      <path id="path6709-8-8-8-3" d="m195.8 134.14c-4.4762 0-8.0938 3.6488-8.0938 8.125s3.6176 8.0938 8.0938 8.0938 8.125-3.6176 8.125-8.0938-3.6488-8.125-8.125-8.125zm0 1.9062c3.4285 0 6.2188 2.7902 6.2188 6.2188 0 3.4285-2.7902 6.1875-6.2188 6.1875-3.4285 0-6.1875-2.759-6.1875-6.1875s2.759-6.2188 6.1875-6.2188z"/>
      <path id="path6709-7-8-9-0-7-8-7" d="m195.93 136.99c-2.9456 0-5.3438 2.3982-5.3438 5.3438 0 1.0956 0.37101 2.1216 0.9375 2.9688-0.003-0.0957-0.0312-0.18483-0.0312-0.28125 0-3.49 2.2861-6.5016 5.5938-7.875-0.37605-0.0841-0.75485-0.15625-1.1562-0.15625z"/>
      <path id="path6709-8-8-8" d="m207.92 170.13c-4.4762 0-8.0938 3.6488-8.0938 8.125s3.6176 8.0938 8.0938 8.0938 8.125-3.6176 8.125-8.0938-3.6488-8.125-8.125-8.125zm0 1.9062c3.4285 0 6.2188 2.7902 6.2188 6.2188 0 3.4285-2.7902 6.1875-6.2188 6.1875-3.4285 0-6.1875-2.759-6.1875-6.1875s2.759-6.2188 6.1875-6.2188z"/>
      <path id="path6709-7-8-9-0-7-8-7-7" d="m208.28 173.11c-2.9456 0-5.3438 2.3982-5.3438 5.3438 0 1.0956 0.37101 2.1216 0.9375 2.9688-0.003-0.0957-0.0312-0.18483-0.0312-0.28125 0-3.49 2.2861-6.5016 5.5938-7.875-0.37605-0.0841-0.75485-0.15625-1.1562-0.15625z"/>
      <path id="path6709-8-8" d="m227.79 211.81c-4.4762 0-8.0938 3.6488-8.0938 8.125s3.6176 8.0938 8.0938 8.0938 8.125-3.6176 8.125-8.0938-3.6488-8.125-8.125-8.125zm0 1.9062c3.4285 0 6.2188 2.7902 6.2188 6.2188 0 3.4285-2.7902 6.1875-6.2188 6.1875-3.4285 0-6.1875-2.759-6.1875-6.1875s2.759-6.2188 6.1875-6.2188z"/>
      <path id="path6709-7-8-9-0-7-8-7-7-3" d="m228.11 214.69c-2.9456 0-5.3438 2.3982-5.3438 5.3438 0 1.0956 0.37101 2.1216 0.9375 2.9688-0.003-0.0957-0.0312-0.18483-0.0312-0.28125 0-3.49 2.2861-6.5016 5.5938-7.875-0.37605-0.0841-0.75485-0.15625-1.1562-0.15625z"/>
      <path id="path6709-8" d="m249.95 260.39c-4.4762 0-8.0938 3.6488-8.0938 8.125s3.6176 8.0938 8.0938 8.0938 8.125-3.6176 8.125-8.0938-3.6488-8.125-8.125-8.125zm0 1.9062c3.4285 0 6.2188 2.7902 6.2188 6.2188 0 3.4285-2.7902 6.1875-6.2188 6.1875-3.4285 0-6.1875-2.759-6.1875-6.1875s2.759-6.2188 6.1875-6.2188z"/>
      <path id="path6709-7-8-9-0-7-8-7-7-9" d="m250.17 263.21c-2.9456 0-5.3438 2.3982-5.3438 5.3438 0 1.0956 0.37101 2.1216 0.9375 2.9688-0.003-0.0957-0.0312-0.18483-0.0312-0.28125 0-3.49 2.2861-6.5016 5.5938-7.875-0.37605-0.0841-0.75485-0.15625-1.1562-0.15625z"/>
      <path id="path6709" d="m276.58 312.06c-4.4762 0-8.0938 3.6488-8.0938 8.125s3.6176 8.0938 8.0938 8.0938 8.125-3.6176 8.125-8.0938-3.6488-8.125-8.125-8.125zm0 1.9062c3.4285 0 6.2188 2.7902 6.2188 6.2188 0 3.4285-2.7902 6.1875-6.2188 6.1875-3.4285 0-6.1875-2.759-6.1875-6.1875s2.759-6.2188 6.1875-6.2188z"/>
      <path id="path6709-7-8-9-0-7-8-7-7-5" d="m276.66 314.99c-2.9456 0-5.3438 2.3982-5.3438 5.3438 0 1.0956 0.37101 2.1216 0.9375 2.9688-0.003-0.0957-0.0312-0.18483-0.0312-0.28125 0-3.49 2.2861-6.5016 5.5938-7.875-0.37605-0.0841-0.75485-0.15625-1.1562-0.15625z"/>
      <path id="path6709-8-8-8-3-9" d="m113.12 133.49c4.4762 0 8.0938 3.6488 8.0938 8.125s-3.6176 8.0938-8.0938 8.0938-8.125-3.6176-8.125-8.0938 3.6488-8.125 8.125-8.125zm0 1.9062c-3.4285 0-6.2188 2.7902-6.2188 6.2188 0 3.4285 2.7902 6.1875 6.2188 6.1875 3.4285 0 6.1875-2.759 6.1875-6.1875s-2.759-6.2188-6.1875-6.2188z"/>
      <path id="path6709-7-8-9-0-7-8-7-6" d="m113.15 136.23c-2.9456 0-5.3438 2.3982-5.3438 5.3438 0 1.0956 0.37101 2.1216 0.9375 2.9688-0.003-0.0957-0.0312-0.18483-0.0312-0.28125 0-3.49 2.2861-6.5016 5.5938-7.875-0.37605-0.0841-0.75485-0.15625-1.1562-0.15625z"/>
      <path id="path6709-8-8-8-8" d="m100.92 170.06c4.4762 0 8.0938 3.6488 8.0938 8.125s-3.6176 8.0938-8.0938 8.0938-8.125-3.6176-8.125-8.0938 3.6488-8.125 8.125-8.125zm0 1.9062c-3.4285 0-6.2188 2.7902-6.2188 6.2188 0 3.4285 2.7902 6.1875 6.2188 6.1875 3.4285 0 6.1875-2.759 6.1875-6.1875s-2.759-6.2188-6.1875-6.2188z"/>
      <path id="path6709-7-8-9-0-7-8-7-7-4" d="m101.08 172.8c-2.9456 0-5.3438 2.3982-5.3438 5.3438 0 1.0956 0.37101 2.1216 0.9375 2.9688-0.003-0.0957-0.0312-0.18483-0.0312-0.28125 0-3.49 2.2861-6.5016 5.5938-7.875-0.37605-0.0841-0.75485-0.15625-1.1562-0.15625z"/>
      <path id="path6709-8-8-5" d="m83.214 211.57c4.4762 0 8.0938 3.6488 8.0938 8.125s-3.6176 8.0938-8.0938 8.0938-8.125-3.6176-8.125-8.0938 3.6488-8.125 8.125-8.125zm0 1.9062c-3.4285 0-6.2188 2.7902-6.2188 6.2188 0 3.4285 2.7902 6.1875 6.2188 6.1875 3.4285 0 6.1875-2.759 6.1875-6.1875s-2.759-6.2188-6.1875-6.2188z"/>
      <path id="path6709-7-8-9-0-7-8-7-7-3-5" d="m83.173 214.34c-2.9456 0-5.3438 2.3982-5.3438 5.3438 0 1.0956 0.37101 2.1216 0.9375 2.9688-0.003-0.0957-0.0312-0.18483-0.0312-0.28125 0-3.49 2.2861-6.5016 5.5938-7.875-0.37605-0.0841-0.75485-0.15625-1.1562-0.15625z"/>
      <path id="path6709-8-7" d="m58.979 260.4c4.4762 0 8.0938 3.6488 8.0938 8.125s-3.6176 8.0938-8.0938 8.0938-8.125-3.6176-8.125-8.0938 3.6488-8.125 8.125-8.125zm0 1.9062c-3.4285 0-6.2188 2.7902-6.2188 6.2188 0 3.4285 2.7902 6.1875 6.2188 6.1875 3.4285 0 6.1875-2.759 6.1875-6.1875s-2.759-6.2188-6.1875-6.2188z"/>
      <path id="path6709-7-8-9-0-7-8-7-7-9-4" d="m59.264 263.33c-2.9456 0-5.3438 2.3982-5.3438 5.3438 0 1.0956 0.37101 2.1216 0.9375 2.9688-0.003-0.0957-0.0312-0.18483-0.0312-0.28125 0-3.49 2.2861-6.5016 5.5938-7.875-0.37605-0.0841-0.75485-0.15625-1.1562-0.15625z"/>
      <path id="path6709-88" d="m34.177 312.23c4.4762 0 8.0938 3.6488 8.0938 8.125s-3.6176 8.0938-8.0938 8.0938-8.125-3.6176-8.125-8.0938 3.6488-8.125 8.125-8.125zm0 1.9062c-3.4285 0-6.2188 2.7902-6.2188 6.2188 0 3.4285 2.7902 6.1875 6.2188 6.1875 3.4285 0 6.1875-2.759 6.1875-6.1875s-2.759-6.2188-6.1875-6.2188z"/>
      <path id="path6709-7-8-9-0-7-8-7-7-5-0" d="m34.385 315.16c-2.9456 0-5.3438 2.3982-5.3438 5.3438 0 1.0956 0.37101 2.1216 0.9375 2.9688-0.003-0.0957-0.0312-0.18483-0.0312-0.28125 0-3.49 2.2861-6.5016 5.5938-7.875-0.37605-0.0841-0.75485-0.15625-1.1562-0.15625z"/>
    </g>
  </g>
  <metadata>
    <rdf:RDF>
      <cc:Work>
        <dc:format>image/svg+xml</dc:format>
        <dc:type rdf:resource="http://purl.org/dc/dcmitype/StillImage"/>
        <cc:license rdf:resource="http://creativecommons.org/licenses/publicdomain/"/>
        <dc:publisher>
          <cc:Agent rdf:about="http://openclipart.org/">
            <dc:title>Openclipart</dc:title>
          </cc:Agent>
        </dc:publisher>
      </cc:Work>
      <cc:License rdf:about="http://creativecommons.org/licenses/publicdomain/">
        <cc:permits rdf:resource="http://creativecommons.org/ns#Reproduction"/>
        <cc:permits rdf:resource="http://creativecommons.org/ns#Distribution"/>
        <cc:permits rdf:resource="http://creativecommons.org/ns#DerivativeWorks"/>
      </cc:License>
    </rdf:RDF>
  </metadata>
</svg>
