<?xml version="1.0"?>
<svg xmlns:rdf="http://www.w3.org/1999/02/22-rdf-syntax-ns#" xmlns="http://www.w3.org/2000/svg" xmlns:cc="http://web.resource.org/cc/" xmlns:xlink="http://www.w3.org/1999/xlink" xmlns:dc="http://purl.org/dc/elements/1.1/" id="Layer_1" xml:space="preserve" overflow="visible" viewBox="0 0 299.706 476.516" version="1.1" enable-background="new 0 0 299.706 476.516">
<g clip-rule="evenodd" fill-rule="evenodd">
	<path d="m142.55 7.324c6.12 4.976 1.443 13.151 3.247 22.727-1.93-0.235-3.743-0.586-6.088-0.406 0.3-7.319-3.58-19.69 2.84-22.321z" fill="#fff"/>
	<path d="m148.63 31.674c0.009 0.956-0.699 1.195-0.406 2.435-2.215 0.625-5.743-1.834-6.899 0.406-1.135-1.029-3.216-1.113-4.87-1.623 1.42-3.036 8.17-0.114 12.18-1.218z" fill="#fff"/>
	<path d="m155.13 49.938c-1.783 0.024-2.639-0.879-3.247-2.029 1.35-2.555 4.78-1.216 3.25 2.029z" fill="#fff"/>
	<path d="m150.66 48.72c0.236 1.589-0.349 2.356-0.812 3.247-0.869-0.483-2.268-0.438-2.841-1.218-0.7-2.982 2.31-3.322 3.65-2.029z" fill="#fff"/>
	<path d="m135.65 48.72c1.706-0.083 3.393-0.146 3.652 1.218 0.38 1.868-1.299 1.677-2.029 2.435-1.18-0.576-1.81-1.71-1.62-3.653z" fill="#fff"/>
	<path d="m144.58 48.72c0.931 1.074 0.931 2.579 0 3.653-3.26 0.877-4.23-4.898 0-3.653z" fill="#fff"/>
	<path d="m159.59 56.431c-0.298 1.482-3.199 0.801-3.652 0 0.08-2.523 3.07-1.36 3.65 0z" fill="#fff"/>
	<path d="m134.43 59.678c2.008 0.824-0.942 1.456-1.217 2.435-1.22-0.863 1.16-1.511 1.22-2.435z" fill="#fff"/>
	<path d="m155.13 59.678c1 0.353 1.76 0.946 1.623 2.435-0.472-0.066-0.722 0.089-0.812 0.406-1.71-0.068-1.9-2.102-0.81-2.841z" fill="#fff"/>
	<path d="m155.13 62.924c0.819 0.938 0.414 3.113-0.406 3.653-2.03-0.324-3.12-4.147 0.41-3.653z" fill="#fff"/>
	<path d="m122.25 65.359c1.216 0.948 2.013 2.316 3.247 3.247-0.846 4.494 0.156 6.286 0 10.958-1.892 1.761-2.617 4.688-4.464 6.494-3.047-3.388-0.595-11.264-1.624-15.828 0.52-2.047 2.9-2.232 2.83-4.871z" fill="#fff"/>
	<path d="m152.29 69.824c-1.24 0.293-1.479-0.415-2.436-0.406-0.85-4.309 4.61-2.66 2.44 0.406z" fill="#fff"/>
	<path d="m148.63 69.824c0.423 1.15 0.423 1.691 0 2.841-1.604-0.02-2.415-0.832-2.436-2.435 0.49-0.468 1.44-0.46 2.44-0.406z" fill="#fff"/>
	<path d="m144.98 71.853c0.468 1.19 0.271 3.291-2.029 2.841-0.67-1.39-0.2-3.225 2.03-2.841z" fill="#fff"/>
	<path d="m141.73 74.694c0.125 1.614-0.779 2.197-2.435 2.029-0.34-0.471-0.535-1.088-0.406-2.029 0.55-0.579 2.3-0.579 2.84 0z" fill="#fff"/>
	<path d="m137.68 77.94c-4.82 2.147-0.4-5.523 0 0z" fill="#fff"/>
	<path d="m133.62 78.752c-1.289 1.085-2.964-0.041-2.841-1.624 1.28-1.085 2.96 0.042 2.84 1.624z" fill="#fff"/>
	<path d="m133.21 80.782c1.742-0.254 2.614 0.361 3.247 1.217-0.25 3.174-4.81 0.88-3.25-1.217z" fill="#fff"/>
	<path d="m154.32 80.782c1.485 1.626 2.118 4.104 4.059 5.276-0.307 5.988 0.64 10.724 0.405 16.64-1.796-0.358-4.145 0.204-6.899 0-0.951-6.759-0.142-10.574-1.218-17.045 1.78-1.064 3.32-2.372 3.66-4.873z" fill="#fff"/>
	<path d="m131.99 84.84c-0.617 5.898 7.978 15.257-1.217 19.075-11.145 2.794-13.597-9.381-7.305-13.798-2.38-6.784 5.41-10.607 8.53-5.282z" fill="#fff"/>
	<path d="m139.3 85.652c0.063 1.009-0.638 1.256-0.812 2.029h-2.029c-0.34-0.877-1.051-1.384-0.812-2.841 1.26-1.21 3.13-0.773 3.65 0.812z" fill="#fff"/>
	<path d="m120.63 88.493c0.619 2.646-1.738 3.093-3.247 2.435v-2.029c0.59-0.628 2.08-0.358 3.25-0.406z" fill="#fff"/>
	<path d="m142.55 89.71c-0.028 1.19-0.928 1.507-1.624 2.029-1.603-0.02-2.415-0.832-2.435-2.435 1.15-1.116 3.37-1.017 4.05 0.406z" fill="#fff"/>
	<path d="m146.2 92.145c0.558 1.284 0.089 1.356 0 2.841-1.764 0.54-2.265 0.228-3.652-0.406-0.86-2.981 1.87-3.287 3.65-2.435z" fill="#fff"/>
	<path d="m148.23 93.769c1.475 0.013 1.783 1.193 1.623 2.841-2.21 0.752-2.48-1.784-1.62-2.841z" fill="#fff"/>
	<path d="m164.06 96.204c0.34 0.877 1.051 1.384 0.812 2.841-1.625 1.172-4.614 0.736-4.059-2.435 1.31 0.089 1.72-0.718 3.25-0.406z" fill="#fff"/>
	<path d="m170.14 101.07c-7.57 0.3 0.49-7.761 0 0z" fill="#fff"/>
	<path d="m162.43 104.73c-1.942 3.409-9.202 0.975-12.581 2.029 0.233-0.713-0.49-2.384 0.406-2.435 2.9-0.12 8.27-0.81 12.17 0.41z" fill="#fff"/>
	<path d="m102.37 105.54c1.7 0.6 2.158 2.442 3.652 3.247-0.652 5.582-0.292 13.926-0.812 18.669-2.099 0.763-2.47 0.756-5.276 0.812 0.126-6.4-2.368-16.99 2.436-22.73z" fill="#fff"/>
	<path d="m169.74 107.57c1.445-0.093 2.122 0.583 2.029 2.029-1.45 0.09-2.13-0.59-2.03-2.03z" fill="#fff"/>
	<path d="m197.34 128.26c-1.61 0.602-3.99 1.255-5.276 0 0.719-5.072-2.584-14.655 0.812-19.48 6.34 2.18 3.43 12.92 4.47 19.48z" fill="#fff"/>
	<path d="m160.4 112.44c0.14 1.628-1.008 1.969-1.624 2.841-0.601-0.211-1.022-0.601-1.623-0.812-0.33-2.63 2.24-4.07 3.24-2.03z" fill="#fff"/>
	<path d="m179.88 115.68c-0.254 2.688 2.342 2.528 2.841 4.464 0.318 4.512-1.048 7.34-4.059 8.523-0.146 2.31 2.628 1.701 2.435 4.058 0.088 1.982-1.913 1.875-2.435 3.247 0.523 3.809 3.378 8.213 1.218 12.175-4.809-1.045-1.457-7.482-2.436-11.364-0.586-2.325-2.445-1.896-2.841-4.059-0.307-1.93 1.023-2.224 1.623-3.247-1.797-2.173-4.409-1.118-6.087-2.841-4.61-4.74 0.5-14.55 9.75-10.95z" fill="#fff"/>
	<path d="m164.46 116.5c1.436-0.218 2.091 0.344 2.436 1.217-0.104 1.948-1.672 2.3-2.841 1.217-0.3-1.25 0.41-1.49 0.4-2.44z" fill="#fff"/>
	<path d="m115.35 119.34c2.043-0.284 2.676 0.842 2.435 2.841-1.146 0.476-1.724 0.081-2.841-0.406-0.04-1-0.05-1.95 0.41-2.43z" fill="#fff"/>
	<path d="m157.97 120.15c0.197 2.091-0.309 3.479-1.623 4.059-1.575-0.049-2.051-1.196-2.841-2.029 0.34-1.68 2.45-3.31 4.46-2.03z" fill="#fff"/>
	<path d="m118.6 122.99c1.695 0.271 0.188 2.52-0.812 1.218 0.14-0.54 0.71-0.64 0.81-1.22z" fill="#fff"/>
	<path d="m108.86 136.79c-2.76-16.788 23.929-11.973 17.045 1.217-3.06 5.87-14.34 4.63-17.04-1.22z" fill="#fff"/>
	<path d="m151.88 126.64c1.24 9.8-9.71-2.31 0 0z" fill="#fff"/>
	<path d="m144.17 130.7c-0.352 1.271-1.005 2.241-2.029 2.841-1.267-0.221-2.009-0.967-2.435-2.029 0.31-2.39 3.62-3.16 4.47-0.81z" fill="#fff"/>
	<path d="m105.21 131.11c-0.643 1.792-4.525 0.344-6.494 0.812 0.529-1.72 5.754-3.08 6.494-0.81z" fill="#fff"/>
	<path d="m135.24 133.14c-7 4.99-3.14-8.74 0 0z" fill="#fff"/>
	<path d="m200.99 132.32c-3.145-1.436-9.747 2.938-10.958-1.624 3.63 0.9 9.73-2.42 10.96 1.62z" fill="#fff"/>
	<path d="m155.94 135.16c8.238 3.329 5.225 15.79 7.306 25.568-2.271 1.027-4.481 1.577-6.899 1.217-0.51-8.23-4.9-20.01-0.41-26.79z" fill="#fff"/>
	<path d="m174.2 137.6c0.193 1.545-0.172 2.534-1.217 2.841-1.353-0.271-2.204-1.043-2.029-2.841 1.27-0.69 2.15-0.88 3.25 0z" fill="#fff"/>
	<path d="m189.62 136.79c1.533-0.045 2.182 0.794 2.435 2.029-1.66 0.16-2.56-0.42-2.44-2.03z" fill="#fff"/>
	<path d="m136.05 141.25c-0.361 0.18-0.726 0.356-0.812 0.812-6.86-0.15 0.36-7.37 0.81-0.81z" fill="#fff"/>
	<path d="m167.3 141.25c0.852 1.632-0.027 3.313-2.028 3.247-2.08-1.05-1.15-4.12 2.03-3.25z" fill="#fff"/>
	<path d="m139.3 142.47c2.395-0.365 3.447 0.612 3.652 2.435-0.499 0.177-0.833 0.52-0.812 1.218h-1.217c-1.7-0.05-1.66-1.86-1.62-3.65z" fill="#fff"/>
	<path d="m151.88 145.72c0.062 1.009-0.638 1.256-0.812 2.029-5.4 0.21-1.11-6.63 0.81-2.03z" fill="#fff"/>
	<path d="m207.48 150.99c5.062 4.8 4.286 18.688 3.653 25.568-2.091 0.197-3.374 1.043-5.276 0.406-0.33-9.49-3.16-19.71 1.63-25.98z" fill="#fff"/>
	<path d="m128.34 151.4c2.26 0.049 3.332 3.727 1.623 5.276-1.503 0.654-3.262-0.392-4.058-1.624-0.08-2.13 1.42-2.65 2.44-3.66z" fill="#fff"/>
	<path d="m91.816 153.02c5.256 4.442 3.358 15.927 3.247 23.945-1.286 0.608-3.584 0.204-4.87 0.812 0.676-5.15-2.07-13.691-0.812-19.48 0.505-2.32 2.925-3.03 2.435-5.27z" fill="#fff"/>
	<path d="m200.58 156.27c1.062-0.114 1.746 0.148 1.624 1.218-1.06 0.11-1.74-0.15-1.62-1.22z" fill="#fff"/>
	<path d="m106.83 157.89c-0.793 3.941-7.991 1.479-8.523 5.682-1.3-0.722-1.024-1.811-0.812-3.247 4.835 0.92 5.315-2.53 9.335-2.43z" fill="#fff"/>
	<path d="m191.25 161.54c-2.535 14.646-5.464 28.897-8.522 43.02-3.881-7.497-7.441-25.756-9.74-34.902-0.691-2.75-1.199-6.971-0.812-8.117 2.03-6.04 15.36-3.65 19.07 0z" fill="#fff"/>
	<path d="m196.52 161.95c1.312 0.312 2.123 1.123 2.435 2.435-1.59 0.03-3.09-1.48-2.44-2.43z" fill="#fff"/>
	<path d="m149.45 162.36h1.623c0.793 1.11 0.793 1.73 0 2.841-1.86-0.23-2.09-1.17-1.62-2.84z" fill="#fff"/>
	<path d="m165.68 164.79c-2.778 1.26-8.437 1.415-10.958 1.623 0.166-0.978-0.741-0.882-0.405-2.029 2.856-0.034 8.35-1.518 10.958-1.623 0.33 0.47 0.53 1.09 0.4 2.03z" fill="#fff"/>
	<path d="m110.08 164.79v2.029c-0.542 0.579-2.299 0.579-2.841 0 0.066-0.472-0.09-0.722-0.406-0.812 0.3-1.47 1.84-1.95 3.25-1.22z" fill="#fff"/>
	<path d="m147.42 165.6h1.218c1.89 3.22-3.12 3.22-1.22 0z" fill="#fff"/>
	<path d="m152.29 167.63h1.218c0.579 0.542 0.579 2.299 0 2.841-1.53 0.16-2.1-1.84-1.22-2.84z" fill="#fff"/>
	<path d="m110.48 168.04c7.73 1.7-2.82 6.72 0 0z" fill="#fff"/>
	<path d="m146.2 168.85c-0.042 1.717-1.093 2.425-2.435 2.841-2.99-1.38 0.88-4.97 2.44-2.84z" fill="#fff"/>
	<path d="m194.9 168.85c-0.521 0.696-0.839 1.596-2.029 1.624-1.32-1.54 1.07-3.33 2.03-1.62z" fill="#fff"/>
	<path d="m202.61 169.66v2.841c-2.619-0.086-3.834-1.577-4.464-3.653 1.44-1.05 3.64-0.04 4.46 0.81z" fill="#fff"/>
	<path d="m155.94 169.66c1.847-0.388 2.556 1.706 1.623 2.841-1.146 0.335-1.051-0.572-2.028-0.406-0.05-0.99-0.06-1.95 0.41-2.43z" fill="#fff"/>
	<path d="m104.4 170.88c-0.464 1.386-2.958 1.189-1.624 3.247-1.906 0.583-4.503 0.402-4.464-2.841 1.744-0.17 4.674-1.26 6.084-0.41z" fill="#fff"/>
	<path d="m163.24 171.28c0.353 2.112-0.491 3.027-2.029 3.247-2.5-1.51-0.39-5.66 2.03-3.25z" fill="#fff"/>
	<path d="m169.33 171.28c0.591 3.002-2.935 4.198-4.058 2.029-0.29-2.63 2.45-3.56 4.06-2.03z" fill="#fff"/>
	<path d="m142.14 171.69v2.029c-0.89 0.462-1.658 1.047-3.247 0.812-1.15-2.21 1.26-5.08 3.25-2.84z" fill="#fff"/>
	<path d="m118.6 172.5c0.013 3.519-4.904 3.617-4.059-0.812 1.16-0.73 2.69-0.15 4.06 0.81z" fill="#fff"/>
	<path d="m137.27 176.16c-1.233 1.146-2 1.186-4.058 0.812-3.73-4.78 5.13-7.19 4.06-0.81z" fill="#fff"/>
	<path d="m124.28 176.16c-7.89 4.15-2.31-9.6 0 0z" fill="#fff"/>
	<path d="m129.15 172.5c2.177 1.656 2.023 5.853-2.435 4.87-0.585-0.903-1.019-1.957-0.812-3.653 1.01-0.76 2.67-1.11 3.24-1.22z" fill="#fff"/>
	<path d="m159.59 176.56c0.947 0.136 1.749 0.416 2.029 1.218 0.296 1.107-0.807 0.817-0.812 1.624-1.275-0.078-1.951-0.754-2.029-2.029 0.36-0.18 0.73-0.35 0.81-0.81z" fill="#fff"/>
	<path d="m98.715 179c-0.116 3.527-8.484 1.626-10.552 2.841 1.466-2.77 8.158-2.34 10.552-2.84z" fill="#fff"/>
	<path d="m214.38 179.81c-3.261 1.293-6.521 0.03-10.552 0.406v-1.217c3.25-0.14 8.43-1.34 10.55 0.81z" fill="#fff"/>
	<path d="m159.59 180.21c1.318-0.235 1.889 0.276 2.841 0.406 0.611 1.822 0.294 3.021-1.217 3.653 1.035 1.505 2.778 2.88 1.217 4.87h-2.028c-0.64-2.96-0.74-5.48-0.81-8.93z" fill="#fff"/>
	<path d="m141.73 183.87c1.136 1.624 1.424 3.723 0 5.276-4.5 0.9-5.98-6.73 0-5.28z" fill="#fff"/>
	<path d="m206.67 185.49c1.63 0.128 2.784 0.733 3.247 2.029-0.97 0.57-2.96-0.65-3.25-2.03z" fill="#fff"/>
	<path d="m219.66 187.11c0.605-0.839 3.511-0.562 3.247 0.812-1.59 0.24-2.36-0.34-3.25-0.81z" fill="#fff"/>
	<path d="m202.61 187.52c1.274-0.192 1.072 1.092 2.029 1.218-0.38 1.58-1.97-0.09-2.03-1.22z" fill="#fff"/>
	<path d="m211.54 188.33c2.209-0.315 3.165 0.624 4.465 1.218-0.92 0.63-4.29 0.25-4.46-1.22z" fill="#fff"/>
	<path d="m142.55 195.23c-2.785 0.35-3.508-1.362-4.059-3.247 1.7-3.54 6.95 0.21 4.06 3.25z" fill="#fff"/>
	<path d="m162.43 194.82c-0.844-0.889-1.312 0.356-2.028-0.406-1.07-6.25 5.63-2.32 2.03 0.41z" fill="#fff"/>
	<path d="m123.88 221.61c2.82 7.079-6.523 9.542-9.334 4.464-0.437-2.195 1.1-2.417 0.812-4.464-2.732-2.287-6.072-4.613-5.276-8.929 0.474-2.568 3.435-3.238 4.059-5.682-2.553-1.943-5.206-4.474-4.059-9.74 1.769-8.122 13.999-7.311 16.64 0 1.14 3.613-2.851 4.901-2.841 8.117 0.007 2.226 2.792 3.015 3.652 5.276 1.63 4.27-0.71 7.65-3.65 10.95z" fill="#fff"/>
	<path d="m90.192 192.79c-0.369 0.849-1.198 1.237-2.435 1.218-0.013-1.23 1.424-1.01 2.435-1.22z" fill="#fff"/>
	<path d="m164.87 196.85c0.212 1.835-0.322 2.924-1.623 3.247-0.729 0.052-0.856-0.497-1.624-0.406-1.72-2.68 1.25-4.94 3.24-2.84z" fill="#fff"/>
	<path d="m91.816 196.85c0.346 2.24-0.803 2.985-2.436 3.247-1.91-1.59-0.14-5.14 2.436-3.25z" fill="#fff"/>
	<path d="m157.56 196.45h1.218c0.341 0.471 0.535 1.088 0.406 2.029h-1.624c-0.01-0.68-0.01-1.36-0.01-2.03z" fill="#fff"/>
	<path d="m141.33 197.66c0.838 0.244 1.537 0.628 1.218 2.029-1.75 0.15-1.57-1.01-1.22-2.03z" fill="#fff"/>
	<path d="m203.02 198.48h1.623v2.029c-1.5 0.28-1.79-0.65-1.62-2.03z" fill="#fff"/>
	<path d="m169.33 200.5c0.978 1.907-0.328 3.634-2.841 3.247-1.55-1.98-0.36-3.9 2.84-3.25z" fill="#fff"/>
	<path d="m156.34 201.32h2.029c0.65 2.15-2.67 2.15-2.03 0z" fill="#fff"/>
	<path d="m203.83 204.16c-0.253 1.235-0.901 2.075-2.435 2.029-2.63-2.62 1.61-5.89 2.43-2.03z" fill="#fff"/>
	<path d="m91.41 202.94c2.731 0.058 3.504 3.146 1.218 4.059-1.891-0.32-2.563-2.68-1.218-4.06z" fill="#fff"/>
	<path d="m172.58 207.81h-2.029c-4.52-4.77 5.62-5.05 2.03 0z" fill="#fff"/>
	<path d="m224.12 204.16c1.677 0.624 1.901 2.699 3.247 3.652 0.282 8.327 0.894 12.458 0.812 21.916-1.413 0.799-4.711 0.533-5.682-0.406-0.391-7.32-0.597-14.825-1.218-21.916 0.67-1.36 3.47-0.59 2.84-3.24z" fill="#fff"/>
	<path d="m157.16 208.22c-0.941 0.129-1.559-0.065-2.029-0.406-0.61-3.61 4.03-2.25 2.03 0.41z" fill="#fff"/>
	<path d="m198.96 206.59c0.845 0.238 1.312 0.853 2.029 1.217 0.444 1.797-0.688 2.019-0.812 3.247-2.44-0.13-3.15-3.28-1.22-4.47z" fill="#fff"/>
	<path d="m175.83 207.81c2.035-0.006 3.472 0.587 3.246 2.841-1.99 1.55-4.97-0.69-3.25-2.84z" fill="#fff"/>
	<path d="m93.033 208.22c2.608-0.38 3.645 1.833 2.841 3.652-2.727 0.5-3.716-1.76-2.841-3.65z" fill="#fff"/>
	<path d="m101.56 209.03c2.032 0.313 0.635 1.988 0 2.841-0.327-0.215-0.659-0.423-1.218-0.406-0.02-1.23 0.86-1.58 1.22-2.43z" fill="#fff"/>
	<path d="m154.32 209.43c0.601 0.211 1.022 0.601 1.623 0.812 0.565 2.474-1.334 4.14-3.247 2.841-0.14-1.9 0.74-2.77 1.63-3.65z" fill="#fff"/>
	<path d="m160.81 227.7c-1.258-3.143-2.893-3.782-3.247-6.494-2.327-17.83 27.321-12.084 19.481 3.653-1.077 2.161-5.498 4.805-8.523 4.87-2.96 0.06-5.02-2.72-7.71-2.03z" fill="#fff"/>
	<path d="m196.93 211.06c0.874 2.926-2.448 3.569-3.652 2.029-0.88-2.93 2.44-3.57 3.65-2.03z" fill="#fff"/>
	<path d="m183.94 211.46c0.463 0.89 1.048 1.658 0.812 3.247h-3.247c-1.35-1.77-0.65-3.87 2.44-3.25z" fill="#fff"/>
	<path d="m203.02 211.46c2.176 1.071 4.036 2.457 4.87 4.87-2.44-0.81-4.09-2.4-4.87-4.87z" fill="#fff"/>
	<path d="m191.65 213.09c0.604 1.255-0.119 2.235-0.812 3.247-5.38 0.84-2.89-6.98 0.81-3.25z" fill="#fff"/>
	<path d="m74.364 212.68c0.39 2.419-2.449 1.609-2.435 3.653-0.728-0.875-0.713-1.864-0.406-2.841 0.902-0.31 1.583-0.85 2.841-0.81z" fill="#fff"/>
	<path d="m201.39 213.09c0.561 1.239 0.696 3.389-0.812 3.652-2.34 0.24-2.42-4.9 0.81-3.65z" fill="#fff"/>
	<path d="m97.498 217.96c-4.111 0.257-1.278-6.669 1.217-3.247 0.11 1.6-0.156 2.82-1.217 3.25z" fill="#fff"/>
	<path d="m217.22 219.17c1.921-0.302 0.321-2.013 1.218-2.841 1.981 0.676 1.308 5.879 0.812 7.711-3.904-1.507-8.027-2.794-9.74-6.494h2.029c0.41-1.762-0.896-1.809-1.623-2.435 2.26-1.55 3.18 4.8 7.3 4.05z" fill="#fff"/>
	<path d="m151.07 214.71c1.001-0.053 1.955-0.062 2.436 0.406 0.314 1.938-0.848 2.399-2.436 2.435-0.58-0.55-0.58-2.31 0-2.85z" fill="#fff"/>
	<path d="m78.017 243.12c-1.724 0.795-3.839-0.124-5.682-0.406-0.611-7.492-0.336-15.457-0.812-23.133 2.018-2.825 4.369-2.36 6.088 0.406-0.094 7.7 1.688 15.57 0.406 23.13z" fill="#fff"/>
	<path d="m101.56 219.58c0.239 1.457-0.472 1.963-0.812 2.841-1.457 0.239-1.963-0.472-2.841-0.812-0.849-3.2 2.651-4.08 3.651-2.03z" fill="#fff"/>
	<path d="m151.48 219.58c-0.447 1.177-0.503 2.745-2.029 2.841-1.272 0.19-1.145-1.021-1.624-1.624 0.03-2.29 2.25-2.19 3.65-1.22z" fill="#fff"/>
	<path d="m105.21 224.45c0.018 1.236-0.857 1.578-1.217 2.435-1.757 0.134-2.688-0.559-3.247-1.623-0.25-3.04 3.77-2.88 4.47-0.81z" fill="#fff"/>
	<path d="m148.23 224.04c0.239 1.457-0.472 1.963-0.812 2.841h-2.029c-0.805-0.798-0.259-2.318 0-3.247 1.76 0.03 1.86-0.6 2.84 0.41z" fill="#fff"/>
	<path d="m135.65 224.45c1.076 1.224 2.326 2.274 3.247 3.653-0.344 7.346 0.243 14.684 0.812 23.539-2.213 0.975-3.706 0.426-6.087 0.812 0.055-5.549-1.05-12.683-1.218-18.669-0.12-4.35 0.87-7.27 3.25-9.33z" fill="#fff"/>
	<path d="m88.569 226.07c-0.353 1-0.946 1.76-2.435 1.624-0.325-1.68 1.562-2.37 2.435-1.62z" fill="#fff"/>
	<path d="m108.05 230.94c-2.052 0.293-2.923-0.594-3.652-1.624 0.06-5.01 6.94-1.96 3.65 1.62z" fill="#fff"/>
	<path d="m144.58 228.92c-0.438 1.457-1.371 2.417-3.653 2.029-2.24-3.22 2.83-5.11 3.65-2.03z" fill="#fff"/>
	<path d="m191.25 232.57c-2.041 2.161-5.76 0.518-5.276-3.247 2.36-1.66 6.03-0.54 5.28 3.25z" fill="#fff"/>
	<path d="m113.33 230.13c0.55 1.229 0.654 3.346-0.406 4.058-4.06 0.95-4.63-5.72 0.41-4.06z" fill="#fff"/>
	<path d="m118.6 235.41c-9.12-1.55 5.17-7.63 0 0z" fill="#fff"/>
	<path d="m125.91 231.35c0.5 1.148 0.5 2.505 0 3.653-0.472-0.066-0.722 0.089-0.812 0.406-4.44 0.75-3.16-6.71 0.81-4.06z" fill="#fff"/>
	<path d="m128.75 230.94c1.436-0.218 2.091 0.344 2.435 1.218 0.093 1.445-0.583 2.122-2.029 2.029-0.9-1.22-0.47-1.42-0.4-3.25z" fill="#fff"/>
	<path d="m232.24 232.16c0.175 2.978-11.04 3.663-11.77 0.406 3.23-1.47 8.92-0.51 11.77-0.41z" fill="#fff"/>
	<path d="m96.28 237.03c0.529 2.693-0.957 3.372-2.029 4.464-6.273 0.06-2.121-9.37 2.029-4.46z" fill="#fff"/>
	<path d="m205.86 242.31c1.587 0.036 2.75 0.497 2.436 2.435-1.61-0.02-2.42-0.83-2.44-2.43z" fill="#fff"/>
	<path d="m154.72 243.52c1.961-0.169 2.791 2.388 2.029 3.653-1.146 0.335-1.051-0.572-2.029-0.406-0.26-0.92-0.8-2.44 0-3.24z" fill="#fff"/>
	<path d="m80.858 246.37c-4.459 0.348-7.215 0.772-9.74 0.406v-2.029c3.349 1.39 9.147-2.32 9.74 1.62z" fill="#fff"/>
	<path d="m174.2 245.96c3.876-1.202 4.535 5.911 0.406 5.276-2.65-0.41-3.39-4.36-0.41-5.28z" fill="#fff"/>
	<path d="m119.82 249.21c0.048 1.524 0.741 1.373 0.812 2.029-0.522 1.101-2.017 1.229-3.652 1.217-2.04-1.99 0.1-4.61 2.84-3.25z" fill="#fff"/>
	<path d="m101.15 252.45c-2.518 14.365-4.346 27.711-8.117 40.178-5.141-5.092-4.929-15.664-7.305-24.756-1.358-5.197-3.453-10.184-3.652-15.422 5.882-4.36 12.526-1.95 19.074 0z" fill="#fff"/>
	<path d="m190.44 249.61c1.648 1.327 1.755 4.198 3.652 5.276 0.785 9.575 0.441 15.198 0.812 22.728-2.093 0.106-5.056 0.677-7.305 0.405-0.418-6.794-0.814-14.428-0.812-23.539 1.63-1.2 3.11-2.56 3.65-4.87z" fill="#fff"/>
	<path d="m72.335 252.05c0.202 1.96-1.454 2.063-3.247 2.029 0.33-1.43 1.484-2.04 3.247-2.03z" fill="#fff"/>
	<path d="m174.61 252.05c1.852 0.313 3.02 1.309 3.652 2.841-0.507 1.658-1.823 2.506-4.059 2.435-0.89-1.59-1.25-4.26 0.41-5.27z" fill="#fff"/>
	<path d="m120.63 254.48c0.198 3.178-4.284 3.646-4.87 0.812 0.29-2.81 3.43-1.99 4.87-0.81z" fill="#fff"/>
	<path d="m141.73 254.48c0.167 0.978-0.741 0.882-0.406 2.029-2.189 0.079-9.069 1.92-9.334-1.218 1.71-1.62 6.44-1.41 9.74-0.81z" fill="#fff"/>
	<path d="m120.63 263.01c-2.187 0.749-4.444 0.095-5.682-1.218-0.12-5.28 7.86-4.36 5.68 1.22z" fill="#fff"/>
	<path d="m157.97 296.28c-2.954 1.538-3.712-1.732-6.088-2.029-0.486-6.509-5.022-11.587-2.841-18.264-4.491-2.842-4.396-11.695-0.812-15.422 8.925-4.355 20.408 0.383 16.64 11.77-0.619 1.871-2.512 2.678-2.841 4.87-0.241 1.602 0.529 3.275 0.405 4.87-0.083 1.084-0.901 1.31-1.217 2.436-1.23 4.38-0.77 8.53-3.25 11.76z" fill="#fff"/>
	<path d="m205.05 263.41c1.195 1.104 3.036 1.563 2.841 4.059-1.45 0.79-4.32-1.93-2.84-4.06z" fill="#fff"/>
	<path d="m240.36 265.04c0.122 1.069-0.562 1.332-1.624 1.217-0.13-1.08 0.55-1.34 1.62-1.22z" fill="#fff"/>
	<path d="m48.796 267.88c0.872 9.672 1.108 16.185 2.029 24.756-1.979 0.424-5.498 1.126-6.899 0.812-0.465-5.464-0.857-17.986-1.624-24.352 2.427-0.9 3.91-2.5 6.494-1.22z" fill="#fff"/>
	<path d="m73.147 267.06c1.208 0.035 1.086 2.42-0.406 2.028-0.881-0.84 0.05-1.31 0.406-2.03z" fill="#fff"/>
	<path d="m224.93 267.88c1.162-0.08 2.216-0.051 2.029 1.217-1.03-0.05-2.09-0.08-2.03-1.22z" fill="#fff"/>
	<path d="m73.553 271.12c1.613-0.125 2.197 0.78 2.029 2.436-0.978-0.166-0.882 0.741-2.029 0.406-0.805-0.77-0.198-1.92 0-2.85z" fill="#fff"/>
	<path d="m250.5 296.69c-1.433 0.71-3.34 0.319-4.87 0-0.301-4.832-2.485-16.741-1.623-21.104 0.695-3.517 4.215-4.764 5.682-1.623 2.75 5.88-0.27 15.79 0.81 22.72z" fill="#fff"/>
	<path d="m60.566 274.78c2.027 0.179-0.896 0.855-0.406 2.029 2.32 3.019 4.304-0.947 6.899-1.218-0.206 3.553-4.257 6.487-8.929 6.899-1.037 0.045-0.805 1.358-0.812 2.435-1.381-0.027-2.832-0.126-3.247 0.812-0.265 1.618 1.543 1.163 2.841 1.218-0.37 2.215-3.741 0.961-4.464 0 0.277-3.929-0.391-6.914-0.406-10.552 2.464 0.92 6.089-0.27 8.524-1.62z" fill="#fff"/>
	<path d="m75.176 275.59c1.045 0.578 2.296 0.95 2.435 2.435-1.508 2.43-4.912-0.98-2.435-2.43z" fill="#fff"/>
	<path d="m114.14 277.62c-0.128 1.231-2.292 1.646-3.247 0.812-0.5-3.15 2.73-2.68 3.25-0.81z" fill="#fff"/>
	<path d="m142.55 277.62c1.95 0.175 2.921 2.238 2.029 4.059-2.71 0.57-3.64-2.74-2.03-4.06z" fill="#fff"/>
	<path d="m165.68 277.62c0.594 0.353 1.286 0.607 1.218 1.623h-1.623c-0.18-0.85 0.27-1.08 0.4-1.62z" fill="#fff"/>
	<path d="m213.98 279.24c0.206 2.236-0.667 3.392-2.841 3.247-1.63-2.4 1.01-5.52 2.84-3.25z" fill="#fff"/>
	<path d="m170.14 282.89c-2.118 0.224-3.608-0.18-3.247-2.435 1.62-1.12 3.95-0.06 3.25 2.43z" fill="#fff"/>
	<path d="m197.74 280.46v2.435c-4.708-0.4-8.447 1.144-12.175-0.405-0.293-1.24 0.415-1.479 0.405-2.436 4.79 0.24 7.46-0.11 11.78 0.4z" fill="#fff"/>
	<path d="m78.017 284.52c-1.503-0.256-2.263-1.255-2.029-3.247 2.527-2.47 5.076 2.44 2.029 3.25z" fill="#fff"/>
	<path d="m112.51 282.49c-0.013 1.475-1.193 1.782-2.841 1.623-2.56-2.34 2.37-5.55 2.84-1.62z" fill="#fff"/>
	<path d="m139.7 280.46c1.064 0.559 1.757 1.489 1.624 3.247-0.799 0.805-2.318 0.258-3.247 0-0.43-2.07 0.76-2.5 1.63-3.25z" fill="#fff"/>
	<path d="m209.92 282.89c0.69 1.269 0.883 2.144 0 3.247-1.481 0.264-2.162-0.273-2.841-0.812-0.558-0.925 1.046-1.525 0-1.623 0.59-0.63 1.58-0.86 2.84-0.82z" fill="#fff"/>
	<path d="m172.98 283.3c0.977 1.12 0.737 2.385 0 3.652-1.322-0.166-2.129-0.847-2.841-1.623 0.54-1.09 0.87-2.38 2.84-2.03z" fill="#fff"/>
	<path d="m106.02 288.17c-0.763-2.981 2.046-4.676 3.653-2.841 0.75 2.97-1.58 3.89-3.65 2.84z" fill="#fff"/>
	<path d="m137.68 284.92c0.119 2.013-0.829 2.96-2.841 2.841-1.82-1.49 0.51-4.48 2.84-2.84z" fill="#fff"/>
	<path d="m80.046 285.33c1.674 0.22 3.033 0.754 3.652 2.029-0.294 1.464-1.703 1.814-3.652 1.623-0.799-0.85-0.31-2.7 0-3.65z" fill="#fff"/>
	<path d="m146.2 286.14c0.239 1.457-0.472 1.964-0.812 2.841-1.486-0.408-2.724-1.063-2.436-3.247 0.9-0.85 2.71-0.31 3.25 0.41z" fill="#fff"/>
	<path d="m203.83 286.14h1.623v1.623c-1.27 0.19-1.81-0.35-1.62-1.62z" fill="#fff"/>
	<path d="m133.21 287.36c0.235 1.317-0.276 1.888-0.406 2.841-1.318 0.235-1.888-0.276-2.841-0.406-0.44-2.72 1.71-3.93 3.25-2.43z" fill="#fff"/>
	<path d="m178.67 287.36c-0.405 0.991-0.135 0.864-0.406 2.435-1.865 0.6-3.168-0.225-3.652-2.029 0.89-1.38 2.72-1.3 4.06-0.41z" fill="#fff"/>
	<path d="m105.61 289.79c-0.271 1.353-1.043 2.204-2.841 2.029-2.774-2.38 1.94-5.37 2.84-2.03z" fill="#fff"/>
	<path d="m87.757 292.63c-7.391-1.5 2.686-7.14 0 0z" fill="#fff"/>
	<path d="m231.43 288.57c1.505 0.389 3.018 0.77 4.059 1.623-1.29 1-4.38 0.34-4.06-1.62z" fill="#fff"/>
	<path d="m128.75 291.01c-0.715 0.367-0.67 1.494-1.624 1.623-1.009 0.063-1.256-0.637-2.029-0.812-0.72-3.35 3.58-3.53 3.65-0.81z" fill="#fff"/>
	<path d="m200.18 288.98c0.407 0.539 0.384 1.511 1.218 1.623-1.04 4.99-7.43-1.9-1.22-1.62z" fill="#fff"/>
	<path d="m217.63 288.98c0.579 0.542 0.579 2.3 0 2.841-1.385-0.103-2.108-0.868-2.029-2.435 0.47-0.34 1.09-0.53 2.03-0.4z" fill="#fff"/>
	<path d="m183.94 291.82c-0.877 0.34-1.384 1.051-2.841 0.812-0.34-0.877-1.051-1.384-0.812-2.841 1.68-1.18 3.69 0.2 3.65 2.03z" fill="#fff"/>
	<path d="m209.1 293.44c-2.292-0.414-4.157-1.255-4.465-3.653 2.21-1 4.66 0.93 4.46 3.65z" fill="#fff"/>
	<path d="m192.06 293.04c0.5-7.85 7.33 2.16 0 0z" fill="#fff"/>
	<path d="m148.63 291.82c-0.414 0.533-0.398 1.496-0.812 2.029-5.39 0.21-1.39-6.35 0.81-2.03z" fill="#fff"/>
	<path d="m99.527 290.6c1.188 1.605 0.565 3.443-2.029 3.247-0.36-0.722-1.133-1.031-0.812-2.435 0.877-0.35 1.384-1.06 2.841-0.82z" fill="#fff"/>
	<path d="m110.48 295.07c-1.873-0.156-2.993-1.065-2.841-3.247 2.03-3.23 5.79 1.5 2.84 3.25z" fill="#fff"/>
	<path d="m189.62 293.85c-0.953 0.13-1.523 0.642-2.841 0.406-3.41-3.2 4.1-5.84 2.84-0.41z" fill="#fff"/>
	<path d="m122.25 291.42c-0.066 0.472 0.09 0.722 0.406 0.812-0.17 1.452-1.294 1.952-2.841 2.029-0.406-0.541-0.669-1.226-1.217-1.624 0.34-1.23 2.29-2.29 3.65-1.22z" fill="#fff"/>
	<path d="m116.57 291.42c0.665 0.982 1.034 1.971 0.406 3.246-1.27-0.083-2.979 0.274-3.652-0.405-0.25-2.28 0.97-3.09 3.24-2.84z" fill="#fff"/>
	<path d="m71.118 291.82c2.825 1.391-0.133 6.259-2.435 4.87-0.406-1.37 1.025-4 2.435-4.87z" fill="#fff"/>
	<path d="m143.36 294.66c0.888 0.06 0.871 1.022 0.812 2.029-1.21 0.09-1.43-1.45-0.81-2.03z" fill="#fff"/>
	<path d="m53.667 295.07v2.029c-3.899 0.135-6.92 0.909-11.77 0.812 1.846-5.25 8.702-0.65 11.77-2.84z" fill="#fff"/>
	<path d="m149.04 295.47c2.321-0.195 2.903 2.256 2.029 4.059-2.33 0.29-3.64-2.35-2.03-4.06z" fill="#fff"/>
	<path d="m141.73 297.91c1.734 2.535-0.124 5.746-2.841 3.652-0.25-2.42 0.37-3.96 2.84-3.65z" fill="#fff"/>
	<path d="m252.94 299.13c0.321 4.67-7.325 2.242-8.523 3.246-0.462-0.89-1.047-1.658-0.812-3.246 2.24-0.67 7.07-0.67 9.33 0z" fill="#fff"/>
	<path d="m182.32 299.13h2.029c0.707 1.187 1.479 2.309 1.623 4.059-2.8 0.23-4.62-1.78-3.65-4.06z" fill="#fff"/>
	<path d="m155.94 301.56c0.295 1.241-0.7 1.194-0.405 2.436-1.318 0.235-1.889-0.276-2.842-0.406-2.12-3.31 2.22-4.96 3.24-2.03z" fill="#fff"/>
	<path d="m61.377 300.34c1.57 0.271 1.444 0.002 2.435 0.406 0.623 2.45-3.427 2.07-2.435-0.41z" fill="#fff"/>
	<path d="m235.48 301.16c1.575-0.088 2.546 0.43 2.841 1.623-1.49 0.01-2.79-0.18-2.84-1.62z" fill="#fff"/>
	<path d="m139.3 304v2.029c-0.601 0.211-1.023 0.601-1.623 0.812-3.97-0.35-1.02-5.97 1.62-2.84z" fill="#fff"/>
	<path d="m160.81 304.81c0.192 1.545-0.172 2.533-1.218 2.841-1.943 0.05-2.435-1.353-2.435-3.247 0.94-0.82 3.11-0.41 3.65 0.41z" fill="#fff"/>
	<path d="m66.248 304.81v1.623c-1.188 0.365-1.247 0.365-2.435 0v-1.623c0.519-0.56 1.916-0.56 2.435 0z" fill="#fff"/>
	<path d="m108.46 309.68h-2.435c-0.324-0.759-0.678-1.486-0.812-2.436 1.54-2.3 4.76-0.33 3.25 2.44z" fill="#fff"/>
	<path d="m198.96 321.04c-6.449-16.907 19.629-19.713 18.669-3.246-0.53 9.11-14.2 10.08-18.67 3.25z" fill="#fff"/>
	<path d="m134.84 306.84c0.939 1.788 0.174 3.828-2.435 3.247-1.13-1.64-0.28-4.18 2.44-3.25z" fill="#fff"/>
	<path d="m165.68 312.11c-1.307 0.09-1.717-0.718-3.247-0.405-3.05-6.64 7.2-4.35 3.25 0.41z" fill="#fff"/>
	<path d="m197.74 307.24c-0.009 0.956 0.699 1.195 0.406 2.436-0.784 0.735-2.058-0.328-2.841-0.812 0.35-1 0.94-1.76 2.43-1.63z" fill="#fff"/>
	<path d="m227.77 307.24c6.149 5.384 5.134 19.981 4.87 30.438-1.587 1.1-3.813 1.515-5.683 0.406-0.773-1.857-1.286-4.121-1.217-6.494 0.015-0.513 0.838-1.73 0.812-2.028-0.074-0.824-1.062-1.72-1.218-2.436-1.05-4.831-0.663-10.153-0.812-14.204 0.161-1.463 2.008-1.239 2.841-2.029 0.09-1.28-0.27-2.98 0.41-3.66z" fill="#fff"/>
	<path d="m69.494 308.46c-0.004 1.078 0.153 2.318-0.406 2.841h-2.029c-1.667-1.86-0.034-4.23 2.435-2.84z" fill="#fff"/>
	<path d="m114.54 310.08c-0.361 0.18-0.726 0.355-0.812 0.812-1.298-0.325-2.302-0.945-2.435-2.436 1.27-0.97 3.38-0.07 3.24 1.63z" fill="#fff"/>
	<path d="m128.34 309.68h1.623c0.174 0.772 0.875 1.02 0.812 2.029-0.722 0.36-1.032 1.133-2.435 0.812-0.58-0.54-0.58-2.3 0-2.84z" fill="#fff"/>
	<path d="m194.9 313.33c-1.757 0.134-2.688-0.559-3.246-1.623 0.61-3.21 5.31-1.67 3.25 1.62z" fill="#fff"/>
	<path d="m248.88 309.68c0.294 0.923 2.809-0.374 2.435 1.218-1.24 0.01-2.68 0.23-2.44-1.22z" fill="#fff"/>
	<path d="m116.57 310.08c1.549-0.197 2.59 0.114 3.247 0.812v2.029c-1.55 1.68-4.65-0.46-3.25-2.84z" fill="#fff"/>
	<path d="m172.17 313.74c-0.972 0.245-1.852 0.583-3.246 0.405-3.07-3.89 3.86-5.62 3.25-0.4z" fill="#fff"/>
	<path d="m123.07 310.49c1.571 0.188 2.467 1.051 2.435 2.841-0.533 0.144-0.638 0.715-1.217 0.812-1.81-0.03-1.81-2.33-1.21-3.65z" fill="#fff"/>
	<path d="m106.43 314.14c-1.713 0.506-2.317-0.067-3.247-1.217 0.12-3.4 5.09-1.78 3.25 1.22z" fill="#fff"/>
	<path d="m108.46 311.3c1.069-0.122 1.332 0.562 1.218 1.624h-1.218v-1.62z" fill="#fff"/>
	<path d="m178.26 312.11c0.521 1.199-0.024 2.668-0.812 3.653-4.58 0.01-3.49-6.47 0.81-3.65z" fill="#fff"/>
	<path d="m73.147 311.71c0.606 1.285 0.503 3.195-0.812 3.652-2.822 0.15-2.684-4.7 0.812-3.65z" fill="#fff"/>
	<path d="m189.62 311.71c1.848 2.128-0.04 4.856-2.841 3.652-0.92-1.94-0.26-4.53 2.84-3.65z" fill="#fff"/>
	<path d="m184.35 312.92c0.235 1.588-0.35 2.356-0.812 3.246-5.36 0.78-2.8-6.76 0.81-3.25z" fill="#fff"/>
	<path d="m78.017 314.55c0.324 0.759 0.678 1.486 0.812 2.435-0.877 0.341-1.384 1.051-2.841 0.812-1.359-1.39-0.829-3.89 2.029-3.24z" fill="#fff"/>
	<path d="m103.58 316.17c-4.211 4.25-3.663-5.11 0 0z" fill="#fff"/>
	<path d="m110.89 315.36c0.193 1.546-0.172 2.533-1.217 2.841-1.802 0.18-2.209-1.037-2.029-2.841 1.27-0.69 2.15-0.88 3.25 0z" fill="#fff"/>
	<path d="m84.104 319.42c-0.679 0.538-1.36 1.075-2.841 0.812-0.023-1.33-1.154-1.552-0.812-3.247 1.773-1.34 3.932-0.38 3.653 2.44z" fill="#fff"/>
	<path d="m24.04 316.58c0.84 1.352 0.683 3.578 2.841 4.464-0.335 6.172 1.673 14.399 0.406 20.698-0.872 0.752-2.973 0.274-4.464 0.406-1.368-6.558-1.327-13.281-2.029-21.104 0.647-1.93 3.346-1.8 3.246-4.47z" fill="#fff"/>
	<path d="m98.715 316.98c0.091 1.444-0.273 2.433-1.217 2.842-1.531-0.093-2.19-1.058-2.029-2.842 1.695 0.09 1.916-0.66 3.246 0z" fill="#fff"/>
	<path d="m162.84 318.2c1.033 0.05 1.574 0.591 1.623 1.624-1.009 0.044-1.256 0.76-2.029 0-0.05-0.72 0.5-0.85 0.41-1.62z" fill="#fff"/>
	<path d="m108.86 320.23c1.53 0.093 2.189 1.058 2.029 2.841-2.29 1.08-3.53-1.27-2.03-2.84z" fill="#fff"/>
	<path d="m142.55 321.85c0.403 2.519-2.752 3.168-2.435 0.406 0.47-0.47 1.43-0.46 2.43-0.41z" fill="#fff"/>
	<path d="m63.407 322.66c1.3-0.114 1.476 1.777 0.812 2.435-0.963-0.22-1.685-1.57-0.812-2.44z" fill="#fff"/>
	<path d="m157.16 323.48c1.854-0.289 3.17 1.403 2.029 2.841-1.76-0.1-2.97-1.19-2.03-2.84z" fill="#fff"/>
	<path d="m98.715 331.59c-2.789-1.326 0.005-4.283 0.812-5.682 3.943 0.5 0.693 4.73-0.812 5.68z" fill="#fff"/>
	<path d="m205.45 330.38c0.331 4.097-6.421 2.187-4.87-0.406 0.41-2.21 4.64-1.18 4.87 0.41z" fill="#fff"/>
	<path d="m74.77 332c0.656-0.114 0.699 0.384 1.218 0.406 0.414 1.901-0.668 2.308-1.218 3.246-0.815-0.46-0.465-3.15 0-3.66z" fill="#fff"/>
	<path d="m123.47 332.4c0.31 0.957 0.8 2.805 0 3.652h-2.029c-0.88-1.38-0.39-4.27 2.03-3.65z" fill="#fff"/>
	<path d="m280.94 332.4c1.374 1.061 1.936 2.935 3.247 4.059-0.086 8.714-0.035 16.855-1.624 23.538-2.175 0.872-4.119 0.666-6.493 0-0.019-7.882 0.591-15.316 0.812-23.538 0.23-2.47 3.71-1.69 4.05-4.06z" fill="#fff"/>
	<path d="m206.26 335.25c0.574 3.817-5.676 4.428-4.87 0 1.29-0.87 3.69-1.15 4.87 0z" fill="#fff"/>
	<path d="m96.686 335.65c-0.129 1.952-0.343 1.467-0.406 3.653-2.782-2.574-6.519-0.28-10.552-0.406 0.009-0.956-0.699-1.195-0.406-2.435 3.04-0.13 8.985-1.35 11.364-0.81z" fill="#fff"/>
	<path d="m56.913 335.65c-0.368 2.808-1.886 6.414-4.464 5.683 1.143-2.23 0.701-6.06 4.464-5.68z" fill="#fff"/>
	<path d="m235.89 338.9c0.326 1.408-0.604 1.56-0.405 2.841-2.704 0.372-10.837 2.758-11.364-2.029 3.99 0.14 7.45 0.93 11.77-0.81z" fill="#fff"/>
	<path d="m30.533 339.71c1.207-0.086 1.431 1.447 0.812 2.029-0.825-0.3-1.657-1.22-0.812-2.03z" fill="#fff"/>
	<path d="m31.345 344.18c-2.18 3.25-8.272 1.658-11.363 2.435 0.035-0.576 0.067-1.149-0.406-1.218 2.803-1.48 7.896-2.44 11.769-1.22z" fill="#fff"/>
	<path d="m237.92 343.77c1.006 1.023 2.103 1.956 2.436 3.652-2.69 0.77-4.21-2.5-2.44-3.65z" fill="#fff"/>
	<path d="m263.89 344.99c1.035 0.047 2.088 0.076 2.028 1.218-1.16 0.07-2.21 0.04-2.03-1.22z" fill="#fff"/>
	<path d="m273.63 346.2c-0.542 0.578-2.3 0.578-2.841 0 0.59-0.67 2.89-2.17 2.84 0z" fill="#fff"/>
	<path d="m262.27 347.83c1.738 0.562 3.301 1.299 4.87 2.029-1.06 1.34-4.82 0.13-4.87-2.03z" fill="#fff"/>
	<path d="m274.04 351.48c-2.396 0.231-3.285-1.043-5.682-0.812 1.47-0.59 6.62-3.31 5.68 0.81z" fill="#fff"/>
	<path d="m273.63 354.73c-0.631 1.4-4.47 0.187-4.87-1.218 1-0.38 4.07 0.12 4.87 1.22z" fill="#fff"/>
	<path d="m10.241 353.92c1.615 0.296 1.631 0.296 3.247 0-0.164 4.165-6.104 2.554-6.899 6.087 0.353 1.542 3.439 0.35 4.464 1.218-0.924 1.501-4.779 1.604-6.088 0.406-0.058-2.629-0.093-5.234 0.812-6.899 2.202-0.443 2.698 0.818 4.464 0.812 1.046-0.11-0.557-0.71 0-1.63z" fill="#fff"/>
	<path d="m240.76 354.32c0.684 0.504 2.073 1.181 1.218 2.029-0.71-0.37-1.41-0.75-1.22-2.03z" fill="#fff"/>
	<path d="m250.91 354.73c1.5 0.8 2.913 1.687 3.247 3.652-1.49 0.63-3.46-1.29-3.25-3.65z" fill="#fff"/>
	<path d="m27.692 357.16c0.02 1.373-0.945 1.761-1.624 2.436-1.519-0.38-0.178-2.91 1.624-2.44z" fill="#fff"/>
	<path d="m75.988 362.03c-0.015 1.339-1.154 1.552-2.435 1.624v-1.218c0.479-0.46 1.434-0.45 2.435-0.4z" fill="#fff"/>
	<path d="m285.4 362.84c-1.391 4.052-7.18 1.586-10.146 1.624-0.174-0.773-0.874-1.02-0.812-2.029 3.81 0.5 7.44-0.62 10.96 0.41z" fill="#fff"/>
	<path d="m279.72 369.34c-1.021 0.974-2.318-0.066-2.841-0.812 0.12-1.31 2.8-0.41 2.84 0.81z" fill="#fff"/>
	<path d="m86.134 389.22c-1.478 0.126-2.641-0.064-3.652-0.405 0.373-0.709 1.269-0.896 2.435-0.812 0.384-3.27 2.946-6.821 1.217-9.74-1.428-1.007-3.036-1.835-5.682-1.624 0.376 1.397 0.147 3.297-0.812 5.276-1.663-0.56-0.844-1.489-0.812-3.247-3.971 1.676-1.358 6.12-0.406 9.335-3.137-2.624-2.735-4.971-2.841-9.74 3.142-5.72 12.525-4.643 12.987 2.435 0.196 2.96-1.247 5.66-2.434 8.5z" fill="#fff"/>
	<path d="m279.32 411.14c-4.321-0.566-6.436-5.414-9.74-8.117-4.45-3.639-9.497-6.689-12.987-10.957-1.432-0.057-1.814-1.162-3.247-1.218-1.059-1.782-2.417-3.265-4.058-4.465-11.49 5.962-20.178 14.726-30.438 21.916 0.185-4.22 4.912-6.07 7.711-8.117 6.867-5.023 14.071-10.373 21.104-15.828 0.181 0.104 0.659-0.134 0.812 0 10.3 9.03 22.15 16.53 30.86 26.79z" fill="#fff"/>
	<path d="m265.52 389.22c0.774 1.525 0.919 3.681 0.812 6.088-2.434-0.948-4.568-2.195-4.464-5.682 1.49-0.21 2.24-1.16 3.65-0.41z" fill="#fff"/>
	<path d="m200.18 392.06c0.298 1.048 0.812 3.893 0 5.682-4.048 0.059-9.609 1.622-12.176 4.464-3.387-7.506-9.367-0.229-11.77 2.841-24.389-0.84-52.42 0.997-75.081 0 0.197-3.726-0.439-8.286 0.406-11.363 17.456-0.09 34.429-1.822 51.542-1.218 16.99 0.61 31.02-1.03 47.08-0.4zm-6.9 3.66c1.093-0.027 1.95-0.928 1.218-1.624-1.08-0.13-1.34 0.56-1.22 1.62z" fill="#fff"/>
	<path d="m83.699 391.66c1.125 0.601-0.094 1.93 2.435 1.623 1.335 7.383-7.127 7.788-6.899 2.029 0.059-1.497 2.463-0.978 1.218-3.246 1.504 0.29 1.741-0.69 3.246-0.4zm-0.812 6.49c0.688-0.555 1.518-3.056-0.406-2.841-0.511 0.73-1.643 2.93 0.406 2.84z" fill="#fff"/>
	<path d="m194.5 394.09c0.732 0.696-0.125 1.597-1.218 1.624-0.12-1.05 0.14-1.74 1.22-1.62z"/>
	<path d="m82.481 395.31c1.923-0.215 1.094 2.286 0.406 2.841-2.049 0.09-0.917-2.11-0.406-2.84z"/>
	<path d="m250.5 396.12c1.424 2.782 0.826 5.699 0.812 9.335-1.271 0.422-3.405-0.25-5.682 0-1.01-3.06-2.12-12.13 4.87-9.34z"/>
	<path d="m60.972 398.56c1.455 0.249 0.675 2.731 0.406 3.652-2.269 0.08-1.814-3.13-0.406-3.65z" fill="#fff"/>
	<path d="m65.436 398.96c3.961 1.447 9.655 2.878 8.117 8.522 0.878 1.339 2.524-0.899 2.841 0 3.207 1.258 3.621 5.308 4.059 9.334 2.164 1.016 2.841 4.522 2.029 7.306-1.331 1.114-3.964 2.134-6.088 1.217 0.33-1.564 1.812-1.976 1.624-4.058-0.382-1.586-2.047-0.346-3.247-0.406 0.259-0.929 0.805-2.448 0-3.247-2.12-0.091-3.068 0.99-4.058 2.029-0.14 2.034 1.972 1.815 3.247 2.436-0.405 0.542-1.097 0.797-1.217 1.623 0.637 5.474 6.55 5.683 9.74 3.652 0.229 5.724 3.619 8.286 7.305 10.553-0.083 1.27 0.273 2.979-0.406 3.652-4.384 0.713-8.406-2.565-10.958 0 0 9.547 3.841 18.76 1.624 26.785-2.099-1.91-0.347-6.653-1.218-10.146-0.572-2.296-1.646-3.671-2.841-4.87-0.771-4.775-1.708-9.385-2.841-13.799-1.477-0.259-1.595 0.84-1.624 2.029-1.975-1.785-4.779-4.599-5.276-7.711-0.236-1.482 0.529-3.274 0.406-4.87-0.355-4.587-3.835-9.106-2.841-14.205 0.868-0.891 1.5-2.017 2.435-2.841 1.533 0.361 0.135 3.652 2.841 2.841-0.569 1.221-0.592 2.947 0.812 3.247 2.592-0.186 4.56-6.203 0-5.682 0.646-3.216-1.566-3.574-3.652-4.059 0.574-3.06-1.966-5.25-0.813-9.31z" fill="#fff"/>
	<path d="m81.669 401.8c0.677 0.675 2.963-0.258 2.841 1.217-1.298-0.05-3.105 0.4-2.841-1.22z" fill="#fff"/>
	<path d="m188.81 406.27c-0.128 4.065-5.872 2.515-6.899 5.682-1.348-0.681-1.372-2.686-2.841-3.246 0.621-3.167 3.153-4.424 4.465-6.899 2.79 0.45 2.55 3.94 5.27 4.47z" fill="#fff"/>
	<path d="m213.98 402.62c0.512 2.529 2.604 3.532 1.623 6.493-1.459-1.684-2.595 1.766-3.247 0.812-3.05-1.49-4.37-8.09 1.63-7.3z" fill="#fff"/>
	<path d="m207.08 405.46c-1.089 1.174-3.013-0.283-4.87-0.406-3.311-0.218-7.284 1.194-10.146 0.812 3.17-2.1 11.42-2.31 15.02-0.4z" fill="#fff"/>
	<path d="m89.787 405.05c-0.191 5.221-4.657 6.166-6.088 10.146-2.56-3.45 2.416-8.97 6.088-10.15z" fill="#fff"/>
	<path d="m65.03 407.08c-0.536 3.964-3.76 7.285-8.117 6.088 2.26-2.47 4.457-7.5 8.117-6.09z" fill="#fff"/>
	<path d="m91.816 407.49c1.608 1.567 0.803 7.497 0.406 9.74-0.943-2.44-0.139-6.63-0.406-9.74z" fill="#fff"/>
	<path d="m206.67 409.11c3.652 6.527-1.515 12.864-8.117 12.987 0.709 2.675 5.07 0.448 7.306 0.812 1.483 1.338 4.576 4.078 2.841 6.088-1.279 0.062-0.789-1.646-1.623-2.029-3.124 2.319-10.003-0.848-13.799 2.029-1.269 0.186-1.298-0.867-1.218-2.029-3.587 4.065-0.716 13.434-6.493 16.233 0.208-7.809 2.741-16.712 8.116-20.698 1.308-0.089 1.718 0.718 3.247 0.406-0.193-3.054-4.025-2.468-5.682-4.059-1.634-1.924-3.954-8.982 0.812-9.334-2.656 4.458 2.26 6.061 4.059 2.435 0.097-1.585-1.508-1.469-2.436-2.029 2.8-3.05 9.05-1.67 12.98-0.82zm-5.68 3.25c0.901 2.457 4.209 1.263 5.276-0.406-0.49-2.24-5.23-2.14-5.28 0.41zm-2.84 2.84c-0.582 1.57-1.186 3.652 0 4.87 1.169-0.049 2.656 0.222 3.247-0.406-0.591-2.477-0.804-2.958-1.624-4.87-0.78-0.09-0.9 0.46-1.63 0.41z" fill="#fff"/>
	<path d="m206.26 411.95c-1.067 1.669-4.375 2.863-5.276 0.406 0.06-2.55 4.8-2.65 5.28-0.41z"/>
	<path d="m218.44 412.36c0.698 7.109 0.626 14.255 0.406 19.886-8.48 2.606-6.54-8.569-10.552-11.77 0.818-2.969 2.698-4.877 6.087-5.275-0.49-2.11 1.14-4.34 4.05-2.84z" fill="#fff"/>
	<path d="m272.82 414.39c1.477-0.259 1.595 0.84 1.624 2.029-1.07-0.15-1.36-1.07-1.62-2.03z"/>
	<path d="m199.77 414.79c0.82 1.912 1.033 2.394 1.624 4.87-0.591 0.628-2.078 0.357-3.247 0.406-1.186-1.218-0.582-3.3 0-4.87 0.74 0.05 0.86-0.5 1.63-0.41z"/>
	<path d="m60.16 417.63c-1.276 0.195-1.586-0.578-2.435-0.812 0.17-1.38 2.358-0.3 2.435 0.81z" fill="#fff"/>
	<path d="m102.37 420.88c-1.221 5.813-2.286 11.783-7.305 13.799-0.392-1.638-1.126-2.933-2.841-3.247-1.608 0.15-2.002 1.516-2.435 2.841-5.116-1.513-5.071-8.187-5.682-14.204 1.79-0.745 4.344 1.11 7.711 1.218 3.431 0.11 7.251-1.46 10.552-0.41z" fill="#fff"/>
	<path d="m229.8 420.88c0.773 0.174 1.021 0.874 2.029 0.812-0.608 0.474-0.992 1.172-2.029 1.218-0.76-0.77-0.04-1.02 0-2.03z" fill="#fff"/>
	<path d="m54.478 421.28c0.533 1.259-0.11 1.158 0 2.841-0.361-0.315-0.917-0.437-1.624-0.406 0.066-0.472-0.089-0.722-0.406-0.812 0.523-0.69 0.84-1.59 2.03-1.62z" fill="#fff"/>
	<path d="m115.35 452.54c-4.661 4.673-9.033 9.635-12.581 15.422h-1.624c0.284-6.84 11.16-8.876 9.334-17.046-0.853-3.816-8.351-6.119-6.899-13.393-3.277 1.145-5.236 3.105-8.928 2.436-0.925-3.631 2.499-2.913 4.058-4.059 4.224-2.271 4.79-8.198 6.088-13.394 12.217-3.068 18.975 5.021 15.422 15.017-1.17 3.293-6.344 5.913-6.899 8.522-0.66 3.13 1.83 4.78 2.03 6.49z" fill="#fff"/>
	<path d="m249.69 422.1c0.348 1.534-1.816 1.437-2.435 0.812 0.37-0.71 1.26-0.9 2.43-0.81z" fill="#fff"/>
	<path d="m130.78 450.51c-7.938-0.036-0.738-10.797-4.059-15.828 2.084 0.433 0.311 3.796 2.029 5.276 3.009-7.358-5.559-10.119-7.305-15.423 11.46-1.17 16.64 17.86 9.34 25.97z" fill="#fff"/>
	<path d="m63.407 424.53c-0.876 2.52-0.019 3.857 0 6.088-2.024-0.546-2.433-2.708-5.276-2.435 0.097-2.88 2.996-2.95 5.276-3.65z" fill="#fff"/>
	<path d="m238.33 426.97h1.218c0.229 2.284 0.296 3.111 0 4.87-1.73-0.31-1.08-2.99-1.22-4.87z" fill="#fff"/>
	<path d="m209.1 429.4c2.709 3.514 5.076 7.37 5.275 13.394-4.19-1.56-5.71-9.87-5.28-13.39z" fill="#fff"/>
	<path d="m56.507 430.21c2.979 1.485 4.14 4.788 4.059 9.334h-2.841c-0.848-2.96-0.769-7.04-1.218-9.33z" fill="#fff"/>
	<path d="m91.816 435.08c1.544 0.891 1.054 3.816 1.217 6.088-2.354-1.58-0.187-3.57-1.217-6.09z" fill="#fff"/>
	<path d="m236.7 435.08c0.846 3.764 0.223 9.456 0.406 14.205 0.124 3.202 1.677 8.078-2.029 8.522-2.64-5.656-1.193-13.617-1.623-21.915 0.41-0.92 1.86-0.82 3.24-0.8z" fill="#fff"/>
	<path d="m246.04 437.11c1.543-0.325 0.516 1.919 0.812 2.842-1.16-0.05-0.74-1.69-0.81-2.84z" fill="#fff"/>
	<path d="m214.38 450.91c-8.081-0.417-16.005 1.279-25.974 0.812-0.938-1.387 0.429-2.568-0.812-3.652-1.839 0.461-1.157 3.442-3.247 3.652-1.739-1.737 1.519-3.688 2.841-4.87 0.543-2.839 2.987-3.776 3.652-6.493 1.356-0.673 2.31-1.749 3.247-2.841 5.856-0.31 10.999 0.094 14.61 2.029 1.65 3.96 6.49 6.22 5.68 11.36z" fill="#fff"/>
	<path d="m68.683 443.2c-2.907 0.069-6.37-0.417-7.305 1.624 0.484 2.762 1.58 4.913 3.652 6.087 1.828 0.205 1.381-1.865 3.247-1.623 0.869 1.566 1.952 2.918 2.029 5.276-1.789 0.046-4.333-0.538-6.899-0.406-1.626-3.108-3.543-5.927-6.088-8.117 0.425-4.32 10.632-9.88 11.364-2.84z" fill="#fff"/>
	<path d="m228.99 440.77c-1.9 2.03-8.334 0.9-11.363 1.217 3.72-1.37 6.8-1.06 11.36-1.22z" fill="#fff"/>
	<path d="m100.34 441.98c1.039 9.416-0.355 17.446-3.247 26.786-8.191 1.287-6.834-10.109-7.305-17.857 0.997-0.6 2.608 0.992 4.87 0.406 0.953-0.13 0.908-1.256 1.623-1.623 0.131-2.285-0.997-2.944-1.623-5.276 1.164-1.54 3.284-2.13 5.682-2.44z" fill="#fff"/>
	<path d="m121.85 442.8c3.039 2.643 2.639 8.725 6.494 10.552-0.777 6.581 2.818 12.07-2.029 14.61 0.434-7.509 1.349-19.177-6.494-20.698 0.13-2.03 1.25-3.08 2.03-4.46z" fill="#fff"/>
	<path d="m231.43 445.23c-1.476 1.785-6.2 1.526-9.335 1.623-2.43 0.076-6.037 0.325-6.087-2.028 4.19-0.34 11.91-1.23 15.42 0.41z" fill="#fff"/>
	<path d="m86.134 444.82c0.472-0.066 0.722 0.089 0.812 0.405-0.033 6.933-0.487 19.592 2.029 23.945h-3.247c-0.549-7.858-1.122-16.743-0.812-23.134 0.585-0.22 0.991-0.62 1.218-1.21z" fill="#fff"/>
	<path d="m70.306 446.45c4.738 2.957 5.652 12.782 0.812 15.828 1.852-5.16 0.855-11.14-0.812-15.83z" fill="#fff"/>
	<path d="m56.507 450.1c5.394 3.806 7.671 10.284 2.841 16.64-2.767 3.641-8.571 5.826-12.175 5.682 4.872-5.81 8.527-13.62 9.334-22.32z" fill="#fff"/>
	<path d="m82.076 452.13c1.212 1.194 0.427 1.381 0.406 3.247-0.916-0.31-0.159-2.28-0.406-3.25z" fill="#fff"/>
	<path d="m201.39 463.9c-1.247-1.595 0.996-6.679-2.029-6.493-1.131 1.305 0.432 5.303-1.218 6.087-1.303-0.32-1.773-1.473-2.841-2.028-0.203-2.754 0.622-4.841 0.812-6.088 3.505 1.22 4.494-0.389 7.305 0 0.96 2.78 3.64 9.01-2.03 8.52z" fill="#fff"/>
	<path d="m192.46 461.06c1.539 2.629 3.453 6.677 2.435 10.552-12.545 1.449-30.331 0.406-46.266 0.406-4.229 0-9.272 1.172-12.176-1.624-0.069-1.711 0.624 0.008 1.218 0-0.947-2.164-4.359-1.863-6.494-2.841 0.239-2.268-0.93-3.128-0.812-5.275 5.901-1.792 12.301-1.327 18.668-1.624 15.25-0.72 29.98-0.9 43.42 0.4z" fill="#fff"/>
	<path d="m125.1 461.87c0.241 3.623-1.113 4.405-1.623 6.493-6.171 0.92-11.384-0.112-16.64-0.405-2.18-9.62 12.83-8.11 18.26-6.09z" fill="#fff"/>
	<path d="m75.176 461.46h1.217c1.501 4.13-0.572 8.042-4.87 7.711 0.617-3.17 2.977-4.59 3.653-7.71z" fill="#fff"/>
	<path d="m243.6 463.9c0.767 0.587 1.8 0.906 1.624 2.435-1.3-0.06-1.78-0.93-1.62-2.44z" fill="#fff"/>
	<path d="m211.95 465.12c0.653 1.499 0.653 5.4 0 6.899-2.284-0.151-3.877-0.994-4.87-2.436 0.332-1.291 0.259-2.987 0.812-4.059 1.1-0.35 3.25-1 4.06-0.4z" fill="#fff"/>
	<path d="m257 466.74c-1.837-0.495-1.982-0.247-4.059 0 0.02-1.87 3.8-1.37 4.06 0z" fill="#fff"/>
	<path d="m261.46 465.93c-0.143 1.346-2.339 0.637-3.652 0.812 0.33-1.44 2.87-0.91 3.65-0.81z" fill="#fff"/>
	<path d="m276.48 465.93c1.016 1.596-0.197 3.39 0.405 4.87-3.76 0.104-6.488 0.753-9.334 0.812-1.185-1.341-1.724-2.265-1.218-4.464 3.01-1.6 6.32-1.03 10.15-1.22z" fill="#fff"/>
	<path d="m265.11 471.2c-3.464 0.738-7.224 0.435-10.146 0.812 0.1-3.6 10.81-3.74 10.15-0.81z" fill="#fff"/>
	<path d="m220.88 469.99c0.848-0.172 1.074 0.278 1.623 0.405 0.114 1.062-0.148 1.746-1.218 1.624 0.17-0.98-0.74-0.89-0.4-2.03z" fill="#fff"/>
	<path d="m231.02 470.39c1.069-0.122 1.332 0.562 1.218 1.624-1.43 0.31-1.82-1.06-1.22-1.62z" fill="#fff"/>
	<path d="m65.842 233.78c0.338 1.149 2.493 0.483 3.247 1.218 0.18-0.361 0.356-0.726 0.812-0.812-0.988-5.717-0.279-14.665 0.406-18.668-3.08 1.023-5.428 0.044-6.494-2.029-1.936 0.777-4.898 4.182-6.899 1.217-0.31-2.204 1.88-1.908 2.841-2.841-1.305-1.146-3.682 0.088-5.276 0-1.375-1.028-1.095-2.787-0.812-4.059 3.791-0.142 4.794-0.537 8.117 0.812 0.682-0.579-0.517-2.202 0.812-2.841 2.892-0.323 3.823 0.791 5.682 0.406 0.708-0.611-0.416-1.751 0.812-2.435 1.659 0.398 1.64-0.045 3.653 0 3.28-4.829 9.048-5.503 13.393-9.74-0.361-0.992-0.946-1.76-0.812-3.247-1.505-0.287-1.742 0.693-3.247 0.406-0.341-0.471-0.536-1.088-0.406-2.029-6.187 0.172-11.562 5.264-16.64 0.812 0.929-2.639 2.719-7.423 5.276-4.87 1.224-2.158 3.113-3.651 4.464-5.682 4.56 1.639 10.439 1.429 12.582-2.435-0.471-2.574-0.296-4.301 0-6.494-1.145-2.373-5.655-1.379-4.87-5.682 1.625-0.269 2.924-0.864 4.058-1.624 0.446-5.368 1.445-12.974 7.711-13.799 0.952 0.671 0.879 2.368 0.812 4.059 0.32 0.897 1.419 1.016 2.029 1.623 3.214-2.467 6.463-4.9 9.74-7.305-1.334-1.709-1.664-1.901-1.624-4.87 1.663 0.174 2.6-0.376 3.653-0.812-0.269-0.939-0.216-2.168-2.029-2.435-3.883 3.641-9.394 3.259-14.205 6.088-3.692-3.72-11.727 3.874-14.205-2.029 0.885-2.314 2.368-1.546 4.464-2.435-0.956-0.749-2.158-1.248-2.029-2.029 0.565-1.985 3.538-1.923 4.87-2.029 0.896-0.051 0.172-1.722 0.406-2.435 3.853 1.743 5.576-1.574 9.334-1.217v-4.059c4.417-4.841 0.294-14.406 2.029-22.728 1.315-1.39 2.948-2.463 3.652-4.464h3.247c0.893 2.219 2.462 3.76 3.652 5.682 0.303 5.316-0.555 10.952 0 14.205 2.889-1.44 4.668-3.99 7.711-5.276-1.474-1.033-2.806 0.607-4.058-0.406 0.996-4.957 7.37-4.535 8.522-9.334-1.94-0.453-1.712 1.264-3.652 0.812-1.045-2.252 1.74-3.12 3.652-3.653 0.116-2.01-1.366-2.421-1.623-4.058-3.429 0.339-9.424 4.794-11.364 0.406 1.314-1.527 5.415-0.267 6.088-2.435-2.204-1.065-4.147 2.412-6.494 0.406 1.466-3.404 5.627-4.113 8.522-6.087-0.343-1.551-0.685-3.104-0.812-4.871 0.522-0.966 1.819-1.157 2.841-1.623v-5.276c-0.105-1.789-3.003-0.785-4.058-1.624-0.513-3.218 1.715-3.696 3.652-4.464-0.471-6.614 1.368-12.896 7.305-11.77 0.243 2.057 1.051 3.548 2.841 4.059 2.017-1.365 3.35-3.415 5.276-4.87-0.232-0.416-2.172 0.167-1.623-2.029-4.394 2.342-9.185 1.942-12.581 0 1.241-4.71 7.084-4.82 8.928-8.929 4.189-0.005 6.124-2.263 6.899-5.682-1.132-1.709-5.153-0.529-6.494-2.029 1.212-1.765 1.387-4.565 4.464-4.464 1.104-0.371-1.081-0.754-0.406-2.029 1.072-0.822 3.359-0.429 4.464-1.217 0.051-1.404-2.113-0.593-2.435-1.624-0.228-2.527 0.253-4.346 2.435-4.464 1.579-8.638-3.853-20.328 4.464-24.756 0.115-1.798-0.905-1.919-1.218-4.059 0.731-1.118 3.196-0.951 4.465-0.406 1.236 1.971 0.694 2.728 0.812 4.464 1.678 0.326 1.231-1.474 2.841-1.217 2.224 1.97 3.369 5.018 4.464 8.117 1.419 1.693 4.121 2.102 4.059 5.276-0.523 0.559-1.763 0.402-2.841 0.406 0.593 3.195 3.998 3.578 4.87 6.494 0.142 2.109-1.906 0.486-2.435 1.217 0.596 1.162 1.993 1.524 2.435 2.841 0.354 1.301-0.625 1.269-1.218 1.623 0.677 1.353 2.89 1.169 2.436 3.653-2.093 1.247-3.247-1.5-5.276-1.624 2.684 2.592 5.407 5.145 8.929 6.899 0.303 1.25-1.114 0.78-0.812 2.029-1.016 1.022-1.594-0.466-2.841-0.406-0.981 0.975 0.985 1.074 0.405 2.841-0.385 0.833-1.31 1.125-2.029 1.624 0.197 1.646 1.77 4.07 0 5.276 2.1 3.042 6.33 3.952 10.958 4.464 0.766 1.399 1.2 3.129 2.029 4.464-2.641 6.786-6.9 2.062-12.987 1.217 2.962 3.938 5.883 7.916 10.146 10.552 1.079 1.043-0.78 0.581-0.812 1.624 0.802 2.581 4.275 2.489 6.088 4.059-0.245 2.888-4.34 1.132-6.494 1.217 1.704 3.708 7.17 3.653 9.335 6.899 0.363 1.31-1.324 0.57-1.624 1.218 1.009 0.615 2.464 0.783 4.059 0.812 0.34 0.877 1.051 1.384 0.812 2.841 1.543-0.335 2.908-0.522 4.059 0.406 1.304-0.861 1.923-2.406 4.059-2.435 0.165 1.188 1.062 1.645 1.623 2.435-1.419 2.91-3.269 5.39-5.275 7.711-5.843 1.387-9.935-1.418-13.799-3.247 1.074 3.526 7.255 1.944 6.899 6.899 1.158 1.142 4.436 0.164 4.87 2.029 0.084 1.572-1.39 1.586-1.623 2.841 0.914 2.333 6.39 0.103 6.899 2.841 0.111 1.735-1.179 2.069-2.029 2.841-2.11-0.043-3.303-2.751-5.683-1.218 2.688 4.887 5.554 9.599 9.74 12.987 1.65-3.588-0.805-9.184 0.406-14.205 1.873-0.697 1.967-3.174 2.841-4.87-0.169-0.914-2.226 0.061-2.029-1.217 3.835-3.371 6.132 4.454 8.929 6.087 0.198 6.296 0.679 12.309 0.812 18.669 1.381 1.687 4.433 2.626 4.059 4.87 3.77-1.177 7.344-1.57 10.958 0-0.052 1.708-1.572 1.945-1.624 3.653 2.963 1.245 4.348-2.348 7.306-2.435 0.641 2.539 1.193 6.17 0.406 8.929-3.7 1.463-7.305 0.261-10.958-0.406-5.438 3.174-12.549-3.713-15.828 1.624 1.068 2.043 2.409 3.814 3.652 5.682-0.772 0.761-1.02 0.044-2.029 0 0.947 2.3 4.406 2.088 6.494 3.247 3.245-0.678 2.463-5.383 6.493-5.276 3.777 4.757 5.287 10.544 5.276 17.451 4.66 1.404 14.07 2.009 11.363 8.117-1.908-0.256-2.392-1.937-4.059-2.435-1.736 2.215-4.659 0.649-6.899 0-1.253 0.483-0.285 4.568 0 6.088 1.675 2.272 6.302 0.493 8.117 0.812 1.051 1.268 1.27 1.765 0.406 3.247 1.279 1.787 3.757 0.004 6.087 0.406 0.476 1.013 1.176 1.801 2.029 2.436 2.668 0.098 3.802-1.339 6.494-1.218 3.376 3.483-0.005 8.919-4.87 8.929-0.812-1.012 0.867-1.991 0-3.247h-2.029c-0.719 0.008 0.646 1.915-0.406 2.435-3.916 0.911-8.735 0.736-12.581-0.406 0.117 1.507 2.147 1.1 2.029 2.841-1.517 0.037-1.157 0.455-2.436 0-0.737 0.48-0.318 2.116-0.812 2.841-4.629 1.13-8.658-1.538-11.363-3.653-0.938 0.965 1.188 2.31 2.435 2.435-0.046 6.771 5.824 8.178 8.523 12.581 1.018 1.662-0.287 3.692 2.435 4.059-1.009-5.371 4-7.782 6.493-10.958 2.136 0.03 1.729 2.6 2.436 4.059 1.434 1.046 2.222-0.825 3.247 0-0.822 6.683 0.177 16.374 0.405 24.756 1.127 0.609 2.655 0.368 3.247 0 2.342 2.563 5.399 0.139 8.117 1.624 4.718-0.047 6.108-5.025 11.363-3.247-0.23 1.258 0.11 3.086-1.218 3.247 0.998 1.088 2.78-0.712 4.059 0.406-0.066 0.472 0.09 0.722 0.406 0.812-0.039 4.832-5.149 4.59-8.117 6.493-2.208 5.375-9.685 4.304-14.61 2.029-1.103-0.291 0.29 1.914-0.812 1.624-4.705-0.19-7.228-2.109-11.77-3.247-1.349 0.859 1.218 1.179 0.812 2.436-2.209 0.315-3.165-0.624-4.464-1.218-1.39 0.397 1.085 2.342-0.406 2.841-2.297 0.579-3.779-2.916-6.493-3.247-0.838 3.818 5.357 4.108 6.087 7.711-1.702 0.214-2.267-0.709-3.652-0.812 2.461 4.438 10.047 3.751 13.393 7.305 4.457-1.392 8.334 2.05 14.61 1.217 1.393 1.201 3.393 2.75 5.276 1.218 1.056 1.65 3.683 1.729 3.247 4.87-0.904 1.125-4.577-0.518-4.87 1.218-0.171 2.335 4.13 0.199 3.652 2.841-4.56 0.519-5.759 5.387-11.363 3.652-1.007 4.749-7.06 2.9-10.146 4.871-0.813 5.142 7.084 1.573 6.493 6.493-1.622 0.59-3.233 0.812-4.87 0.405 2.7 3.119 8.85 4.947 9.74 8.523 0.236 1.453-1.201 1.233-2.435 1.217-0.021 1.208 1.193 2.06 0.405 2.842 1.922 0.783 4.45 0.961 5.276 2.841 3.356-9.792-5.396-24.447 6.088-27.192 1.287 0.878 1.212 3.117 3.652 2.842 2.108 7.607 0.472 18.339 2.436 25.162 4.005 0.536 7.617 0.19 11.769-0.406 1.354 0.434 0.026 1.231 0.812 2.436 2.828-1.241 3.888 0.035 6.087 1.217 0.229 2.935-1.275 4.136-2.028 6.088-4.169-0.36-9.279-0.585-12.176 2.029 2.383 0.323 4.527 0.884 6.493 1.624-1.992 1.66-3.816 3.488-6.493 4.464-2.207-0.904-3.766-2.457-6.088-3.247-2.122 3.602-6.582-0.51-9.334-1.217-1.869 2.293 1.946 2.368 1.623 4.464-4.95 0.622-6.749-1.908-9.74-3.247-1.57 4.093 5.588 4.877 3.652 9.335-1.72-0.31-2.365-1.693-3.652-2.436-2.413 2.82 4.033 6.227 7.711 6.899 0.855 0.769 0.911 2.336 2.029 2.841-0.576 1.761-1.71-0.688-3.652 0 3.641 3.259 11.111 2.688 12.987 7.711-0.759 0.795-1.487 0.126-2.436 0 0.841 2.812 5.723 1.582 4.87 6.088 6.773-0.453 10.567 1.294 17.857 1.623 0.25-5.633-0.757-10.407 4.059-11.77 0.388-0.828 0.829-1.605 1.217-2.435 1.336-0.017 2.021-0.686 3.653-0.406 4.314 6.005 3.359 13.611 2.841 24.757-0.14 2.989-1.066 6.09 0 8.929 5.099-0.784 7.754-0.315 11.77-1.218 1.207 2.674 2.727 5.58 0.812 8.929-1.868 0.512-3.231-0.046-4.465 0.406-0.635 0.661 0.56 2.938 0.812 4.058-4.479 1.44-10.53 0.084-14.61-0.812 1.314 2.743 7.131 0.986 7.711 4.465-1.271 0.488-2.707 0.811-4.059 1.217-1.46-0.163-1.442-1.804-2.841-2.028-1.305-0.357-0.557 1.337-1.624 1.217-3.773-1.335-6.296-3.2-10.146-5.275-5.469-2.948-7.949-5.951-12.581-9.335-0.824 0.421 1.326 2.642 0 3.653-3.972-1.44-6.764-4.06-10.958-5.276-0.499 0.177-0.834 0.52-0.812 1.218 2.073 1.308 3.98 2.782 5.682 4.464-5.854 2.435-9.021-4.017-12.581-6.493-1.265 1.423 2.079 1.69 1.623 3.652-6.776 0.356-4.482-10.044-12.175-10.552 0.303 2.672 2.899 3.053 3.246 5.682-3.286 1.181-4.743-2.776-7.305-3.652-0.591 2.696 3.183 4.337 5.275 5.682 2.783-0.545 5.078-0.5 5.276 2.435-1.915 1.187-4.311-0.153-5.682-0.812-1.277-0.194-1.587 0.578-2.436 0.812-7.314-2.109-12.138-1.73-14.61-7.305 0.013 0.027 0.048-1.552 0-1.623-1.551-2.323-4.543-2.739-6.493-4.87-1.604 0.129 0.301 1.256-0.812 1.623-5.585-0.535-7.85-8.154-13.394-6.088 0.202 1.422 2.264 0.983 2.841 2.029-2.922 0.652-7.566 0.576-10.146-1.218-2.261-1.571-2.7-5.826-5.682-5.682-0.401 1.619 1.213 1.223 0.812 2.841-4.012-0.724-5.959-3.511-7.306-6.899-5.367-1.666-9.747-4.321-13.799-7.305-1.713 12.971 0.562 33.221 0.812 47.483 0.077 4.421-1.408 8.994 1.623 11.363 13.767-0.541 27.436-0.427 43.02 0.406 1.05 4.087 1.219 10.054 5.682 11.77 1.99-0.716 2.732-2.68 5.682-2.435 0.227 1.668 1.027 2.761 2.029 3.652 6.443-2.633 13.861-10.077 21.104-14.61 3.101-1.941 8.156-6.98 10.552-6.899 3.431 0.116 5.068 4.912 8.522 6.088 0.799-0.961 0.464-3.054 1.218-4.059 3.916 0.896 8.593-0.208 12.987 0.812 1.296 1.932 1.183 6.349-2.029 6.088 0.613 2.894 0.644 4.591 0.405 7.711 2.374 1.026 6.824 6.352 10.146 8.929 3.636 2.82 7.97 5.28 0.405 8.116-0.514 19.433 0.988 40.984 1.624 58.848-6.034 2.269-14.016 0.668-21.104 0.812-12.863 0.262-29.666 0.198-43.831-0.812-6.026-0.43-13.378 1.559-18.669-0.812-18.047 4.31-41.183 1.912-62.5 1.218-0.534-1.09-1.09-2.157-1.624-3.247-23.726 0.15-42.464 2.033-67.37 1.218-0.843 0.104-0.111 1.782-0.812 2.029-1.208-0.021-2.06 1.193-2.841 0.405-0.888 0.601-2.185 0.792-2.841 1.624-24.131 2.919-41.282-8.813-41.396-30.438-0.084-15.936 11.119-26.7 24.351-30.033 2.523-2.752 4.992-5.56 6.899-8.928-2.773-5.469 2.55-11.82 6.088-10.958 1.595-0.569 1.039-3.29 3.247-3.247 1.762-0.139 0.782 2.465 1.624 3.247 7.353-0.945 12.874 3.322 15.828 8.116 1.649 0.026 2.022-1.225 2.435-2.435-2.65-3.047-1.341-5.984-2.435-10.146-0.725-2.756-3.322-5.188-3.652-8.116-0.628-5.567 3.517-11.619 10.146-11.364 6.861 0.265 11.298 10.066 5.682 17.857 0.593 5.083-0.551 7.312-1.217 11.77 0.458 0.76 0.48 1.955 2.029 1.623 0.855-2.883 0.121-9.764 0-12.175 1.367-1.784 4.243-1.271 5.276 0.405-1.525 10.417 0.924 19.555 2.841 27.192 1.588 0.235 2.356-0.35 3.247-0.812 0.124-2.806-0.645-4.096 0-6.493-5.012-5.539-2.098-13.958-3.247-20.698 0.541-0.406 1.225-0.669 1.624-1.218 15.35 1.661 28.004-0.79 43.019 0.812 3.053-3.104 2.367-14.883 2.029-22.321-0.659-14.507-0.916-28.013-0.812-38.962-1.861-2.187-6.022 1.804-8.117 3.653-4.009 3.539-7.738 9.548-12.582 9.334-1.128 2.524-4.647 2.658-6.899 4.059-0.844-0.238-1.312-0.853-2.029-1.218-2.604 3.483-6.646 5.529-11.77 6.494-0.565-0.518-0.177-1.988-1.218-2.029-2.194 5.029-7.352 4.985-11.77 7.305-1.433-0.14-1.049-1.065-0.812-2.029-6.051 5.178-8.763 13.694-18.263 15.422-0.676 0.807 0.037 0.517 0 1.624-2.475-2.375-7.21 2.166-11.363 2.029-1.126-0.607 0.704-1.66-0.406-2.029-1.416 3.585-8.136 6.995-11.363 4.87 0.309-1.044 0.985-1.721 2.029-2.029-1.233-2.646-5.646 0.343-6.899-2.029-0.335-1.147 0.572-1.052 0.406-2.029 3.339-0.819 6.916-0.432 9.74-2.435 0.112-1.601-2.859-0.118-3.247-1.218-1.209-2.176 1.832-3.196 4.464-2.841 0.986-2.453 4.366-4.486 7.711-3.247 3.579-1.562 6.376-3.905 9.74-5.682-0.384-8.57 13.213-10.791 9.334-21.51-1.799 2.665-2.509 6.419-6.494 6.899-0.922-0.296-1.214-1.222-1.624-2.029-1.748 6.381-5.184 13.197-10.958 14.204-1.81 1.302-1.784 4.439-4.464 4.87-1.549 0.332-1.571-0.863-2.029-1.623-1.98 0.861-2.142 3.54-4.87 3.652-0.909-2.498 2.448-3.972 2.841-6.493-3.58 0.216-4.252 7.186-8.117 4.464-1.582 0.718-1.085 3.515-4.059 2.841-0.057-3.615 3.775-6.746 5.276-10.146-3.124-1.019-2.992 4.527-5.682 5.275-0.467-0.479-0.459-1.435-0.406-2.435-4.137 7.092-12.836 9.621-19.075 14.61-1.121-0.097-0.926-1.509-1.624-2.029-1.605 2.751-7.309 8.156-9.74 2.841-0.093-1.445 0.583-2.122 2.029-2.029-1.796-1.372-3.44 0.875-4.87 1.218-6.647 0.651-8.046-14.57-3.653-18.669 3.622-3.378 8.59-2.084 12.987-2.029 1.761-0.944 0.648-4.763 4.059-4.059-0.93-9.076-0.573-15.008-1.218-23.539 2.115-1.267 2.613-4.15 4.059-6.087 1.317 0.235 1.888-0.276 2.841-0.406 4.663 5.07 4.59 15.188 4.87 23.539 3.081 0.312 3.67-3.031 5.682-4.465 3.929-2.8 9.277-3.563 13.393-6.493-1.792-0.509-2.824-1.775-2.841-4.059 3.881-1.665 7.96-3.132 10.552-6.087-1.855 0.297-3.405 0.818-6.087 0.812-0.262-2.291 1.167-2.892 1.217-4.87 3.836-0.088 4.769-3.078 6.087-5.682-2.337-1.318-0.319-2.891 0.406-4.465-2.495 0.881-4.889 2.237-4.87 3.652-3.796 0.904-15.803 4.106-21.104 1.218-0.049-1.808 3.51-0.008 3.652-1.623-4.37-1.246-12.978 2.83-15.422-2.841 1.029-3.13 3.32-1.528 5.276-0.812 0.901-0.451 1.1-1.605 2.029-2.028 1.615-0.263 1.632 1.073 3.247 0.812 0.972-0.737-1.473-1.477-0.812-3.247 3.177-1.254 4.762-0.47 7.711 0.406 1.647-0.112 1.674-1.844 2.841-2.436-0.403-8.623-1.771-16.433-0.812-27.191 1.132-0.355 2.005-0.972 3.247-1.218-1.222-2.756 2.405-4.252 4.87-3.246 0.474 3.896 4.103 5.26 3.653 8.928 2.422-0.554 3.903-2.049 6.494-2.435 0.758-0.722-0.33-1.031 0-2.436 1.461-0.297 2.05-1.467 4.058-1.217-2.35-2.335 2.861-4.052 5.276-5.276 0.009-0.956-0.699-1.195-0.406-2.435 0.884-1.197 2.856 1.048 3.247-0.812-0.667-1.323-2.202 0.742-2.841-0.406-0.891-0.854-0.084-1.805 0.406-2.435-3.274-1.783-11.388 4.175-14.61-0.812 0.495-2.355 4.755-1.834 5.682-1.623 1.317-0.712 1.071-2.988 3.653-2.435 0.022-1.465 1.011-1.965 1.217-3.247-2.002-0.442-10.617 4.3-13.393-0.406-4.413 1.08-7.165 0.364-10.146-1.624-0.559-2.858 0.935-3.665 2.435-4.464 2.05 0.386 2.892 1.979 4.464 2.841 0.896-0.051 0.172-1.722 0.406-2.435 1.967-0.073 3.466 0.322 4.87 0.812 1.233-0.5-0.44-1.396 0-2.435 3.989-2.835 10.56-0.478 12.987-4.464 0.438 0.18 0.203 0.51-0.022 0.5zm73.858-204.14c2.346-0.181 4.159 0.17 6.088 0.406-1.804-9.576 2.873-17.751-3.247-22.727-6.41 2.631-2.53 15.002-2.84 22.321zm-3.24 3.247c1.654 0.51 3.735 0.594 4.87 1.623 1.156-2.24 4.685 0.219 6.899-0.406-0.293-1.24 0.415-1.479 0.406-2.435-4.02 1.104-10.77-1.818-12.18 1.218zm15.42 15.016c0.608 1.15 1.464 2.054 3.247 2.029 1.53-3.244-1.9-4.583-3.25-2.029zm-4.87 2.841c0.573 0.779 1.972 0.734 2.841 1.218 0.463-0.891 1.048-1.658 0.812-3.247-1.34-1.293-4.35-0.953-3.65 2.029zm-9.74 1.624c0.73-0.758 2.409-0.567 2.029-2.435-0.259-1.364-1.946-1.301-3.652-1.218-0.19 1.943 0.44 3.077 1.62 3.653zm7.31 0c0.931-1.074 0.931-2.579 0-3.653-4.23-1.245-3.26 4.53 0 3.653zm11.36 4.058c0.453 0.801 3.354 1.482 3.652 0-0.58-1.36-3.57-2.523-3.65 0zm-22.73 5.682c0.275-0.979 3.225-1.611 1.217-2.435-0.06 0.924-2.44 1.572-1.22 2.435zm22.73 0.406c0.09-0.316 0.34-0.472 0.812-0.406 0.137-1.489-0.623-2.083-1.623-2.435-1.09 0.739-0.9 2.773 0.81 2.841zm-1.22 4.058c0.82-0.54 1.226-2.714 0.406-3.653-3.53-0.494-2.44 3.329-0.41 3.653zm-35.31 3.652c1.028 4.564-1.424 12.44 1.624 15.828 1.847-1.806 2.572-4.733 4.464-6.494 0.156-4.671-0.846-6.464 0-10.958-1.234-0.931-2.03-2.299-3.247-3.247 0.08 2.64-2.3 2.825-2.83 4.871zm30.44-0.811c0.956-0.009 1.195 0.699 2.436 0.406 2.17-3.066-3.29-4.715-2.44-0.406zm-3.65 0.811c0.021 1.604 0.832 2.415 2.436 2.435 0.423-1.149 0.423-1.691 0-2.841-1.01-0.053-1.96-0.061-2.44 0.406zm-3.25 4.465c2.3 0.45 2.497-1.651 2.029-2.841-2.23-0.384-2.7 1.451-2.03 2.841zm-4.06 0c-0.129 0.941 0.065 1.558 0.406 2.029 1.656 0.167 2.561-0.416 2.435-2.029-0.55-0.579-2.3-0.579-2.85 0zm-1.21 3.246c-0.4-5.523-4.82 2.147 0 0zm-6.9-0.811c-0.123 1.583 1.552 2.709 2.841 1.624 0.12-1.583-1.56-2.71-2.84-1.624zm5.68 4.87c-0.632-0.856-1.504-1.472-3.247-1.217-1.56 2.097 3 4.391 3.25 1.217zm14.2 3.653c1.076 6.471 0.267 10.286 1.218 17.045 2.755 0.204 5.104-0.358 6.899 0 0.234-5.916-0.712-10.651-0.405-16.64-1.94-1.171-2.573-3.65-4.059-5.276-0.34 2.499-1.88 3.807-3.66 4.868zm-27.19 4.464c-6.292 4.417-3.84 16.593 7.305 13.798 9.195-3.818 0.601-13.176 1.217-19.075-3.13-5.32-10.92-1.497-8.53 5.281zm12.18-5.276c-0.239 1.457 0.472 1.963 0.812 2.841h2.029c0.174-0.772 0.875-1.02 0.812-2.029-0.52-1.585-2.39-2.022-3.65-0.812zm-18.27 4.058v2.029c1.508 0.658 3.865 0.21 3.247-2.435-1.17 0.049-2.66-0.221-3.25 0.406zm21.11 0.406c0.02 1.604 0.832 2.415 2.435 2.435 0.696-0.522 1.596-0.839 1.624-2.029-0.67-1.423-2.89-1.522-4.05-0.406zm4.06 5.276c1.388 0.634 1.889 0.946 3.652 0.406 0.089-1.485 0.558-1.557 0-2.841-1.78-0.852-4.51-0.546-3.65 2.435zm7.3 2.029c0.16-1.647-0.148-2.828-1.623-2.841-0.86 1.058-0.59 3.594 1.62 2.841zm10.96 0c-0.556 3.171 2.434 3.607 4.059 2.435 0.239-1.457-0.472-1.963-0.812-2.841-1.53-0.311-1.94 0.496-3.25 0.406zm9.33 4.461c0.49-7.761-7.57 0.3 0 0zm-19.88 3.25c-0.896 0.051-0.173 1.722-0.406 2.435 3.379-1.054 10.639 1.38 12.581-2.029-3.9-1.22-9.27-0.53-12.17-0.41zm-50.327 23.94c2.806-0.056 3.177-0.048 5.276-0.812 0.52-4.743 0.159-13.087 0.812-18.669-1.495-0.805-1.953-2.646-3.652-3.247-4.804 5.75-2.31 16.34-2.437 22.73zm71.837-18.66c0.093-1.446-0.584-2.122-2.029-2.029-0.1 1.44 0.58 2.12 2.03 2.03zm21.1-0.82c-3.396 4.825-0.093 14.408-0.812 19.48 1.286 1.255 3.666 0.602 5.276 0-1.04-6.56 1.87-17.3-4.47-19.48zm-35.71 5.69c0.601 0.211 1.022 0.601 1.623 0.812 0.616-0.872 1.764-1.213 1.624-2.841-1-2.04-3.57-0.6-3.24 2.03zm12.98 12.17c1.678 1.723 4.29 0.668 6.087 2.841-0.6 1.023-1.93 1.317-1.623 3.247 0.396 2.163 2.255 1.734 2.841 4.059 0.979 3.882-2.373 10.319 2.436 11.364 2.16-3.962-0.694-8.367-1.218-12.175 0.521-1.373 2.522-1.265 2.435-3.247 0.193-2.357-2.58-1.749-2.435-4.058 3.011-1.183 4.377-4.011 4.059-8.523-0.499-1.936-3.095-1.776-2.841-4.464-9.25-3.61-14.36 6.2-9.74 10.95zm-6.08-7.71c1.169 1.083 2.737 0.73 2.841-1.217-0.345-0.874-1-1.436-2.436-1.217 0.01 0.96-0.7 1.2-0.4 2.44zm-49.11 2.84c1.117 0.486 1.695 0.881 2.841 0.406 0.241-1.999-0.392-3.125-2.435-2.841-0.47 0.48-0.46 1.43-0.41 2.43zm38.55 0.41c0.79 0.833 1.266 1.98 2.841 2.029 1.314-0.58 1.82-1.968 1.623-4.059-2-1.28-4.11 0.35-4.46 2.03zm-35.71 2.03c1 1.302 2.507-0.946 0.812-1.218-0.1 0.58-0.67 0.68-0.81 1.22zm8.12 13.79c6.883-13.19-19.806-18.005-17.045-1.217 2.7 5.86 13.98 7.1 17.05 1.22zm25.97-11.36c-9.71-2.31 1.24 9.8 0 0zm-12.18 4.87c0.426 1.062 1.168 1.809 2.435 2.029 1.024-0.6 1.678-1.57 2.029-2.841-0.85-2.35-4.16-1.58-4.47 0.81zm-40.985 0.41c1.968-0.467 5.851 0.98 6.494-0.812-0.74-2.27-5.965-0.91-6.495 0.81zm36.525 1.22c-3.14-8.74-7 4.99 0 0zm54.79-2.44c1.211 4.561 7.813 0.188 10.958 1.624-1.23-4.04-7.33-0.72-10.96-1.62zm-33.69 31.25c2.418 0.359 4.629-0.19 6.899-1.217-2.081-9.778 0.933-22.239-7.306-25.568-4.48 6.78-0.09 18.56 0.41 26.79zm14.62-24.35c-0.175 1.798 0.677 2.57 2.029 2.841 1.045-0.307 1.41-1.295 1.217-2.841-1.11-0.88-1.99-0.69-3.25 0zm21.1 1.22c-0.253-1.235-0.901-2.075-2.435-2.029-0.12 1.61 0.78 2.19 2.44 2.03zm-56.82 3.24c0.085-0.455 0.45-0.632 0.812-0.812-0.45-6.56-7.67 0.66-0.81 0.81zm30.03 2.44c2.001 0.066 2.88-1.615 2.028-3.247-3.18-0.87-4.11 2.2-2.03 3.25zm-24.35 1.62h1.217c-0.021-0.698 0.312-1.041 0.812-1.218-0.206-1.823-1.257-2.8-3.652-2.435-0.04 1.8-0.08 3.61 1.62 3.66zm10.15 1.63c0.174-0.773 0.874-1.02 0.812-2.029-1.92-4.6-6.21 2.24-0.81 2.03zm54.79 29.22c1.902 0.637 3.186-0.209 5.276-0.406 0.633-6.88 1.408-20.768-3.653-25.568-4.8 6.27-1.97 16.49-1.63 25.98zm-79.95-21.92c0.796 1.231 2.555 2.277 4.058 1.624 1.709-1.549 0.637-5.227-1.623-5.276-1.03 1.02-2.53 1.54-2.44 3.66zm-36.53 3.25c-1.258 5.79 1.488 14.33 0.812 19.48 1.286-0.608 3.584-0.204 4.87-0.812 0.111-8.018 2.01-19.503-3.247-23.945 0.491 2.24-1.929 2.95-2.435 5.28zm112.83-0.81c0.122-1.069-0.562-1.332-1.624-1.218-0.13 1.07 0.55 1.33 1.62 1.22zm-104.71 2.84c-0.212 1.436-0.489 2.525 0.812 3.247 0.532-4.203 7.729-1.74 8.523-5.682-4.02-0.11-4.5 3.34-9.332 2.43zm74.672 1.21c-0.387 1.146 0.121 5.368 0.812 8.117 2.299 9.146 5.859 27.406 9.74 34.902 3.059-14.122 5.987-28.374 8.522-43.02-3.7-3.65-17.03-6.04-19.07 0zm26.79 2.84c-0.312-1.312-1.123-2.124-2.435-2.435-0.65 0.96 0.85 2.47 2.44 2.44zm-47.89 0.82c0.793-1.11 0.793-1.731 0-2.841h-1.623c-0.47 1.67-0.24 2.61 1.62 2.84zm14.2-2.44c-2.608 0.105-8.102 1.589-10.958 1.623-0.336 1.147 0.571 1.052 0.405 2.029 2.521-0.208 8.18-0.363 10.958-1.623 0.13-0.94-0.07-1.56-0.41-2.03zm-58.44 3.25c0.316 0.09 0.472 0.34 0.406 0.812 0.542 0.579 2.299 0.579 2.841 0v-2.029c-1.41-0.73-2.95-0.25-3.25 1.22zm41.8-0.41h-1.218c-1.89 3.22 3.12 3.22 1.22 0zm4.87 4.87c0.579-0.542 0.579-2.299 0-2.841h-1.218c-0.87 1-0.3 3 1.22 2.84zm-43.02-2.43c-2.82 6.72 7.73 1.7 0 0zm33.28 3.65c1.342-0.416 2.393-1.124 2.435-2.841-1.56-2.13-5.43 1.46-2.44 2.84zm49.11-1.22c1.19-0.027 1.508-0.928 2.029-1.624-0.96-1.71-3.35 0.08-2.03 1.62zm5.28-1.62c0.63 2.076 1.845 3.566 4.464 3.653v-2.841c-0.82-0.85-3.02-1.86-4.46-0.81zm-42.62 3.25c0.978-0.167 0.882 0.741 2.028 0.406 0.933-1.135 0.224-3.229-1.623-2.841-0.47 0.47-0.46 1.43-0.41 2.43zm-57.221-0.82c-0.039 3.244 2.558 3.425 4.464 2.841-1.335-2.058 1.16-1.861 1.624-3.247-1.4-0.84-4.33 0.25-6.081 0.41zm62.911 3.25c1.538-0.22 2.382-1.135 2.029-3.247-2.43-2.41-4.54 1.74-2.03 3.25zm4.05-1.22c1.123 2.169 4.648 0.973 4.058-2.029-1.61-1.53-4.35-0.6-4.06 2.03zm-26.38 1.22c1.588 0.235 2.356-0.35 3.247-0.812v-2.029c-1.99-2.24-4.4 0.63-3.25 2.84zm-24.35-2.84c-0.846 4.429 4.072 4.331 4.059 0.812-1.37-0.96-2.9-1.54-4.06-0.81zm18.67 5.28c2.058 0.374 2.825 0.334 4.058-0.812 1.07-6.38-7.79-3.97-4.06 0.81zm-8.93-0.81c-2.31-9.6-7.89 4.15 0 0zm1.63-2.44c-0.208 1.696 0.226 2.75 0.812 3.653 4.458 0.983 4.612-3.214 2.435-4.87-0.58 0.11-2.24 0.46-3.25 1.22zm32.87 3.65c0.078 1.275 0.754 1.952 2.029 2.029 0.005-0.807 1.107-0.516 0.812-1.624-0.28-0.802-1.082-1.082-2.029-1.218-0.08 0.46-0.45 0.63-0.81 0.81zm-70.617 4.47c2.068-1.215 10.436 0.687 10.552-2.841-2.394 0.5-9.086 0.07-10.552 2.84zm115.67-2.84v1.217c4.031-0.376 7.291 0.888 10.552-0.406-2.12-2.15-7.3-0.95-10.55-0.81zm-43.43 10.14h2.028c1.562-1.99-0.182-3.365-1.217-4.87 1.511-0.631 1.828-1.831 1.217-3.653-0.952-0.129-1.522-0.641-2.841-0.406 0.07 3.45 0.17 5.97 0.81 8.93zm-18.67 0c1.424-1.553 1.136-3.652 0-5.276-5.98-1.44-4.5 6.19 0 5.28zm68.19-1.62c-0.463-1.296-1.617-1.901-3.247-2.029 0.29 1.38 2.28 2.6 3.25 2.03zm12.98 0.4c0.264-1.373-2.642-1.651-3.247-0.812 0.9 0.47 1.67 1.05 3.25 0.81zm-18.26 0.82c-0.957-0.125-0.755-1.41-2.029-1.218 0.06 1.13 1.65 2.8 2.03 1.22zm11.36 0.81c-1.3-0.594-2.256-1.533-4.465-1.218 0.17 1.47 3.54 1.85 4.46 1.22zm-77.51 2.43c0.551 1.884 1.274 3.596 4.059 3.247 2.89-3.04-2.36-6.79-4.06-3.25zm21.91 2.44c0.717 0.762 1.185-0.483 2.028 0.406 3.6-2.74-3.1-6.67-2.03-0.41zm-32.87 16.23c-0.86-2.261-3.646-3.05-3.652-5.276-0.01-3.216 3.981-4.504 2.841-8.117-2.641-7.311-14.871-8.122-16.64 0-1.147 5.267 1.506 7.797 4.059 9.74-0.624 2.443-3.585 3.113-4.059 5.682-0.796 4.316 2.543 6.642 5.276 8.929 0.289 2.047-1.248 2.27-0.812 4.464 2.811 5.077 12.155 2.615 9.334-4.464 2.94-3.29 5.28-6.67 3.65-10.95zm-39.773-16.64c1.237 0.02 2.066-0.369 2.435-1.218-1.011 0.21-2.448-0.01-2.435 1.22zm73.863 5.68c0.768-0.091 0.896 0.458 1.624 0.406 1.301-0.322 1.835-1.412 1.623-3.247-1.98-2.1-4.95 0.16-3.24 2.84zm-72.24 0.41c1.633-0.261 2.782-1.006 2.436-3.247-2.576-1.89-4.346 1.66-2.436 3.25zm68.18-1.62h1.624c0.129-0.941-0.065-1.559-0.406-2.029h-1.218c0.01 0.67 0.01 1.35 0.01 2.03zm-15.01 1.21c0.319-1.401-0.379-1.785-1.218-2.029-0.35 1.02-0.53 2.18 1.22 2.03zm62.09 0.81v-2.029h-1.623c-0.17 1.39 0.12 2.32 1.62 2.03zm-38.15 3.25c2.513 0.387 3.818-1.34 2.841-3.247-3.2-0.65-4.39 1.27-2.84 3.25zm-8.11-2.43h-2.029c-0.65 2.15 2.67 2.15 2.03 0zm43.01 4.87c1.533 0.045 2.182-0.794 2.435-2.029-0.81-3.86-5.05-0.59-2.43 2.03zm-108.76 0.81c2.286-0.913 1.513-4-1.218-4.059-1.344 1.38-0.672 3.74 1.218 4.06zm77.923 0.81h2.029c3.59-5.05-6.55-4.77-2.03 0zm50.73-0.41c0.621 7.09 0.827 14.596 1.218 21.916 0.971 0.939 4.269 1.205 5.682 0.406 0.082-9.458-0.529-13.589-0.812-21.916-1.346-0.954-1.57-3.029-3.247-3.652 0.63 2.65-2.17 1.88-2.84 3.24zm-66.15 0.41c0.471 0.341 1.088 0.536 2.029 0.406 2-2.66-2.64-4.02-2.03-0.41zm45.05 3.25c0.124-1.229 1.256-1.45 0.812-3.247-0.718-0.364-1.185-0.979-2.029-1.217-1.93 1.19-1.22 4.34 1.22 4.47zm-21.11-0.41c0.226-2.254-1.211-2.847-3.246-2.841-1.71 2.15 1.27 4.39 3.25 2.84zm-83.196 1.22c0.804-1.819-0.232-4.033-2.841-3.652-0.875 1.89 0.114 4.15 2.841 3.65zm-7.711 7.3c-1.085 1.872-5.114 5.51-6.899 2.841 0.88-0.608 0.945-2.031 2.435-2.029 0.302-1.25-1.114-0.78-0.812-2.029 2.002-0.568 2.293-2.848 4.059-3.653-0.532-1.633-1.057-3.272-0.812-5.682-1.757-0.134-0.999 2.248-2.841 2.029-0.562-0.25-0.061-1.562-0.812-1.624-1.374 2.685-3.776 4.341-6.494 5.682 0.651 1.784 2.109 2.761 3.247 4.059 1.337 3.858-1.373 9.701 2.435 11.364 1.093-1.055-0.496-1.224-0.406-2.435 1.417-1.411 3.506-0.175 4.464-0.406-1.847-3.058 3.895-5.617 3.652-5.682-2.252 0.29-0.279-2.11-1.216-2.44zm12.177-7.71c0.559-0.018 0.891 0.191 1.218 0.406 0.635-0.853 2.032-2.528 0-2.841-0.36 0.85-1.24 1.2-1.22 2.43zm52.35 1.63c1.913 1.299 3.812-0.367 3.247-2.841-0.601-0.211-1.022-0.601-1.623-0.812-0.89 0.87-1.77 1.74-1.63 3.65zm15.83 16.64c3.025-0.065 7.446-2.709 8.523-4.87 7.84-15.737-21.809-21.483-19.481-3.653 0.354 2.711 1.989 3.351 3.247 6.494 2.69-0.69 4.75 2.09 7.71 2.03zm24.76-16.64c1.204 1.54 4.526 0.896 3.652-2.029-1.21-1.54-4.53-0.9-3.65 2.03zm-11.77 1.62h3.247c0.235-1.588-0.35-2.356-0.812-3.247-3.1-0.62-3.8 1.48-2.44 3.25zm26.38 1.62c-0.834-2.413-2.694-3.799-4.87-4.87 0.78 2.47 2.43 4.06 4.87 4.87zm-17.05 0c0.693-1.011 1.416-1.991 0.812-3.247-3.7-3.72-6.19 4.1-0.81 3.25zm-119.32-2.84c-0.307 0.977-0.322 1.965 0.406 2.841-0.014-2.043 2.825-1.234 2.435-3.653-1.258-0.04-1.939 0.5-2.841 0.81zm129.06 3.25c1.509-0.264 1.373-2.413 0.812-3.652-3.23-1.25-3.15 3.89-0.81 3.65zm-101.86-2.03c-2.495-3.422-5.329 3.504-1.217 3.247 1.061-0.43 1.327-1.65 1.217-3.25zm111.2 0.41c0.727 0.626 2.033 0.672 1.623 2.435h-2.029c1.713 3.699 5.836 4.987 9.74 6.494 0.496-1.832 1.17-7.035-0.812-7.711-0.896 0.828 0.703 2.539-1.218 2.841-4.12 0.74-5.04-5.61-7.3-4.06zm-58.85 2.43c1.588-0.036 2.75-0.496 2.436-2.435-0.48-0.468-1.435-0.459-2.436-0.406-0.58 0.54-0.58 2.3 0 2.84zm-73.459 2.44c-1.719-2.767-4.07-3.231-6.088-0.406 0.476 7.676 0.201 15.642 0.812 23.133 1.843 0.282 3.958 1.201 5.682 0.406 1.282-7.56-0.5-15.43-0.406-23.13zm20.292 1.62c0.877 0.34 1.384 1.051 2.841 0.812 0.34-0.878 1.051-1.385 0.812-2.841-0.99-2.05-4.49-1.17-3.647 2.03zm49.917-0.81c0.479 0.603 0.352 1.813 1.624 1.624 1.526-0.097 1.582-1.665 2.029-2.841-1.39-0.97-3.61-1.07-3.65 1.22zm-47.08 4.46c0.559 1.064 1.49 1.757 3.247 1.623 0.36-0.857 1.235-1.199 1.217-2.435-0.7-2.06-4.72-2.22-4.47 0.82zm44.65-1.62c-0.259 0.929-0.805 2.448 0 3.247h2.029c0.34-0.877 1.051-1.384 0.812-2.841-0.98-1.02-1.08-0.39-2.84-0.41zm-12.99 10.14c0.168 5.986 1.273 13.12 1.218 18.669 2.381-0.385 3.874 0.163 6.087-0.812-0.569-8.855-1.155-16.193-0.812-23.539-0.921-1.379-2.17-2.429-3.247-3.653-2.38 2.06-3.37 4.98-3.25 9.33zm-46.266-6.08c1.489 0.136 2.083-0.624 2.435-1.624-0.873-0.76-2.76-0.07-2.435 1.62zm18.266 1.62c0.729 1.029 1.601 1.917 3.652 1.624 3.29-3.58-3.59-6.63-3.65-1.62zm36.52 1.62c2.282 0.388 3.215-0.573 3.653-2.029-0.81-3.07-5.88-1.18-3.65 2.03zm45.05-1.62c-0.483 3.765 3.235 5.408 5.276 3.247 0.75-3.79-2.92-4.91-5.28-3.25zm-73.05 4.87c1.061-0.712 0.957-2.829 0.406-4.058-5.04-1.66-4.47 5.01-0.41 4.06zm5.68 1.22c5.17-7.63-9.12-1.55 0 0zm6.5 0c0.09-0.316 0.34-0.472 0.812-0.406 0.5-1.148 0.5-2.505 0-3.653-3.97-2.65-5.25 4.81-0.81 4.06zm4.05-1.22c1.446 0.093 2.122-0.583 2.029-2.029-0.344-0.874-1-1.436-2.435-1.218-0.06 1.83-0.49 2.03 0.41 3.25zm91.32-1.62c0.729 3.257 11.944 2.572 11.77-0.406-2.85-0.1-8.54-1.06-11.77 0.41zm-126.22 8.93c1.072-1.092 2.558-1.771 2.029-4.464-4.15-4.92-8.302 4.51-2.029 4.46zm114.04 3.24c0.314-1.938-0.849-2.399-2.436-2.435 0.03 1.61 0.84 2.42 2.44 2.44zm-53.57 2.03c0.979-0.167 0.883 0.741 2.029 0.406 0.762-1.265-0.068-3.822-2.029-3.653-0.8 0.79-0.26 2.31 0 3.24zm-83.602-2.03v2.029c2.525 0.366 5.281-0.058 9.74-0.406-0.593-3.93-6.391-0.22-9.74-1.62zm103.49 6.5c4.129 0.634 3.47-6.478-0.406-5.276-2.98 0.92-2.24 4.87 0.41 5.28zm-57.63 1.21c1.636 0.012 3.13-0.117 3.652-1.217-0.07-0.656-0.764-0.505-0.812-2.029-2.74-1.35-4.88 1.27-2.84 3.25zm-34.904 0c0.199 5.239 2.294 10.225 3.652 15.422 2.376 9.092 2.165 19.664 7.305 24.756 3.771-12.467 5.599-25.813 8.117-40.178-6.548-1.95-13.192-4.36-19.074 0zm104.7 2.03c-0.003 9.111 0.394 16.745 0.812 23.539 2.249 0.271 5.212-0.299 7.305-0.405-0.37-7.529-0.026-13.152-0.812-22.728-1.897-1.078-2.004-3.949-3.652-5.276-0.54 2.31-2.02 3.67-3.66 4.87zm-117.69-0.4c1.793 0.034 3.449-0.069 3.247-2.029-1.763-0.01-2.917 0.6-3.247 2.03zm105.11 3.24c2.235 0.071 3.552-0.777 4.059-2.435-0.633-1.532-1.801-2.528-3.652-2.841-1.66 1.02-1.3 3.69-0.41 5.28zm-58.44-2.03c0.586 2.835 5.068 2.366 4.87-0.812-1.44-1.18-4.58-2-4.87 0.81zm16.23 0c0.265 3.138 7.146 1.296 9.334 1.218-0.335-1.147 0.572-1.051 0.406-2.029-3.3-0.6-8.03-0.81-9.74 0.81zm-17.04 6.5c1.238 1.312 3.495 1.967 5.682 1.218 2.18-5.58-5.8-6.5-5.68-1.22zm46.27 22.73c0.315-1.126 1.134-1.352 1.217-2.436 0.124-1.595-0.646-3.269-0.405-4.87 0.329-2.192 2.222-2.999 2.841-4.87 3.769-11.387-7.715-16.125-16.64-11.77-3.584 3.727-3.68 12.58 0.812 15.422-2.182 6.677 2.354 11.755 2.841 18.264 2.376 0.297 3.134 3.567 6.088 2.029 2.47-3.23 2.01-7.38 3.24-11.76zm46.67-17.05c0.195-2.495-1.646-2.954-2.841-4.059-1.48 2.13 1.39 4.85 2.84 4.06zm30.84-1.22c1.062 0.115 1.746-0.147 1.624-1.217-1.06-0.11-1.74 0.15-1.62 1.22zm-196.43 2.84c0.767 6.365 1.159 18.888 1.624 24.352 1.402 0.313 4.92-0.389 6.899-0.812-0.921-8.571-1.158-15.084-2.029-24.756-2.585-1.27-4.068 0.33-6.494 1.22zm30.438 0c1.492 0.392 1.613-1.993 0.406-2.028-0.356 0.72-1.287 1.19-0.406 2.03zm154.22 0c0.187-1.268-0.867-1.297-2.029-1.217-0.06 1.15 1 1.18 2.03 1.22zm-153.41 4.87c1.147 0.335 1.051-0.572 2.029-0.406 0.167-1.655-0.416-2.561-2.029-2.436-0.198 0.94-0.805 2.09 0 2.85zm176.14 0c-1.467-3.141-4.986-1.894-5.682 1.623-0.862 4.362 1.322 16.271 1.623 21.104 1.53 0.319 3.438 0.71 4.87 0-1.08-6.92 1.94-16.83-0.81-22.72zm-197.65 2.44c0.015 3.638 0.683 6.623 0.406 10.552 0.724 0.961 4.094 2.215 4.464 0-1.298-0.055-3.106 0.4-2.841-1.218 0.415-0.938 1.866-0.839 3.247-0.812 0.006-1.076-0.225-2.39 0.812-2.435 4.672-0.412 8.723-3.347 8.929-6.899-2.596 0.271-4.579 4.236-6.899 1.218-0.489-1.174 2.434-1.851 0.406-2.029-2.436 1.36-6.061 2.55-8.524 1.63zm25.568 1.62c-0.139-1.484-1.39-1.856-2.435-2.435-2.477 1.46 0.927 4.87 2.435 2.44zm33.279 0.41c0.955 0.835 3.119 0.42 3.247-0.812-0.52-1.87-3.75-2.34-3.25 0.81zm33.69 3.25c0.892-1.82-0.079-3.884-2.029-4.059-1.61 1.32-0.68 4.63 2.03 4.06zm20.69-2.44h1.623c0.068-1.016-0.624-1.271-1.218-1.623-0.12 0.54-0.57 0.77-0.4 1.62zm45.86 3.25c2.174 0.145 3.047-1.011 2.841-3.247-1.82-2.27-4.46 0.85-2.84 3.25zm-44.23-2.03c-0.361 2.255 1.129 2.658 3.247 2.435 0.69-2.5-1.64-3.56-3.25-2.44zm19.07-0.41c0.01 0.956-0.698 1.195-0.405 2.436 3.728 1.549 7.467 0.005 12.175 0.405v-2.435c-4.32-0.51-6.99-0.16-11.77-0.41zm-109.98 1.22c-0.234 1.992 0.526 2.991 2.029 3.247 3.047-0.81 0.498-5.72-2.029-3.25zm33.682 2.84c1.647 0.159 2.828-0.148 2.841-1.623-0.47-3.93-5.4-0.72-2.84 1.62zm28.41-0.41c0.928 0.258 2.448 0.805 3.247 0 0.134-1.758-0.559-2.688-1.624-3.247-0.88 0.76-2.07 1.19-1.63 3.25zm69 0c1.046 0.098-0.558 0.698 0 1.623 0.679 0.538 1.359 1.075 2.841 0.812 0.883-1.104 0.69-1.979 0-3.247-1.26-0.03-2.25 0.2-2.84 0.82zm-36.94 1.63c0.712 0.776 1.519 1.457 2.841 1.623 0.737-1.268 0.977-2.532 0-3.652-1.97-0.35-2.3 0.94-2.84 2.03zm-60.47 0c-1.607-1.835-4.416-0.141-3.653 2.841 2.07 1.05 4.4 0.13 3.65-2.84zm25.17 2.43c2.013 0.119 2.96-0.828 2.841-2.841-2.33-1.64-4.66 1.35-2.84 2.84zm-54.794 1.22c1.949 0.191 3.358-0.159 3.652-1.623-0.619-1.275-1.979-1.81-3.652-2.029-0.31 0.95-0.799 2.8 0 3.65zm62.904-3.25c-0.289 2.184 0.949 2.839 2.436 3.247 0.34-0.877 1.051-1.384 0.812-2.841-0.54-0.72-2.35-1.26-3.25-0.41zm62.5 2.03v-1.623h-1.623c-0.19 1.27 0.35 1.81 1.62 1.62zm-75.49 2.03c0.953 0.13 1.523 0.642 2.841 0.406 0.129-0.953 0.641-1.523 0.406-2.841-1.54-1.5-3.69-0.29-3.25 2.43zm44.65-2.03c0.484 1.805 1.787 2.629 3.652 2.029 0.271-1.57 0.001-1.443 0.406-2.435-1.34-0.89-3.17-0.97-4.06 0.4zm-71.84 4.06c1.798 0.175 2.57-0.677 2.841-2.029-0.9-3.34-5.614-0.35-2.84 2.03zm-15.013 0.81c2.686-7.14-7.391-1.5 0 0zm147.72-2.43c-1.041-0.854-2.554-1.234-4.059-1.623-0.31 1.95 2.78 2.61 4.06 1.62zm-110.38 1.62c0.773 0.175 1.02 0.875 2.029 0.812 0.953-0.129 0.909-1.256 1.624-1.623-0.07-2.72-4.37-2.54-3.65 0.81zm76.29-1.22c-0.834-0.112-0.811-1.084-1.218-1.623-6.2-0.28 0.19 6.61 1.22 1.62zm14.21-1.21c-0.079 1.566 0.645 2.332 2.029 2.435 0.579-0.541 0.579-2.299 0-2.841-0.94-0.13-1.56 0.06-2.03 0.41zm-35.31 0.4c-0.239 1.457 0.472 1.964 0.812 2.841 1.457 0.239 1.964-0.472 2.841-0.812 0.04-1.83-1.97-3.21-3.65-2.03zm24.35 0c0.308 2.398 2.173 3.239 4.465 3.653 0.2-2.72-2.25-4.65-4.46-3.65zm-12.58 3.25c7.33 2.16 0.5-7.85 0 0zm-44.24 0.81c0.414-0.533 0.398-1.496 0.812-2.029-2.2-4.32-6.2 2.24-0.81 2.03zm-51.134-2.43c-0.321 1.403 0.451 1.713 0.812 2.435 2.595 0.196 3.218-1.642 2.029-3.247-1.457-0.25-1.964 0.46-2.841 0.81zm10.954 0.4c-0.152 2.182 0.968 3.091 2.841 3.247 2.95-1.75-0.81-6.48-2.84-3.25zm79.14 2.44c1.317 0.235 1.888-0.276 2.841-0.406 1.26-5.43-6.25-2.79-2.84 0.41zm-68.18-1.63c0.548 0.398 0.811 1.083 1.217 1.624 1.547-0.077 2.67-0.577 2.841-2.029-0.316-0.09-0.472-0.34-0.406-0.812-1.36-1.06-3.31 0-3.65 1.22zm-5.27 1.63c0.673 0.68 2.382 0.322 3.652 0.405 0.628-1.275 0.259-2.264-0.406-3.246-2.27-0.24-3.49 0.57-3.24 2.85zm-44.647 2.43c2.302 1.389 5.26-3.479 2.435-4.87-1.41 0.87-2.841 3.5-2.435 4.87zm75.487 0c0.06-1.007 0.076-1.97-0.812-2.029-0.62 0.58-0.4 2.12 0.81 2.03zm-102.27 1.22c4.85 0.098 7.87-0.677 11.77-0.812v-2.029c-3.068 2.19-9.924-2.41-11.77 2.84zm109.17 1.62c0.874-1.803 0.292-4.254-2.029-4.059-1.61 1.71-0.3 4.35 2.03 4.06zm-12.18 2.03c2.717 2.094 4.575-1.117 2.841-3.652-2.47-0.31-3.09 1.23-2.84 3.65zm104.71-2.43c-0.235 1.588 0.35 2.356 0.812 3.246 1.198-1.004 8.845 1.424 8.523-3.246-2.25-0.67-7.08-0.67-9.33 0zm-57.63 4.05c-0.145-1.75-0.916-2.872-1.623-4.059h-2.029c-0.97 2.29 0.85 4.3 3.65 4.06zm-33.28 0.41c0.953 0.13 1.523 0.642 2.842 0.406-0.295-1.241 0.7-1.194 0.405-2.436-1.02-2.93-5.36-1.28-3.25 2.03zm-88.878-2.84c-0.991-0.404-0.865-0.135-2.435-0.406-0.992 2.48 3.058 2.86 2.435 0.41zm174.52 2.03c-0.295-1.193-1.266-1.711-2.841-1.623 0.04 1.44 1.34 1.63 2.84 1.62zm-100.65 4.06c0.6-0.211 1.022-0.601 1.623-0.812v-2.029c-2.64-3.13-5.59 2.49-1.62 2.84zm19.48-2.44c0 1.895 0.491 3.297 2.435 3.247 1.046-0.308 1.41-1.296 1.218-2.841-0.55-0.82-2.72-1.23-3.66-0.41zm-93.348 0.41v1.623c1.188 0.365 1.247 0.365 2.435 0v-1.623c-0.518-0.56-1.915-0.56-2.435 0zm41.398 2.43c0.134 0.949 0.488 1.677 0.812 2.436h2.435c1.51-2.77-1.71-4.74-3.25-2.44zm112.42 10.56c0.96-16.467-25.118-13.661-18.669 3.246 4.47 6.82 18.14 5.85 18.67-3.25zm-85.23-7.72c2.609 0.581 3.374-1.459 2.435-3.247-2.72-0.92-3.57 1.62-2.44 3.25zm30.03 1.63c1.53-0.312 1.94 0.495 3.247 0.405 3.95-4.77-6.3-7.06-3.25-0.41zm32.88-2.84c0.783 0.483 2.057 1.547 2.841 0.812 0.293-1.24-0.415-1.479-0.406-2.436-1.49-0.13-2.08 0.63-2.43 1.63zm32.06 2.03c-0.833 0.79-2.68 0.566-2.841 2.029 0.148 4.051-0.238 9.373 0.812 14.204 0.155 0.716 1.144 1.611 1.218 2.436 0.026 0.298-0.797 1.516-0.812 2.028-0.069 2.373 0.443 4.637 1.217 6.494 1.869 1.108 4.096 0.693 5.683-0.406 0.264-10.457 1.279-25.055-4.87-30.438-0.69 0.68-0.33 2.38-0.41 3.66zm-140.83 1.62c0.083 5.067 0.946 13.812 0.812 21.51 1.587 0.479 4.636 0.071 6.493-0.406-1.16-8.866 1.377-20.942-4.87-25.974 0.435 2.87-1.721 3.15-2.435 4.87zm-19.481-1.22h2.029c0.559-0.522 0.402-1.763 0.406-2.841-2.469-1.39-4.102 0.98-2.435 2.84zm44.241-2.84c0.133 1.49 1.137 2.11 2.435 2.436 0.085-0.456 0.45-0.632 0.812-0.812 0.13-1.71-1.98-2.61-3.25-1.63zm17.04 4.06c1.403 0.321 1.713-0.451 2.435-0.812 0.062-1.01-0.638-1.257-0.812-2.029h-1.623c-0.59 0.54-0.59 2.3-0.01 2.84zm63.31-0.81c0.559 1.064 1.489 1.757 3.246 1.623 2.06-3.29-2.64-4.83-3.25-1.62zm59.66-0.81c0.374-1.592-2.141-0.295-2.435-1.218-0.24 1.45 1.2 1.23 2.43 1.22zm-131.49 2.02v-2.029c-0.656-0.697-1.697-1.009-3.247-0.812-1.4 2.38 1.7 4.52 3.25 2.84zm49.11 1.22c1.395 0.178 2.274-0.16 3.246-0.405 0.6-5.22-6.33-3.49-3.25 0.4zm-44.65 0c0.579-0.097 0.685-0.668 1.217-0.812 0.032-1.79-0.863-2.653-2.435-2.841-0.59 1.32-0.59 3.62 1.22 3.65zm-21.1-1.22c0.93 1.149 1.534 1.723 3.247 1.217 1.84-3-3.13-4.62-3.25-1.22zm5.28 0h1.218c0.114-1.062-0.148-1.746-1.218-1.624v1.62zm68.99 2.85c0.787-0.985 1.333-2.454 0.812-3.653-4.3-2.83-5.39 3.65-0.81 3.65zm-105.12-0.41c1.315-0.457 1.418-2.367 0.812-3.652-3.496-1.05-3.634 3.8-0.812 3.65zm114.44 0c2.801 1.204 4.688-1.524 2.841-3.652-3.1-0.88-3.76 1.71-2.84 3.65zm-3.24 0.81c0.462-0.89 1.047-1.658 0.812-3.246-3.61-3.51-6.17 4.03-0.81 3.25zm-107.55 1.63c1.457 0.238 1.963-0.472 2.841-0.812-0.134-0.948-0.488-1.676-0.812-2.435-2.858-0.66-3.388 1.84-2.029 3.24zm27.592-1.63c-3.663-5.11-4.211 4.25 0 0zm4.06-0.81c-0.18 1.804 0.227 3.021 2.029 2.841 1.045-0.308 1.41-1.295 1.217-2.841-1.1-0.88-1.98-0.69-3.25 0zm-27.188 1.62c-0.343 1.695 0.789 1.917 0.812 3.247 1.481 0.264 2.162-0.273 2.841-0.812 0.278-2.82-1.881-3.78-3.653-2.44zm-59.659 4.06c0.702 7.823 0.662 14.547 2.029 21.104 1.491-0.132 3.593 0.346 4.464-0.406 1.267-6.299-0.742-14.526-0.406-20.698-2.158-0.886-2-3.112-2.841-4.464 0.101 2.68-2.598 2.55-3.246 4.47zm74.675-4.06c-0.161 1.784 0.499 2.749 2.029 2.842 0.944-0.409 1.309-1.397 1.217-2.842-1.329-0.66-1.55 0.09-3.246 0zm66.962 2.84c0.773 0.76 1.021 0.044 2.029 0-0.049-1.033-0.59-1.574-1.623-1.624 0.09 0.77-0.46 0.9-0.41 1.62zm-51.54 3.25c0.161-1.783-0.499-2.748-2.029-2.841-1.5 1.57-0.26 3.92 2.03 2.84zm29.22-0.81c-0.317 2.762 2.838 2.112 2.435-0.406-0.99-0.05-1.95-0.06-2.43 0.41zm-75.892 2.84c0.664-0.657 0.489-2.549-0.812-2.435-0.872 0.87-0.15 2.22 0.812 2.44zm94.972 1.22c1.141-1.438-0.175-3.13-2.029-2.841-0.94 1.65 0.27 2.74 2.03 2.84zm-59.663-0.41c-0.807 1.398-3.601 4.355-0.812 5.682 1.505-0.95 4.755-5.18 0.812-5.68zm101.05 4.06c-1.551 2.593 5.201 4.503 4.87 0.406-0.23-1.59-4.46-2.62-4.87-0.41zm-125.81 5.68c0.55-0.938 1.632-1.345 1.218-3.246-0.519-0.022-0.562-0.521-1.218-0.406-0.465 0.52-0.815 3.21 0 3.66zm46.67 0.41h2.029c0.8-0.848 0.31-2.695 0-3.652-2.42-0.63-2.91 2.26-2.03 3.65zm155.44 0.4c-0.221 8.222-0.83 15.656-0.812 23.538 2.374 0.666 4.318 0.872 6.493 0 1.589-6.683 1.538-14.824 1.624-23.538-1.312-1.124-1.873-2.998-3.247-4.059-0.33 2.37-3.81 1.59-4.05 4.06zm-75.49-1.21c-0.806 4.428 5.444 3.817 4.87 0-1.18-1.15-3.58-0.87-4.87 0zm-116.07 1.21c-0.293 1.239 0.415 1.479 0.406 2.435 4.033 0.126 7.77-2.168 10.552 0.406 0.063-2.187 0.277-1.701 0.406-3.653-2.379-0.55-8.324 0.67-11.364 0.8zm-32.873 4.87c2.578 0.731 4.096-2.875 4.464-5.683-3.763-0.38-3.321 3.45-4.464 5.68zm171.67-1.62c0.527 4.787 8.66 2.401 11.364 2.029-0.199-1.281 0.731-1.433 0.405-2.841-4.31 1.74-7.77 0.95-11.76 0.81zm-192.78 2.03c0.62-0.582 0.396-2.115-0.812-2.029-0.845 0.81-0.013 1.73 0.812 2.03zm-11.769 3.65c0.473 0.068 0.44 0.642 0.406 1.218 3.091-0.776 9.184 0.815 11.363-2.435-3.873-1.22-8.966-0.26-11.769 1.21zm220.78 2.03c-0.333-1.696-1.43-2.629-2.436-3.652-1.77 1.15-0.25 4.42 2.44 3.65zm25.56-1.22c0.06-1.142-0.993-1.171-2.028-1.218-0.18 1.27 0.87 1.3 2.03 1.22zm4.87 0c0.541 0.578 2.299 0.578 2.841 0 0.05-2.17-2.25-0.67-2.84 0zm-3.65 3.66c-1.569-0.73-3.132-1.468-4.87-2.029 0.05 2.16 3.81 3.37 4.87 2.03zm1.22 0.81c2.396-0.231 3.286 1.043 5.682 0.812 0.94-4.12-4.21-1.4-5.68-0.81zm0.4 2.84c0.4 1.404 4.239 2.618 4.87 1.218-0.8-1.1-3.87-1.6-4.87-1.22zm-258.52 2.03c-1.766 0.007-2.263-1.255-4.464-0.812-0.905 1.665-0.87 4.271-0.812 6.899 1.309 1.198 5.164 1.095 6.088-0.406-1.025-0.868-4.112 0.324-4.464-1.218 0.795-3.533 6.735-1.922 6.899-6.087-1.615 0.296-1.632 0.296-3.247 0-0.557 0.93 1.046 1.53 0 1.63zm231.74 0.81c0.855-0.849-0.534-1.525-1.218-2.029-0.19 1.28 0.51 1.66 1.22 2.03zm12.17 2.03c-0.334-1.966-1.747-2.853-3.247-3.652-0.2 2.36 1.77 4.28 3.25 3.65zm-228.08 1.22c0.679-0.675 1.643-1.062 1.624-2.436-1.803-0.47-3.144 2.06-1.624 2.44zm47.484 2.84v1.218c1.281-0.072 2.42-0.285 2.435-1.624-1.001-0.06-1.956-0.07-2.435 0.4zm200.9 0c-0.062 1.01 0.638 1.256 0.812 2.029 2.966-0.038 8.755 2.428 10.146-1.624-3.53-1.04-7.16 0.08-10.96-0.41zm2.43 6.08c0.522 0.745 1.819 1.785 2.841 0.812-0.04-1.21-2.72-2.11-2.84-0.81zm-188.31 12.18c-0.462-7.077-9.845-8.154-12.987-2.435 0.106 4.77-0.296 7.116 2.841 9.74-0.953-3.215-3.565-7.659 0.406-9.335-0.032 1.758-0.852 2.688 0.812 3.247 0.959-1.979 1.188-3.879 0.812-5.276 2.646-0.211 4.253 0.617 5.682 1.624 1.729 2.919-0.833 6.471-1.217 9.74-1.167-0.084-2.062 0.103-2.435 0.812 1.011 0.341 2.174 0.531 3.652 0.405 1.186-2.82 2.629-5.52 2.434-8.5zm159.9 3.65c-0.152-0.134-0.631 0.104-0.812 0-7.032 5.455-14.236 10.805-21.104 15.828-2.799 2.047-7.526 3.897-7.711 8.117 10.261-7.19 18.948-15.954 30.438-21.916 1.641 1.2 2.999 2.683 4.058 4.465 1.433 0.056 1.815 1.161 3.247 1.218 3.49 4.268 8.537 7.318 12.987 10.957 3.305 2.703 5.419 7.551 9.74 8.117-8.72-10.26-20.57-17.76-30.86-26.79zm13.39 5.28c-0.104 3.486 2.03 4.733 4.464 5.682 0.107-2.407-0.037-4.562-0.812-6.088-1.4-0.75-2.15 0.2-3.65 0.41zm14.62 25.16c-1.756-4.196-6.137-5.769-8.117-9.74-0.774-0.762-0.734 0.241-2.029 0-4.928-5.488-11.105-9.728-16.64-14.61-1.787 0.463-1.302 0.676-3.652 0.406-6.605 4.897-13.204 11.239-19.887 15.828-1.745 1.198-4.196 1.848-5.275 2.841-2.029 1.867-0.721 3.097-0.406 5.682 0.688 5.649-1.209 12.042 2.029 13.393 3.393-3.579 5.478-5.644 4.059-12.581 1.407 0.325 1.56-0.604 2.841-0.406 0.371 0.712 0.14 2.025 0.812 2.436 0.016-1.337-0.166-2.872 1.218-2.841 3.857 3.241 1.848 10.18 3.246 15.422-0.806 1.274-1.919-0.111-2.435 1.623 0.658 0.61 2.995 0.61 3.652 0 0.184-3.7 0.067-7.102-1.218-9.334 0.855-3.937 7.943-2.188 9.74-2.029-0.535-0.694 0.354-3.417 0-5.276 1.05-1.385 4.25-0.62 6.494-0.812 0.256 6.117 1.183 12.328 0.812 16.64-2.445-0.344-3.642-0.344-6.088 0-1.073-1.765-1.785-8.337 0.812-8.929-0.519-0.562-1.916-0.248-2.435-0.812-1.199 3.568-2.371 9.22-1.218 13.799 1.283-1.152 0.865-4.005 4.059-3.247 2.354 2.949 2.896 9.785 2.436 14.205-1.777-0.388-3.624-0.705-5.683-0.812-2.195 2.425-1.225 9.429-0.405 12.581 1.016 0.588 1.594 0.982 2.841 0.405-0.516 2.545 1.414 2.645 2.029 4.059h4.059c0.033-7.204-0.63-13.71-0.812-20.698 1.24-1.194 4.138-0.732 6.494-0.812 1.815 6.431-0.211 13.917 1.218 20.293 6.079 3.269 11.938 0.926 17.856 0.812 0.65-18.63-1.03-30.13-0.41-47.48zm-123.38-22.32c-17.113-0.604-34.086 1.128-51.542 1.218-0.846 3.077-0.209 7.638-0.406 11.363 22.661 0.997 50.692-0.84 75.081 0 2.402-3.069 8.383-10.347 11.77-2.841 2.566-2.842 8.128-4.405 12.176-4.464 0.812-1.789 0.298-4.634 0-5.682-16.06-0.64-30.09 1-47.08 0.4zm-72.648-0.41c1.246 2.269-1.159 1.749-1.218 3.246-0.228 5.759 8.235 5.354 6.899-2.029-2.529 0.307-1.311-1.022-2.435-1.623-1.504-0.29-1.741 0.69-3.246 0.4zm-19.075 10.15c0.269-0.921 1.049-3.403-0.406-3.652-1.407 0.52-1.862 3.73 0.406 3.65zm4.871 6.09c2.086 0.484 4.298 0.843 3.652 4.059 4.56-0.521 2.592 5.496 0 5.682-1.404-0.3-1.38-2.026-0.812-3.247-2.706 0.812-1.308-2.479-2.841-2.841-0.935 0.824-1.567 1.95-2.435 2.841-0.994 5.099 2.485 9.618 2.841 14.205 0.124 1.596-0.642 3.388-0.406 4.87 0.497 3.112 3.301 5.926 5.276 7.711 0.029-1.189 0.147-2.288 1.624-2.029 1.132 4.414 2.069 9.023 2.841 13.799 1.194 1.199 2.269 2.574 2.841 4.87 0.871 3.492-0.881 8.235 1.218 10.146 2.218-8.025-1.624-17.238-1.624-26.785 2.551-2.565 6.573 0.713 10.958 0 0.68-0.674 0.323-2.383 0.406-3.652-3.686-2.267-7.076-4.829-7.305-10.553-3.19 2.03-9.104 1.821-9.74-3.652 0.121-0.826 0.812-1.081 1.217-1.623-1.274-0.62-3.386-0.401-3.247-2.436 0.99-1.039 1.938-2.12 4.058-2.029 0.805 0.799 0.259 2.318 0 3.247 1.2 0.061 2.865-1.18 3.247 0.406 0.188 2.082-1.294 2.493-1.624 4.058 2.124 0.917 4.757-0.103 6.088-1.217 0.812-2.783 0.135-6.29-2.029-7.306-0.438-4.026-0.852-8.076-4.059-9.334-0.316-0.899-1.963 1.339-2.841 0 1.538-5.645-4.155-7.075-8.117-8.522-1.152 4.04 1.388 6.23 0.813 9.32zm-14.205-0.81c-1.038 1.396-1.626 3.243-2.435 4.87 0.698-0.022 1.041 0.312 1.218 0.812 2.902-2.645 6.094-4.999 7.711-8.929-1.08-1.148-2.409-3.069-4.464-2.029-0.531 2.967 1.953 2.917 1.624 5.682-1.48 0.13-2.643-0.06-3.654-0.4zm32.467-4.47c0.123-1.475-2.164-0.542-2.841-1.217-0.264 1.62 1.543 1.17 2.841 1.22zm99.03-1.22c-1.312 2.476-3.844 3.732-4.465 6.899 1.469 0.561 1.493 2.565 2.841 3.246 1.027-3.167 6.771-1.616 6.899-5.682-2.73-0.53-2.49-4.02-5.28-4.47zm28.81 8.12c0.652 0.954 1.788-2.495 3.247-0.812 0.98-2.961-1.111-3.964-1.623-6.493-6-0.79-4.68 5.81-1.63 7.3zm-20.29-4.06c2.862 0.383 6.836-1.029 10.146-0.812 1.857 0.123 3.781 1.58 4.87 0.406-3.6-1.91-11.85-1.7-15.02 0.4zm-108.36 9.34c1.431-3.98 5.897-4.926 6.088-10.146-3.672 1.18-8.648 6.7-6.088 10.15zm-26.786-2.03c4.356 1.197 7.581-2.124 8.117-6.088-3.66-1.41-5.857 3.62-8.117 6.09zm35.309 4.06c0.397-2.243 1.202-8.173-0.406-9.74 0.267 3.11-0.537 7.3 0.406 9.74zm101.46-7.31c0.928 0.561 2.532 0.444 2.436 2.029-1.799 3.626-6.715 2.023-4.059-2.435-4.766 0.352-2.445 7.41-0.812 9.334 1.656 1.591 5.488 1.005 5.682 4.059-1.529 0.312-1.939-0.495-3.247-0.406-5.375 3.986-7.908 12.89-8.116 20.698 5.777-2.8 2.906-12.168 6.493-16.233-0.08 1.162-0.051 2.215 1.218 2.029 3.796-2.877 10.675 0.29 13.799-2.029 0.834 0.384 0.344 2.091 1.623 2.029 1.735-2.01-1.357-4.75-2.841-6.088-2.235-0.363-6.597 1.863-7.306-0.812 6.603-0.123 11.77-6.46 8.117-12.987-3.92-0.85-10.17-2.23-12.98 0.81zm20.7 5.28c-3.389 0.398-5.269 2.307-6.087 5.275 4.012 3.2 2.071 14.376 10.552 11.77 0.22-5.631 0.292-12.776-0.406-19.886-2.9-1.5-4.53 0.73-4.05 2.84zm-156.66 1.62c0.849 0.233 1.159 1.007 2.435 0.812-0.077-1.11-2.265-2.19-2.435-0.81zm34.091 4.46c-3.368-0.107-5.921-1.963-7.711-1.218 0.611 6.018 0.566 12.691 5.682 14.204 0.433-1.325 0.827-2.69 2.435-2.841 1.714 0.314 2.449 1.609 2.841 3.247 5.02-2.016 6.084-7.985 7.305-13.799-3.301-1.04-7.121 0.53-10.554 0.41zm137.98 1.63c1.037-0.046 1.421-0.744 2.029-1.218-1.009 0.062-1.256-0.638-2.029-0.812-0.04 1.01-0.76 1.26 0 2.03zm-177.35 0c0.316 0.09 0.472 0.34 0.406 0.812 0.707-0.03 1.262 0.091 1.624 0.406-0.11-1.683 0.533-1.582 0-2.841-1.191 0.02-1.508 0.92-2.03 1.62zm125 0c0.316 0.09 0.472 0.34 0.406 0.812h2.029c0.174-1.57 0.444-1.443-0.406-2.435-1.32-0.1-1.96 0.49-2.03 1.63zm-64.12 23.13c0.555-2.609 5.729-5.229 6.899-8.522 3.553-9.996-3.205-18.085-15.422-15.017-1.298 5.195-1.864 11.123-6.088 13.394-1.56 1.146-4.983 0.428-4.058 4.059 3.692 0.67 5.651-1.291 8.928-2.436-1.451 7.273 6.047 9.576 6.899 13.393 1.826 8.17-9.05 10.206-9.334 17.046h1.624c3.548-5.787 7.92-10.749 12.581-15.422-0.21-1.7-2.7-3.35-2.03-6.49zm133.92-23.13c0.618 0.625 2.782 0.723 2.435-0.812-1.16-0.09-2.05 0.1-2.43 0.81zm-125.81 1.62c1.747 5.304 10.314 8.064 7.305 15.423-1.719-1.48 0.055-4.844-2.029-5.276 3.32 5.031-3.879 15.792 4.059 15.828 7.31-8.1 2.13-27.13-9.33-25.97zm-63.31 3.65c2.843-0.273 3.252 1.889 5.276 2.435-0.019-2.23-0.876-3.568 0-6.088-2.279 0.7-5.178 0.77-5.276 3.65zm-34.09 21.51c0.3 7.383 5.278 18.873 11.77 18.668 0.216 2.57 4.169 3.298 5.682 3.247-2.515-5.502-4.85-11.152-4.87-17.451-0.042-12.854 7.893-21.295 15.016-27.191-16.28-5.32-28.225 7.3-27.598 22.72zm215.5-17.85c0.296-1.759 0.229-2.586 0-4.87h-1.218c0.15 1.88-0.5 4.56 1.22 4.87zm-25.16 10.96c-0.199-6.023-2.566-9.88-5.275-13.394-0.43 3.51 1.09 11.82 5.28 13.39zm-156.66-3.25h2.841c0.082-4.546-1.08-7.849-4.059-9.334 0.449 2.28 0.37 6.36 1.218 9.33zm35.308 1.62c-0.164-2.271 0.327-5.197-1.217-6.088 1.03 2.52-1.137 4.51 1.217 6.09zm140.43-5.27c0.43 8.298-1.017 16.259 1.623 21.915 3.706-0.444 2.153-5.32 2.029-8.522-0.184-4.749 0.439-10.441-0.406-14.205-1.38-0.04-2.83-0.14-3.24 0.8zm13.39 4.05c-0.296-0.923 0.731-3.167-0.812-2.842 0.07 1.15-0.35 2.79 0.81 2.84zm-38.15-0.4c-3.611-1.936-8.754-2.339-14.61-2.029-0.938 1.092-1.891 2.168-3.247 2.841-0.665 2.717-3.109 3.654-3.652 6.493-1.322 1.182-4.58 3.133-2.841 4.87 2.09-0.21 1.408-3.191 3.247-3.652 1.24 1.084-0.126 2.266 0.812 3.652 9.969 0.468 17.893-1.229 25.974-0.812 0.81-5.14-4.03-7.4-5.68-11.36zm-151.38 6.49c2.544 2.19 4.461 5.009 6.088 8.117 2.567-0.132 5.111 0.452 6.899 0.406-0.078-2.358-1.161-3.71-2.029-5.276-1.866-0.242-1.419 1.828-3.247 1.623-2.072-1.174-3.168-3.325-3.652-6.087 0.936-2.041 4.398-1.555 7.305-1.624-0.732-7.04-10.939-1.48-11.364 2.84zm160.31-4.06c3.029-0.316 9.463 0.813 11.363-1.217-4.56 0.17-7.64-0.14-11.36 1.22zm-122.97 2.44c0.626 2.332 1.754 2.991 1.623 5.276-0.715 0.367-0.67 1.493-1.623 1.623-2.262 0.586-3.874-1.006-4.87-0.406 0.471 7.748-0.886 19.145 7.305 17.857 2.891-9.34 4.286-17.37 3.247-26.786-2.398 0.31-4.518 0.9-5.683 2.44zm25.163 2.84c7.842 1.521 6.928 13.189 6.494 20.698 4.847-2.54 1.252-8.029 2.029-14.61-3.855-1.827-3.455-7.909-6.494-10.552-0.78 1.38-1.9 2.43-2.03 4.46zm96.18-2.44c0.05 2.354 3.657 2.104 6.087 2.028 3.135-0.097 7.859 0.162 9.335-1.623-3.5-1.64-11.22-0.75-15.42-0.41zm-131.08 1.22c-0.31 6.391 0.262 15.275 0.812 23.134h3.247c-2.516-4.354-2.062-17.013-2.029-23.945-0.09-0.316-0.34-0.472-0.812-0.405-0.228 0.59-0.634 0.99-1.218 1.22zm-13.799 16.24c4.841-3.046 3.927-12.871-0.812-15.828 1.667 4.69 2.664 10.67 0.812 15.83zm-23.945 10.14c3.604 0.145 9.408-2.041 12.175-5.682 4.831-6.355 2.553-12.834-2.841-16.64-0.807 8.7-4.462 16.51-9.334 22.32zm35.308-17.04c0.021-1.866 0.806-2.053-0.406-3.247 0.248 0.97-0.509 2.94 0.406 3.25zm120.94 0c-2.811-0.389-3.8 1.22-7.305 0-0.189 1.247-1.015 3.334-0.812 6.088 1.067 0.556 1.538 1.708 2.841 2.028 1.649-0.784 0.087-4.782 1.218-6.087 3.025-0.186 0.782 4.898 2.029 6.493 5.66 0.49 2.98-5.74 2.02-8.52zm-54.38 5.27c-6.367 0.297-12.767-0.168-18.668 1.624-0.119 2.147 1.05 3.008 0.812 5.275 2.134 0.978 5.546 0.677 6.494 2.841-0.594 0.008-1.287-1.711-1.218 0 2.903 2.796 7.946 1.624 12.176 1.624 15.935 0 33.721 1.043 46.266-0.406 1.019-3.875-0.896-7.923-2.435-10.552-13.44-1.28-28.17-1.1-43.42-0.39zm-42.21 7.31c5.255 0.293 10.469 1.325 16.64 0.405 0.51-2.088 1.864-2.87 1.623-6.493-5.42-2.02-20.43-3.53-18.26 6.09zm-35.307 1.22c4.298 0.331 6.371-3.581 4.87-7.711h-1.217c-0.676 3.11-3.036 4.53-3.653 7.71zm173.7-2.85c0.176-1.528-0.857-1.848-1.624-2.435-0.16 1.51 0.32 2.38 1.62 2.43zm-37.33-0.81c-0.553 1.071-0.479 2.768-0.812 4.059 0.993 1.441 2.586 2.284 4.87 2.436 0.653-1.499 0.653-5.4 0-6.899-0.81-0.6-2.96 0.05-4.06 0.4zm45.05 1.22c2.076-0.247 2.222-0.495 4.059 0-0.26-1.37-4.04-1.87-4.06 0zm4.87 0c1.313-0.175 3.51 0.534 3.652-0.812-0.78-0.1-3.32-0.63-3.65 0.81zm8.52 0.41c-0.506 2.199 0.033 3.123 1.218 4.464 2.846-0.059 5.574-0.708 9.334-0.812-0.603-1.48 0.61-3.274-0.405-4.87-3.83 0.19-7.14-0.38-10.15 1.22zm-11.37 4.87c2.922-0.377 6.682-0.073 10.146-0.812 0.66-2.94-10.05-2.8-10.15 0.81zm-33.68 0c1.069 0.122 1.332-0.562 1.218-1.624-0.549-0.127-0.775-0.577-1.623-0.405-0.34 1.13 0.57 1.04 0.4 2.02zm10.96 0c0.114-1.062-0.148-1.746-1.218-1.624-0.6 0.55-0.21 1.92 1.22 1.62z"/>
	<path d="m89.38 221.61c0.242 0.065-5.5 2.624-3.652 5.682-0.958 0.231-3.048-1.005-4.464 0.406-0.09 1.211 1.499 1.38 0.406 2.435-3.808-1.663-1.098-7.505-2.435-11.364-1.137-1.298-2.595-2.275-3.247-4.059 2.718-1.341 5.12-2.997 6.494-5.682 0.75 0.061 0.249 1.374 0.812 1.624 1.842 0.218 1.083-2.163 2.841-2.029-0.245 2.41 0.28 4.049 0.812 5.682-1.766 0.805-2.057 3.084-4.059 3.653-0.302 1.249 1.114 0.78 0.812 2.029-1.49-0.002-1.555 1.421-2.435 2.029 1.786 2.669 5.814-0.969 6.899-2.841 0.936 0.32-1.037 2.72 1.216 2.43z" fill="#fff"/>
	<path d="m55.696 407.89c0.329-2.765-2.155-2.715-1.624-5.682 2.056-1.04 3.385 0.881 4.464 2.029-1.617 3.93-4.809 6.284-7.711 8.929-0.177-0.499-0.52-0.834-1.218-0.812 0.809-1.627 1.397-3.474 2.435-4.87 1.012 0.34 2.175 0.53 3.654 0.4z" fill="#fff"/>
	<path d="m88.975 307.65c6.247 5.031 3.71 17.107 4.87 25.974-1.857 0.478-4.906 0.885-6.493 0.406 0.134-7.697-0.729-16.442-0.812-21.51 0.714-1.72 2.87-2 2.435-4.87z" fill="#fff"/>
	<path d="m276.88 462.28c-5.919 0.114-11.777 2.457-17.856-0.812-1.429-6.376 0.598-13.862-1.218-20.293-2.356 0.079-5.254-0.383-6.494 0.812 0.183 6.988 0.846 13.494 0.812 20.698h-4.059c-0.615-1.414-2.545-1.514-2.029-4.059-1.247 0.577-1.825 0.183-2.841-0.405-0.819-3.152-1.79-10.156 0.405-12.581 2.059 0.106 3.905 0.424 5.683 0.812 0.46-4.42-0.082-11.256-2.436-14.205-3.193-0.758-2.775 2.095-4.059 3.247-1.153-4.579 0.019-10.23 1.218-13.799 0.519 0.563 1.916 0.249 2.435 0.812-2.597 0.592-1.885 7.164-0.812 8.929 2.446-0.344 3.643-0.344 6.088 0 0.371-4.312-0.556-10.522-0.812-16.64-2.244 0.191-5.444-0.573-6.494 0.812 0.354 1.859-0.535 4.582 0 5.276-1.797-0.159-8.885-1.907-9.74 2.029 1.285 2.232 1.401 5.634 1.218 9.334-0.657 0.61-2.994 0.61-3.652 0 0.516-1.734 1.629-0.349 2.435-1.623-1.398-5.242 0.611-12.181-3.246-15.422-1.384-0.031-1.202 1.504-1.218 2.841-0.672-0.41-0.44-1.724-0.812-2.436-1.281-0.198-1.434 0.731-2.841 0.406 1.419 6.938-0.666 9.002-4.059 12.581-3.238-1.351-1.341-7.743-2.029-13.393-0.314-2.585-1.623-3.814 0.406-5.682 1.079-0.993 3.53-1.643 5.275-2.841 6.683-4.589 13.281-10.931 19.887-15.828 2.351 0.27 1.865 0.057 3.652-0.406 5.534 4.883 11.712 9.122 16.64 14.61 1.295 0.241 1.255-0.762 2.029 0 1.98 3.972 6.361 5.544 8.117 9.74-0.63 17.35 1.05 28.85 0.39 47.49zm-31.25-56.82c2.276-0.25 4.41 0.422 5.682 0 0.015-3.636 0.612-6.553-0.812-9.335-6.99-2.79-5.88 6.28-4.87 9.34zm28.82 10.96c-0.029-1.189-0.147-2.288-1.624-2.029 0.25 0.96 0.54 1.88 1.62 2.03zm-11.37-1.22c0.343 4.972-0.854 11.513 0.812 15.422 1.826 0.811 4.362 0.097 6.087-0.405-0.249-6.014-0.315-9.704-1.623-14.611-1.49-0.31-3.61-1.57-5.28-0.41zm0.81 25.57c-0.869 2.673-0.205 7.185 0 8.929-1.25 0.521-3.396 2.267-2.029 4.058 0.433-0.378 0.126-1.497 1.217-1.217 0.896 0.321 0.527 1.907 1.624 2.029 0.549-0.38 3.867-0.096 5.275-0.812-0.366-5.629 0.487-9.541-0.812-13.393-2.42 0.35-2.92 0.1-5.28 0.4z" fill="#fff"/>
	<path d="m179.48 421.28c0.851 0.991 0.58 0.864 0.406 2.435h-2.029c0.065-0.472-0.09-0.722-0.406-0.812 0.07-1.14 0.71-1.73 2.03-1.63z" fill="#fff"/>
	<path d="m268.36 415.6c1.308 4.907 1.374 8.598 1.623 14.611-1.725 0.502-4.261 1.216-6.087 0.405-1.667-3.909-0.47-10.45-0.812-15.422 1.67-1.16 3.79 0.1 5.28 0.4z"/>
	<path d="m269.17 440.36c1.299 3.852 0.445 7.764 0.812 13.393-1.408 0.717-4.727 0.433-5.275 0.812-1.097-0.122-0.729-1.708-1.624-2.029-1.091-0.28-0.784 0.839-1.217 1.217-1.367-1.791 0.779-3.536 2.029-4.058-0.205-1.744-0.869-6.256 0-8.929 2.36-0.29 2.86-0.04 5.28-0.4z"/>
	<path d="m51.637 426.97c-7.123 5.896-15.058 14.338-15.016 27.191 0.02 6.299 2.355 11.949 4.87 17.451-1.513 0.051-5.466-0.677-5.682-3.247-6.491 0.205-11.469-11.285-11.77-18.668-0.626-15.42 11.319-28.04 27.598-22.72z" fill="#fff"/>
</g>
<metadata><rdf:RDF><cc:Work><dc:format>image/svg+xml</dc:format><dc:type rdf:resource="http://purl.org/dc/dcmitype/StillImage"/><cc:license rdf:resource="http://creativecommons.org/licenses/publicdomain/"/><dc:publisher><cc:Agent rdf:about="http://openclipart.org/"><dc:title>Openclipart</dc:title></cc:Agent></dc:publisher></cc:Work><cc:License rdf:about="http://creativecommons.org/licenses/publicdomain/"><cc:permits rdf:resource="http://creativecommons.org/ns#Reproduction"/><cc:permits rdf:resource="http://creativecommons.org/ns#Distribution"/><cc:permits rdf:resource="http://creativecommons.org/ns#DerivativeWorks"/></cc:License></rdf:RDF></metadata></svg>
