<?xml version="1.0" encoding="UTF-8" standalone="no"?>
<!-- Created with Inkscape (http://www.inkscape.org/) -->

<svg
   xmlns:dc="http://purl.org/dc/elements/1.1/"
   xmlns:cc="http://creativecommons.org/ns#"
   xmlns:rdf="http://www.w3.org/1999/02/22-rdf-syntax-ns#"
   xmlns:svg="http://www.w3.org/2000/svg"
   xmlns="http://www.w3.org/2000/svg"
   xmlns:sodipodi="http://sodipodi.sourceforge.net/DTD/sodipodi-0.dtd"
   xmlns:inkscape="http://www.inkscape.org/namespaces/inkscape"
   width="91.407127mm"
   height="104.7777mm"
   viewBox="0 0 323.88352 371.25957"
   id="svg2"
   version="1.1"
   inkscape:version="0.91 r13725"
   sodipodi:docname="bw kiss.svg">
  <defs
     id="defs4" />
  <sodipodi:namedview
     id="base"
     pagecolor="#ffffff"
     bordercolor="#666666"
     borderopacity="1.0"
     inkscape:pageopacity="0.0"
     inkscape:pageshadow="2"
     inkscape:zoom="1.1886792"
     inkscape:cx="172.16884"
     inkscape:cy="157.08797"
     inkscape:document-units="px"
     inkscape:current-layer="layer1"
     showgrid="false"
     fit-margin-top="0"
     fit-margin-left="0"
     fit-margin-right="0"
     fit-margin-bottom="0"
     inkscape:window-width="1366"
     inkscape:window-height="705"
     inkscape:window-x="-8"
     inkscape:window-y="-8"
     inkscape:window-maximized="1" />
  <metadata
     id="metadata7">
    <rdf:RDF>
      <cc:Work
         rdf:about="">
        <dc:format>image/svg+xml</dc:format>
        <dc:type
           rdf:resource="http://purl.org/dc/dcmitype/StillImage" />
        <dc:title></dc:title>
      </cc:Work>
    </rdf:RDF>
  </metadata>
  <g
     inkscape:label="Layer 1"
     inkscape:groupmode="layer"
     id="layer1"
     transform="translate(-729.25973,-108.19059)">
    <path
       style="fill:#000000"
       d="m 917.43359,108.19922 c -2.92963,0.0871 -5.97642,0.8122 -11.75,2.34766 -5.16307,1.37308 -12.10401,2.59497 -15.42578,2.71484 -6.87075,0.24794 -17.02128,2.62863 -17.51953,4.10937 -0.18334,0.54484 -1.28516,0.99024 -2.44726,0.99024 -1.16211,0 -3.71146,1.05292 -5.66602,2.33984 -7.10823,4.68019 -9.61624,6.19104 -12.88477,7.75781 -1.83232,0.87833 -3.8709,2.67745 -4.52929,3.99805 -0.6584,1.3206 -2.6283,3.30127 -4.37891,4.40235 -1.75061,1.10107 -3.20145,2.48841 -3.22265,3.08203 -0.0212,0.59362 -2.07664,4.64362 -4.56836,9 -2.49171,4.35638 -4.78116,9.04492 -5.0879,10.41992 -0.30673,1.375 -2.03863,7 -3.84765,12.5 l -3.28906,10 1.75976,15.53711 c 1.48065,13.08454 2.25078,16.59336 4.88086,22.21875 3.28633,7.029 5.43928,8.99602 8.86719,8.09961 1.46606,-0.38339 2.50122,0.14576 3.51758,1.80078 0.79186,1.28943 2.65817,4.36875 4.14843,6.84375 1.49026,2.475 4.48189,7.32909 6.64649,10.78515 2.16459,3.45606 3.93555,6.70825 3.93555,7.22852 0,0.52026 1.6875,1.84112 3.75,2.93359 7.66013,4.05744 7.65275,4.04518 12.92968,24.3086 0.90914,3.49108 -2.54851,3.02825 -6.18554,-0.82813 -3.72363,-3.9482 -5.07317,-3.81251 -5.66016,0.57227 -0.34683,2.59079 -1.28016,2.73534 -12.33398,1.88867 -1.1,-0.0843 -4.475,0.59419 -7.5,1.50781 -3.025,0.91363 -10.76045,3.02916 -17.18946,4.70313 l -11.68945,3.04492 -6.29688,-3.07227 c -11.29126,-5.50865 -21.81495,-3.66984 -31.32421,5.47266 -3.3,3.17272 -7.96331,7.6118 -10.36133,9.86328 -2.39802,2.25147 -5.48323,6.4865 -6.85547,9.41211 -1.59704,3.40488 -3.44563,5.73578 -5.13867,6.47852 -1.45473,0.63819 -2.86953,1.43143 -3.14453,1.76172 -0.275,0.33026 -1.8612,1.1918 -3.52344,1.91406 -3.72754,1.61964 -8.80785,8.18071 -10.47266,13.52539 -0.68527,2.2 -1.64144,4.42867 -2.125,4.95117 -1.20469,1.3017 -1.06586,10.17714 0.23633,15.04883 2.47191,9.24781 1.89936,15.39905 -1.83203,19.67773 -3.32035,3.80735 -3.47098,11.90555 -0.36133,19.32227 0.4612,1.1 1.62139,3.88128 2.57813,6.17969 0.95675,2.29841 3.53429,5.62143 5.72851,7.38476 4.2924,3.44946 7.71265,9.72745 7.74805,14.2207 0.0253,3.20267 1.74918,6.18347 7.64062,13.21485 3.17708,3.79181 4.36652,6.20819 4.91993,10 0.80735,5.53195 3.42456,11.67379 6.60742,15.5 1.91647,2.30385 2.74946,2.50274 10.60742,2.52734 l 8.52734,0.0274 3.60938,4.09375 c 5.5961,6.34801 8.45513,7.72172 17.52539,8.41992 13.89947,1.06994 14.0252,1.05972 17.61914,-1.5918 3.88375,-2.86534 5.87799,-5.95855 5.92969,-9.19141 0.0405,-2.52874 2.70631,-4.28515 6.5039,-4.28515 3.87469,0 2.91238,3.75801 -2.1289,8.3125 -5.88247,5.31446 -6.63901,10.4982 -0.89844,6.15625 1.06762,-0.80751 2.93171,-1.46875 4.14062,-1.46875 1.38477,0 4.36617,-2.25967 8.0586,-6.10938 3.22347,-3.36078 7.65067,-7.25712 9.83984,-8.6582 3.57057,-2.28518 5.38541,-4.09499 9.18945,-9.16992 0.64253,-0.85724 1.5019,-1.22467 1.91016,-0.81641 0.40827,0.40826 -0.0757,1.64468 -1.07422,2.74805 -0.99854,1.10337 -1.30522,2.00586 -0.68359,2.00586 1.70842,0 -0.0652,3.9331 -5.8125,12.89258 -2.75502,4.29483 -5.00781,8.10142 -5.00781,8.45898 0,1.88734 1.82593,0.12826 4,-3.85156 1.35203,-2.475 3.02953,-4.5 3.72851,-4.5 1.64273,0 1.56403,1.02754 -0.26172,3.4414 -1.90187,2.51449 -1.88304,5.5586 0.0332,5.5586 0.825,0 1.5,-0.7216 1.5,-1.60547 0,-2.86178 5.86499,-13.99495 9.48242,-17.99805 6.43998,-7.12659 19.99079,-20.39648 20.82812,-20.39648 0.45396,0 -0.21918,1.38956 -1.49414,3.08789 -1.27495,1.69834 -3.09179,4.27625 -4.03906,5.72656 -0.94727,1.45031 -2.74182,3.40501 -3.98633,4.34375 -1.24451,0.93874 -2.00445,1.9643 -1.68945,2.2793 0.95914,0.95914 6.99256,-2.50061 15.04101,-8.62305 4.20387,-3.19787 8.14137,-5.81445 8.75,-5.81445 2.07134,0 1.11278,2.1861 -3.00195,6.84765 -3.99615,4.5277 -4.0418,4.66177 -1.7168,4.94922 1.31426,0.16248 2.84073,1.28748 3.39258,2.5 0.83306,1.83041 0.43778,2.91012 -2.33008,6.36524 -5.11239,6.38182 -2.07627,6.6529 4.11133,0.36718 5.79238,-5.8842 8.66884,-7.82468 8.61914,-5.81445 -0.0175,0.70685 -0.6925,2.15894 -1.5,3.22656 -3.34084,4.41699 -1.23588,4.60427 3.78125,0.33594 2.8875,-2.45655 6.27799,-5.00973 7.53321,-5.67383 2.11765,-1.12038 2.24,-1.03734 1.68945,1.15625 -0.45193,1.80063 -0.0435,2.65649 1.7168,3.5918 4.87118,2.58818 6.45618,3.79396 11.03515,8.39844 8.12732,8.17259 10.18805,5.63502 4.29883,-5.29492 -3.29665,-6.11833 -4.49202,-10.95508 -2.70898,-10.95508 0.4471,0 2.10474,1.35 3.68554,3 3.2355,3.37714 5.5,3.8787 5.5,1.21679 0,-2.7006 -10.46592,-12.63497 -12.49219,-11.85742 -1.99576,0.76585 -5.80052,-1.075 -4.97656,-2.4082 1.4312,-2.31574 6.45676,-0.73796 13.5625,4.25781 4.07376,2.8641 9.42622,6.23206 11.89453,7.48438 4.45466,2.26011 4.50317,2.26247 6.44532,0.32031 1.07614,-1.07614 1.75617,-2.08493 1.51171,-2.24023 -0.24444,-0.15531 -3.11239,-1.62988 -6.37304,-3.27735 -6.54438,-3.30662 -26.05007,-20.9397 -26.10547,-23.59961 -0.049,-2.35184 -2.97737,-4.89439 -5.64453,-4.90039 -1.27679,-0.003 -4.12227,-1.11374 -6.32227,-2.46875 -5.26189,-3.24089 -7.12799,-3.14596 -8.99219,0.45899 -1.5346,2.9676 -5.24671,4.71124 -7.8789,3.70117 -1.8524,-0.71083 -2.91868,-8.51268 -2.08008,-15.22461 0.57455,-4.59853 0.43202,-5.46289 -0.89844,-5.46289 -0.86902,0 -2.06711,-0.91194 -2.66406,-2.02735 -1.42529,-2.66318 -2.75452,-1.7171 -3.55078,2.52735 -0.35384,1.88611 -1.27159,3.95095 -2.03906,4.58789 -0.76746,0.63694 -1.39649,1.7617 -1.39649,2.5 0,3.24367 -6.5695,4.39661 -10.47461,1.83789 -2.45899,-1.61149 -2.46114,-3.39126 -0.008,-6.42578 1.89089,-2.33883 2.54597,-9.0594 1.29102,-13.24805 -1.27809,-4.2659 -8.26769,-10.035 -13.56836,-11.19922 -1.68983,-0.37115 -3.3319,-1.35363 -3.65039,-2.18359 -0.83264,-2.16982 -5.17328,-1.37247 -4.79493,0.88086 0.20009,1.19169 -0.35822,1.75 -1.75,1.75 -1.15008,0 -2.04296,0.65594 -2.04296,1.5 0,0.825 -0.18992,1.5 -0.41993,1.5 -0.23002,0 -1.11768,0.27078 -1.97461,0.59961 -1.06667,0.40932 -4.18013,-2.11363 -9.87109,-8 -4.57184,-4.72883 -9.09189,-8.59961 -10.04492,-8.59961 -0.95302,0 -2.22331,-1.07409 -2.82227,-2.38867 -1.2662,-2.77901 -3.85332,-4.2169 -9.16992,-5.09375 -2.0914,-0.34492 -4.06751,-1.31621 -4.39062,-2.15821 -0.3231,-0.842 0.15072,-4.18532 1.05273,-7.42968 2.00027,-7.1945 1.99909,-6.92969 0.0352,-6.92969 -1.64982,0 -1.60393,-3.36804 0.14062,-10.25 0.54588,-2.1534 0.34595,-2.75 -0.91992,-2.75 -1.52757,0 -2.11519,-1.25282 -1.64258,-3.5 1.21245,-5.76506 1.57487,-10.65913 0.82422,-11.12305 -0.50196,-0.31023 -0.85641,-3.11011 -0.78711,-6.2207 0.0693,-3.11059 -0.17969,-6.88426 -0.55469,-8.38672 -0.59001,-2.36397 -0.29598,-2.88204 2.18164,-3.83984 1.5747,-0.60875 5.33829,-1.57548 8.36329,-2.14844 3.025,-0.57297 7.70159,-1.92372 10.39453,-3.00196 5.35775,-2.14516 6.64187,-1.85919 13.17382,2.93165 3.86069,2.83159 10.73078,5.28892 14.80665,5.29492 6.05262,0.01 12.78339,-3.31376 19.87695,-9.81446 3.78707,-3.47057 7.41723,-6.13674 8.0664,-5.92382 0.64919,0.21292 1.30955,1.9279 1.4668,3.81054 0.3697,4.42587 2.14884,8.89667 3.58594,9.01367 0.62077,0.0505 2.45533,0.16301 4.07812,0.25 2.65572,0.14232 3.16735,0.75768 5.12305,6.15821 3.21794,8.88612 6.79574,16.9071 7.89258,17.69336 1.49567,1.07215 3.53516,-1.16597 3.53516,-3.88086 0,-2.59849 1.66525,-6.39922 3.26171,-7.44141 0.55594,-0.36292 -0.14249,-2.51485 -1.65039,-5.08789 -3.00183,-5.12223 -3.14022,-5.7832 -1.21093,-5.7832 0.7712,0 1.89981,1.42357 2.50586,3.16211 2.5634,7.35337 9.41544,13.19778 14.79882,12.62304 2.30145,-0.24571 2.76582,0.173 3.36914,3.03321 2.39436,11.35117 -4.2695,39.10602 -11.86328,49.4082 -4.56672,6.19547 -6.59312,9.78666 -5.49609,9.74023 0.43185,-0.0183 2.58516,-1.25592 4.78516,-2.75195 3.24361,-2.20568 5.04004,-4.84166 9.5,-13.9375 4.80839,-9.80645 5.81386,-11.22009 8.00585,-11.24609 1.88979,-0.0224 3.18248,-1.14536 5.24415,-4.5586 3.14191,-5.20164 5.25382,-6.39656 7.44335,-4.20703 1.3855,1.3855 1.30232,1.66568 -0.82812,2.80078 -3.86781,2.06078 -4.80048,4.10292 -4.83398,10.57813 -0.0282,5.45619 0.29998,6.50061 2.93945,9.32617 1.63478,1.75003 3.4569,2.88341 4.04883,2.51758 0.69529,-0.42972 0.73777,-1.07613 0.11914,-1.82617 -1.09495,-1.32752 -1.67305,-8.41977 -0.86914,-10.66211 0.29577,-0.825 0.81219,-2.34154 1.14843,-3.3711 0.48371,-1.48114 1.24311,-1.7459 3.63477,-1.26757 2.13703,0.42741 3.18426,0.18145 3.57617,-0.83985 0.78788,-2.0532 3.94108,-2.8206 6.33203,-1.54101 1.51216,0.80929 2.03907,2.09123 2.03907,4.96679 0,4.1627 4.33818,12.05274 6.62695,12.05274 2.59187,0 3.08831,-3.06708 1.13476,-7.01563 -2.61977,-5.29501 -2.067,-9.38922 1.32227,-9.7832 3.57457,-0.41552 5.55308,2.10676 4.11914,5.25391 -0.87164,1.91305 -0.76961,2.66134 0.50781,3.7207 0.87938,0.72927 2.20985,2.78672 2.95703,4.57422 1.14953,2.75002 1.8729,3.25 4.70899,3.25 1.84345,0 4.49594,0.9 5.89454,2 3.3222,2.6133 3.64,2.54813 4.8769,-1 1.274,-3.65467 2.1747,-3.77746 3.668,-0.5 1.7378,3.8141 3.2465,3.02508 2.8828,-1.50977 -0.387,-4.825 -1.774,-6.40734 -5.791,-6.60937 -1.6624,-0.0836 -3.6039,-0.94614 -4.3145,-1.91797 -0.7106,-0.97178 -1.8116,-1.44581 -2.4472,-1.05274 -0.6364,0.39308 -3.17992,0.87861 -5.65235,1.08008 -3.39974,0.27703 -4.49414,0.0196 -4.49414,-1.06054 0,-0.78552 0.44094,-1.42969 0.98046,-1.42969 0.53952,0 1.2754,-1.2375 1.63672,-2.75 1.39826,-5.85323 5.37317,-7.01798 9.38281,-2.75 1.2918,1.375 3.1383,2.5 4.1054,2.5 0.967,0 2.0455,0.9 2.3946,2 0.3941,1.24157 1.5115,2 2.9492,2 2.6096,0 3.7563,2.70189 2.9277,6.90039 -0.2824,1.43072 -0.084,4.50063 0.4414,6.82226 0.7423,3.27989 0.6462,4.47653 -0.4316,5.3711 -1.8214,1.51158 -1.7511,2.84749 0.2676,5.07812 2.1773,2.40587 6.5369,2.35246 8.0683,-0.0996 0.9951,-1.59346 1.7765,-1.785 4.4903,-1.09765 8.0186,2.03092 8.7871,2.08941 8.7871,0.66797 0,-0.76814 -0.7171,-1.99089 -1.5918,-2.7168 -1.4453,-1.19952 -1.4256,-1.43954 0.209,-2.63477 1.6881,-1.23439 1.698,-1.48557 0.1503,-4.10546 -0.9068,-1.5352 -2.6374,-5.4303 -3.8437,-8.6543 -2.0113,-5.3757 -2.0569,-5.96105 -0.5586,-7.05664 2.2234,-1.62573 2.0975,-2.58383 -1.3906,-10.53125 -2.0109,-4.58156 -2.8179,-7.71963 -2.4063,-9.35938 0.4103,-1.63478 -0.2142,-4.08938 -1.8515,-7.27539 -1.3588,-2.64431 -3.7343,-7.95859 -5.2774,-11.80859 -3.8015,-9.48506 -9.4636,-18 -11.9707,-18 -2.5749,0 -6.4687,-7.61592 -6.4687,-12.65235 0,-2.051 -0.501,-4.03758 -1.1133,-4.41601 -2.07973,-1.28532 -4.7106,-8.9074 -5.41794,-15.69531 -0.38766,-3.72015 -1.10278,-7.00879 -1.5879,-7.3086 -0.48509,-0.29981 -0.88085,-1.49451 -0.88085,-2.65625 0,-1.16173 -0.71964,-2.90675 -1.59766,-3.87695 -1.45014,-1.60237 -1.45677,-2.37681 -0.0703,-8.45508 1.52403,-6.6814 7.04195,-16.4335 9.30085,-16.4375 1.5299,-0.003 7.155,-6.33761 11.6797,-13.1543 3.6391,-5.48256 14.536,-17.73413 25.9121,-29.13281 3.1758,-3.18217 5.7754,-6.16991 5.7754,-6.64062 0,-1.51373 -4.97,-2.15955 -7.2461,-0.94141 -2.1506,1.15092 -2.167,1.11991 -0.6172,-1.22656 0.9996,-1.51364 2.7531,-2.5216 4.7265,-2.71875 4.5735,-0.45692 4.1821,-3.1875 -0.457,-3.1875 -2.7526,0 -3.7166,0.46805 -4.1172,2 -0.6118,2.33923 -2.8253,2.65636 -3.6445,0.52148 -0.4458,-1.16168 -1.8642,-1.37145 -6.6055,-0.97656 -3.3216,0.27667 -6.039,0.28924 -6.039,0.0293 0,-0.25994 1.4625,-1.85159 3.25,-3.53711 4.4535,-4.19944 10.6132,-7.03711 15.2773,-7.03711 3.2314,0 4.6271,0.71849 8.1797,4.20508 3.2468,3.18648 4.5652,3.92309 5.4434,3.04492 0.8781,-0.87817 0.4337,-1.8343 -1.8321,-3.95313 -1.6442,-1.53754 -3.1934,-3.41141 -3.4433,-4.16406 -0.3086,-0.9291 -2.8507,-1.53247 -7.9161,-1.87891 -4.1028,-0.28065 -8.2603,-0.92484 -9.2382,-1.43164 -2.9476,-1.52756 -0.8837,-2.8536 3.83,-2.46093 2.6653,0.22203 4.827,-0.11171 5.4297,-0.83789 1.5061,-1.81476 0.045,-2.61763 -3.539,-1.94532 -2.4112,0.45235 -3.6602,0.11699 -5.0703,-1.35937 -1.7282,-1.80946 -3.1687,-2.4201 -12.0332,-5.09766 -3.8121,-1.15146 -11.265,-0.34987 -13.3379,1.4336 -0.825,0.70983 -2.6681,1.58181 -4.0938,1.9375 -1.4257,0.35569 -5.31101,3.20346 -8.6348,6.32812 -5.27899,4.9627 -6.12841,6.28042 -6.71875,10.42969 -0.37169,2.6125 -1.07725,4.75 -1.56836,4.75 -0.90152,0 -4.16113,-4.14442 -11.48437,-14.60352 -3.80219,-5.43032 -8.51577,-11.51398 -12.31641,-15.89648 -0.95395,-1.1 -3.50234,-4.3625 -5.66406,-7.25 -2.16173,-2.8875 -4.44671,-5.25 -5.07618,-5.25 -0.62945,0 -2.8999,-1.25687 -5.04492,-2.79297 -4.76124,-3.40964 -11.1982,-5.9048 -19.01172,-7.37109 -3.10432,-0.58256 -5.24704,-0.93345 -7.26953,-0.9961 -0.42135,-0.0131 -0.83734,-0.0144 -1.25586,-0.002 z m -10.99414,22.24219 c 0.79787,-0.004 1.13282,0.46845 1.13282,1.41992 0,0.825 -0.7875,1.50567 -1.75,1.51367 -0.9625,0.008 -2.7625,0.28555 -4,0.61719 -3.17597,0.85112 -2.79477,-0.29671 0.69921,-2.10352 1.8582,-0.96092 3.12011,-1.4432 3.91797,-1.44726 z m 4.73828,6.91992 c 0.6385,0 1.37704,1.12896 1.64063,2.50781 0.40456,2.11632 -0.007,2.64803 -2.63477,3.41016 l -3.11132,0.90234 2.75,0.0898 c 3.72401,0.12213 3.48503,1.69284 -0.375,2.46485 -4.3825,0.8765 -5.875,0.78123 -5.875,-0.375 0,-0.55 -0.675,-1 -1.5,-1 -0.825,0 -1.5,-0.45 -1.5,-1 0,-0.55 0.41702,-1 0.92773,-1 0.51072,0 1.52322,-0.58102 2.25,-1.29102 2.25125,-2.19929 6.21018,-4.70898 7.42773,-4.70898 z m 103.63087,3.26367 c 0.8036,0.006 1.6521,0.0849 2.625,0.21875 7.1419,0.98226 8.1755,2.13494 2.9199,3.25586 -2.465,0.52574 -6.9573,2.60005 -9.9844,4.60937 -5.8928,3.91139 -7.1756,4.20274 -10.2968,2.34375 -1.10014,-0.65515 -2.18634,-1.29946 -2.41214,-1.43359 -1.17128,-0.69577 3.73874,-4.35425 9.02934,-6.72852 3.7068,-1.66356 5.7082,-2.28509 8.1191,-2.26562 z m 4.2715,7.9082 c 1.3518,-0.003 2.4397,0.77203 4.1855,2.32618 l 2.8067,2.49804 -4.5,3.96875 c -2.475,2.18311 -6.8749,5.11077 -9.7774,6.50391 -5.8643,2.81474 -9.0279,3.20371 -9.7949,1.20508 -1.3623,-3.55005 3.7192,-9.90839 11.3125,-14.15235 2.7997,-1.56478 4.4157,-2.34644 5.7676,-2.34961 z m -105.44338,3.82813 c 2.14282,0 0.70445,1.88467 -2.21484,2.90234 -3.84578,1.34081 -3.84961,1.34202 -3.84961,0.0742 0,-0.97482 4.07725,-2.97656 6.06445,-2.97656 z m 80.1914,0.0918 c 1.01279,-0.0739 2.27193,0.51713 3.79688,1.75196 l 2.27734,1.84375 -2.32031,4.90625 c -1.27559,2.69886 -2.99479,5.69375 -3.82031,6.65625 -2.54666,2.96925 -3.18945,1.99816 -3.18945,-4.81445 0,-6.80241 1.02776,-10.18114 3.25585,-10.34376 z m 6.16993,15.02149 c 0.41015,0.0352 0.57425,0.38672 0.38675,0.94922 -0.2406,0.72187 -1.02816,1.50937 -1.75003,1.75 -0.75,0.25 -1.125,-0.125 -0.875,-0.875 0.24063,-0.72188 1.02813,-1.50937 1.75,-1.75 0.18749,-0.0625 0.35156,-0.0859 0.48828,-0.0742 z m -18.34961,2.90234 c 0.55754,0.0288 0.92383,0.33509 0.92383,0.95899 0,0.53529 -0.88872,2.89779 -1.97461,5.25 -1.08588,2.35221 -2.87844,7.44696 -3.98243,11.32226 -1.52861,5.36585 -3.58788,9.18113 -8.63476,16 -3.64494,4.9247 -7.64328,11.20313 -8.88672,13.95313 -2.19116,4.84595 -5.34804,17.9339 -5.30664,22 0.0112,1.1 -0.0604,8.3 -0.1582,16 -0.12149,9.56799 0.27909,15.69877 1.26562,19.36523 1.3805,5.13071 1.33536,5.63252 -1.03906,11.5 -5.1257,12.66622 -6.25495,14.51868 -10.71875,17.58985 -4.61246,3.17346 -9.57541,3.95899 -11.33984,1.79492 -0.56057,-0.6875 -1.58739,-3.16768 -2.28321,-5.51172 -0.69582,-2.34403 -1.84986,-4.74451 -2.5625,-5.33594 -0.78237,-0.64932 -1.10363,-2.32852 -0.8125,-4.23828 0.447,-2.93226 0.39628,-3.00007 -0.69531,-0.91406 -1.6339,3.12237 -5.58006,2.98412 -7.05274,-0.24805 -0.97764,-2.14571 -0.76631,-3.02609 1.50391,-6.2168 1.84224,-2.58919 2.32628,-4.02954 1.59375,-4.75 -0.72609,-0.71413 -1.41767,-0.57043 -2.23437,0.4668 -1.43463,1.82204 -11.40319,5.99805 -14.31836,5.99805 -2.01322,0 -6.03993,-4.9035 -7.70508,-9.38477 -0.65157,-1.75353 -0.827,-1.77111 -2.50781,-0.25 -0.99434,0.89987 -2.33628,1.63477 -2.98047,1.63477 -0.64419,0 -1.16992,0.45786 -1.16992,1.01562 0,1.85552 -6.46915,6.97615 -8.5,6.72852 -1.51929,-0.18525 -2.77347,-2.28714 -5.21289,-8.74414 -1.76619,-4.675 -3.22871,-9.4 -3.25,-10.5 -0.0214,-1.10814 1.48055,-3.21146 3.36718,-4.7168 2.93438,-2.34134 3.57392,-2.51412 4.62305,-1.25 1.38637,1.67048 4.97266,1.99057 4.97266,0.44336 0,-0.56361 1.16037,-1.46609 2.58007,-2.00586 3.50444,-1.33239 2.50711,-3.44901 -1.67578,-3.55664 -1.87306,-0.0482 -3.67174,-0.1607 -3.99804,-0.25 -0.3263,-0.0893 -0.0187,-3.20156 0.68359,-6.91406 1.63578,-8.64696 0.51432,-10.08978 -4.01563,-5.16602 -1.81355,1.9712 -3.47177,4.03769 -3.68554,4.5918 -0.21376,0.55411 -1.73867,1.24809 -3.38867,1.54101 -2.49373,0.44273 -3.46698,-0.0195 -5.75977,-2.73828 -3.24359,-3.84631 -2.86657,-5.61961 1.80664,-8.50781 3.16663,-1.95708 5.30132,-5.45454 4.07617,-6.67969 -0.74652,-0.74652 -6.53035,1.62323 -9.51562,3.89844 -2.68691,2.04782 -5.10742,0.98326 -5.10742,-2.24414 0,-0.99559 -0.9,-2.09618 -2,-2.44531 -1.1,-0.34913 -2,-1.48584 -2,-2.52735 0,-1.04151 -0.82244,-2.69967 -1.82618,-3.68359 -3.82176,-3.7463 -6.17382,-10.10714 -6.17382,-16.69336 0,-8.39887 0.92802,-12.65937 2.89062,-13.25391 0.8843,-0.26786 2.39066,-0.90421 3.3457,-1.41406 2.91232,-1.55475 4.76694,-1.04935 5.76368,1.57227 0.52277,1.375 1.54971,2.5 2.2832,2.5 3.80465,0 7.09314,6.63743 4.71094,9.50781 -0.59459,0.71643 -0.79282,2.45343 -0.43946,3.86133 1.16739,4.65122 3.12389,4.47456 21.97852,-1.98633 4.77321,-1.63563 10.4668,-1.81471 10.4668,-0.33008 0,0.57806 1.54425,1.69577 3.43164,2.48438 1.88739,0.7886 3.71352,1.89089 4.05859,2.44922 1.12871,1.8263 3.98605,1.06972 7.78125,-2.0586 4.38196,-3.61199 4.91413,-7.45212 1.66602,-12.01367 -2.24017,-3.14601 -3.78158,-9.91406 -2.25782,-9.91406 0.51853,0 1.9008,1.29508 3.07032,2.87695 1.16952,1.58186 3.38317,3.19243 4.91992,3.57813 2.29986,0.57723 3.17847,0.21882 4.96484,-2.02149 1.42508,-1.78723 2.73094,-2.50579 3.80469,-2.09375 2.70383,1.03755 3.04224,-2.197 0.51172,-4.89062 -2.67451,-2.84689 -7.03622,-3.22158 -9.44532,-0.8125 -1.11224,1.11226 -1.96244,1.30907 -2.65624,0.61523 -1.5689,-1.56888 -0.58384,-5.58148 1.65039,-6.72656 1.1,-0.56377 2,-1.58789 2,-2.27539 0,-0.6875 0.3375,-1.25 0.75,-1.25 l 2.75,0 c 1.1,0 2,0.45 2,1 0,0.55 -0.675,1 -1.5,1 -3.04502,0 -1.36602,2.75543 3.07031,5.03711 3.62567,1.86476 4.74004,2.08029 5.38476,1.03711 0.60237,-0.97466 3.62539,-1.27067 11.67774,-1.14258 5.97628,0.0951 11.22715,0.53263 11.66797,0.97265 1.41177,1.40922 5.55988,-0.0426 7.17773,-2.51171 0.90799,-1.38578 2.54339,-2.39258 3.88867,-2.39258 1.27707,0 3.13733,-0.9 4.13282,-2 0.99549,-1.1 2.34549,-2 3,-2 0.65451,0 2.00451,-0.9 3,-2 1.18591,-1.31041 2.64694,-2.03231 3.57617,-1.98438 z m -34.18946,24.50586 c -0.51601,0.1006 -0.57948,1.97071 -0.21289,5.89649 0.69494,7.44198 -0.61688,11.93897 -4.43945,15.22265 -2.64599,2.27297 -2.31033,4.35938 0.70117,4.35938 1.0002,0 2.37977,0.675 3.06446,1.5 2.25532,2.71749 4.71891,1.80435 5.43554,-2.01563 0.36289,-1.93436 0.42896,-3.89059 0.14649,-4.34765 -0.28248,-0.45705 -0.58493,-3.71329 -0.67383,-7.23438 -0.16186,-6.41001 -1.7689,-12.07752 -3.77344,-13.3164 -0.0923,-0.057 -0.17433,-0.0788 -0.24805,-0.0645 z m -16.57226,0.47852 c -1.83913,0 -5.52242,3.87802 -5.04492,5.31055 0.21707,0.65119 2.38269,1.90155 4.8125,2.77929 2.42981,0.87778 4.80469,1.25527 5.27929,0.83985 1.13615,-0.99445 -3.34865,-8.92969 -5.04687,-8.92969 z m 1.68555,13 c -1.99224,0 -2.60178,1.06619 -1.33399,2.33398 1.21793,1.21793 3.33399,0.68843 3.33399,-0.83398 0,-0.83333 -0.88889,-1.5 -2,-1.5 z m 27.62695,80.29101 c 0.9731,-0.32436 5.37305,9.07539 5.37305,11.47852 0,1.20762 -2.28357,1.38566 -6.75,0.52539 -1.54593,-0.29776 -2.22613,-1.11514 -2.17383,-2.61328 0.10593,-3.03598 2.35827,-8.99312 3.55078,-9.39063 z m -85.00977,0.70899 c 0.82497,0 1.22274,0.45 0.88282,1 -0.33992,0.55 -1.29414,1 -2.11915,1 -0.82497,0 -1.22077,-0.45 -0.88085,-1 0.33992,-0.55 1.29218,-1 2.11718,-1 z m -8.75195,22.38672 c -0.47938,-0.0675 -0.9543,0.28901 -1.76367,1.02148 -0.96772,0.87577 -2.26466,1.5918 -2.88086,1.5918 -0.6162,0 -2.32931,1.58656 -3.80664,3.52344 -2.43449,3.19178 -2.63529,4.10499 -2.15625,9.75 0.8334,9.82093 4.399,19.12918 9.5,24.80273 2.43484,2.70813 4.82526,4.92383 5.3125,4.92383 1.26357,0 -1.04592,-5.04497 -3.66211,-8 -4.34567,-4.90851 -7.40513,-18.97809 -3.82813,-17.60547 0.86998,0.33385 1.98663,0.60547 2.48047,0.60547 1.6504,0 4.67208,7.43538 5.37891,13.23437 0.97245,7.97826 3.57511,8.87539 5.12109,1.76563 0.29898,-1.375 1.39458,-4.3 2.43555,-6.5 2.86218,-6.04897 3.16759,-10.70195 0.92383,-14.10547 -1.04902,-1.59124 -1.91002,-3.87612 -1.91407,-5.07617 -0.006,-2.01148 -4.56604,-6.31836 -6.68945,-6.31836 -0.48036,0 -1.67874,-0.94103 -2.66406,-2.0918 -0.8241,-0.96248 -1.30773,-1.45398 -1.78711,-1.52148 z m 110.5,22.08593 c 3.0066,-0.16871 5.63477,1.15311 5.63477,3.03711 0,0.79153 -1.30001,2.11206 -2.88868,2.9336 -2.7203,1.40672 -3.04418,1.34995 -5.55664,-0.97852 -3.11127,-2.88343 -2.77213,-3.97057 1.50586,-4.82617 0.43845,-0.0877 0.87518,-0.14191 1.30469,-0.16602 z m 36.6348,16.52735 c -0.55,0 -1,0.45 -1,1 0,0.55 0.45,1 1,1 0.55,0 1,-0.45 1,-1 0,-0.55 -0.45,-1 -1,-1 z m -11.5586,4.42578 c 0.3434,-0.0357 1.0257,0.43317 1.9629,1.46875 1.064,1.17564 1.3367,2.14842 0.7109,2.53516 -0.5582,0.34501 -1.5244,-0.32382 -2.1465,-1.48633 -0.8509,-1.58991 -0.9689,-2.47167 -0.5273,-2.51758 z m -5.44143,0.57422 c 1.1,0 2,0.17391 2,0.38476 0,0.21085 -0.9,0.61859 -2,0.90625 -1.1,0.28766 -2,0.1157 -2,-0.38281 0,-0.49851 0.9,-0.9082 2,-0.9082 z m 28.00003,6.00976 c 0.3027,-0.0167 0.6586,0.25047 1.1484,0.74024 0.6137,0.61386 0.8464,1.82162 0.5156,2.68359 -0.3308,0.86197 -1.3218,1.56641 -2.2011,1.56641 -1.1962,0 -1.4238,-0.56649 -0.9063,-2.25 0.5827,-1.89581 0.9388,-2.71243 1.4434,-2.74024 z m -51.54496,2.99024 c -3.24893,0 -4.19654,2.52529 -1.90039,5.0625 2.39217,2.64332 3.84819,1.98229 4.16211,-1.88867 0.22646,-2.7926 -0.0446,-3.17383 -2.26172,-3.17383 z m -38.45507,5.88672 0,4.33398 c 0,2.38424 0.64003,5.25012 1.42382,6.36914 2.35193,3.35785 9.3437,7.70391 11.49024,7.14258 1.1395,-0.29799 2.17761,0.0693 2.48828,0.87891 0.29326,0.76422 0.97106,1.38867 1.50586,1.38867 3.30203,0 2.05444,-7.6815 -1.46485,-9.01953 -1.39976,-0.5322 -3.30517,-2.86277 -4.65624,-5.69141 -2.14707,-4.49507 -2.54796,-4.80707 -6.53711,-5.0957 l -4.25,-0.30664 z m 18.96484,1.11328 c -1.08267,0 -1.28308,3.01281 -0.35938,5.41992 0.78475,2.04497 3.39454,2.05692 3.39454,0.0156 0,-2.12487 -1.84837,-5.43555 -3.03516,-5.43555 z m 13.125,2 c -3.72478,0 -5.08984,1.72051 -5.08984,6.4082 0,3.27948 0.6815,4.70785 3.75,7.86133 3.36308,3.45621 3.56944,3.95574 2,4.8418 -2.95963,1.67093 -2.15262,4.72686 1.5,5.67968 3.1702,0.82697 3.24869,0.98186 3.21289,6.2793 -0.0202,2.98694 -0.24519,6.08954 -0.5,6.89453 -0.32095,1.01393 0.89458,1.90455 3.95703,2.89844 4.83123,1.56795 4.917,1.52269 9.21093,-4.91602 1.58628,-2.37859 1.68526,-2.39679 3.65235,-0.6289 1.11244,0.99979 2.85365,4.48417 3.86914,7.74219 1.01549,3.258 2.19188,5.92664 2.61328,5.93164 0.4214,0.005 1.48131,-1.49111 2.35547,-3.32422 1.50512,-3.15628 1.47087,-3.56708 -0.65625,-7.75 -1.23541,-2.42939 -3.11729,-5.54297 -4.18164,-6.91797 -6.28109,-8.11434 -10.7832,-16.49261 -10.7832,-20.06641 0,-4.26553 -0.80119,-6.93359 -2.08204,-6.93359 -0.4774,0 -0.59953,1.35 -0.26953,3 0.79085,3.95424 -1.19169,3.96496 -3.44531,0.0176 -1.16944,-2.04836 -2.24142,-2.81447 -3.41992,-2.44336 -1.23182,0.38791 -1.89891,-0.18096 -2.35938,-2.01563 -0.48946,-1.95019 -1.28099,-2.55859 -3.33398,-2.55859 z m -64.73242,11 c -2.88254,0 -5.5175,0.45 -5.85742,1 -0.33992,0.55 -0.15427,1 0.41406,1 0.56834,0 1.73269,1.35 2.58594,3 1.77335,3.42928 3.47701,3.71812 7.5957,1.28515 5.34061,-3.15477 2.98015,-6.28515 -4.73828,-6.28515 z m 97.14258,1 c -2.09889,0 -1.86267,2.89507 0.5625,6.87305 1.13093,1.85502 2.95463,5.77391 4.05273,8.70898 1.4549,3.88851 3.367,6.50243 7.0469,9.62891 2.7776,2.35989 7.0667,7.10156 9.5312,10.53906 2.4645,3.4375 4.8929,6.25 5.3946,6.25 1.2122,0 1.161,-4.2146 -0.092,-7.50977 -1.3197,-3.47109 -8.9585,-12.49023 -10.5782,-12.49023 -0.697,0 -2.2461,-1.2375 -3.4433,-2.75 -3.6419,-4.60087 -10.9746,-16.6069 -10.9746,-17.96875 0,-0.70414 -0.67503,-1.28125 -1.50003,-1.28125 z m -73.01172,0.0508 c -0.836,-0.0505 -2.05836,0.60936 -3.76172,1.94922 -1.39842,1.1 -3.00468,2 -3.56836,2 -0.56369,0 -1.30907,0.9 -1.6582,2 -0.34913,1.1 -1.05542,2 -1.56836,2 -1.06254,0 -1.2777,4.32191 -0.26563,5.33398 1.11551,1.11552 3.02053,0.74864 4.33399,-0.83398 0.68469,-0.825 1.94112,-1.5 2.79296,-1.5 2.91692,0 5.20704,-3.1456 5.20704,-7.1543 0,-2.48898 -0.43687,-3.72994 -1.51172,-3.79492 z m 13.33593,3.94922 c -2.56886,0 -2.26853,2.64944 0.62891,5.54687 2.83295,2.83295 4.36095,3.09704 5.20313,0.90235 0.74288,-1.93591 -3.33844,-6.44922 -5.83204,-6.44922 z m 38.11524,0.0723 c 0.74138,-0.035 1.08847,0.70224 0.8789,2.17774 -0.20536,1.44596 -1.12239,2.36495 -2.56835,2.57031 -2.6231,0.37254 -2.91387,-1.01387 -0.67969,-3.24805 0.97745,-0.97745 1.79251,-1.47275 2.36914,-1.5 z m -44.5957,5.92774 c -1.78947,0 -1.69561,0.9551 0.31054,3.17187 1.61001,1.77905 4.34571,2.50836 4.34571,1.15821 0,-1.25578 -3.30582,-4.33008 -4.65625,-4.33008 z m 93.06838,1.09961 c -0.056,-0.0103 -0.1147,-0.008 -0.1758,0.004 -0.6285,0.12609 -1.5355,1.44469 -2.6172,3.89649 -1.1536,2.61471 -2.6038,4.20896 -4.1914,4.60742 -3.0287,0.76016 -3.085,1.77168 -0.1777,3.17383 1.2375,0.59682 2.475,1.1029 2.75,1.125 0.8602,0.0691 5.5036,-6.64276 5.3984,-7.80274 -0.055,-0.60657 -0.167,-2.00351 -0.25,-3.10351 -0.09,-1.20064 -0.3461,-1.8282 -0.7363,-1.90039 z m -98.98831,3.1875 c -0.26055,3e-4 -0.52974,0.0141 -0.80859,0.0391 -2.64733,0.23691 -3.07472,0.64312 -2.83789,2.70508 0.42523,3.7023 2.09859,4.8197 3.78906,2.5293 1.31905,-1.78718 1.4336,-1.5861 1.4336,2.54882 0,2.47012 0.54405,5.03625 1.21093,5.70313 2.19641,2.19641 3.29001,0.55788 3.14649,-4.7168 -0.16402,-6.02809 -2.02531,-8.81307 -5.9336,-8.80859 z m -42.86523,1.71289 c -0.24254,0 -0.71867,0.45 -1.05859,1 -0.33992,0.55 -0.14301,1 0.43945,1 0.58246,0 1.06055,-0.45 1.06055,-1 0,-0.55 -0.19887,-1 -0.44141,-1 z m 77.20703,0.008 c -0.7253,0.0683 -1.53813,0.63976 -2.375,1.74219 -1.88773,2.48677 -1.69875,4.58905 0.68164,7.61523 2.66715,3.39073 6.43931,3.65256 5.54297,0.38477 -0.33944,-1.2375 -0.89914,-3.9375 -1.24414,-6 -0.42994,-2.57026 -1.39664,-3.85607 -2.60547,-3.74219 z m -59.34961,19.09961 c 1.32808,-0.0454 3.14736,0.84049 3.41016,2.21875 0.23042,1.20845 -1.65595,3.63674 -5.58399,7.19141 -19.60669,17.74303 -24.55472,19.4773 -8.74218,3.0625 5.225,-5.42401 9.5,-10.50572 9.5,-11.29102 0,-0.79311 0.61916,-1.15438 1.41601,-1.18164 z m 41.07422,4.56836 c -1.47747,-0.0544 -2.12613,0.22397 -2.33008,0.82422 -0.49679,1.4621 11.59288,5.43315 16.83985,5.53125 2.475,0.0463 6.3,0.45706 8.5,0.91211 6.64022,1.37348 11.53099,1.15093 14.60351,-0.66407 1.60262,-0.94668 2.79707,-2.06544 2.6543,-2.48632 -0.14277,-0.42087 -6.42866,-1.00446 -13.96875,-1.29688 -7.54009,-0.29241 -16.09009,-1.0306 -19,-1.64062 -3.5167,-0.73723 -5.82136,-1.1253 -7.29883,-1.17969 z m -17.74414,37.72851 c -0.26786,-0.0434 -0.72313,0.16169 -1.24609,0.59571 -0.825,0.68469 -1.5,1.69609 -1.5,2.24609 0,0.55783 0.66326,0.44834 1.5,-0.24609 0.825,-0.68469 1.5,-1.69414 1.5,-2.24414 0,-0.20919 -0.0932,-0.32547 -0.25391,-0.35157 z"
       id="path4147"
       inkscape:connector-curvature="0" />
  </g>
</svg>
