<?xml version="1.0" encoding="UTF-8" standalone="no"?>
<svg
   xmlns:dc="http://purl.org/dc/elements/1.1/"
   xmlns:cc="http://creativecommons.org/ns#"
   xmlns:rdf="http://www.w3.org/1999/02/22-rdf-syntax-ns#"
   xmlns:svg="http://www.w3.org/2000/svg"
   xmlns="http://www.w3.org/2000/svg"
   xmlns:sodipodi="http://sodipodi.sourceforge.net/DTD/sodipodi-0.dtd"
   xmlns:inkscape="http://www.inkscape.org/namespaces/inkscape"
   width="2000"
   height="2000"
   id="svg2"
   version="1.1"
   inkscape:version="0.91 r13725"
   sodipodi:docname="Power-Fist-bw-2015060409.svg">
  <metadata
     id="metadata1860">
    <rdf:RDF>
      <cc:Work
         rdf:about="">
        <dc:format>image/svg+xml</dc:format>
        <dc:type
           rdf:resource="http://purl.org/dc/dcmitype/StillImage" />
        <dc:title></dc:title>
      </cc:Work>
    </rdf:RDF>
  </metadata>
  <defs
     id="defs1858" />
  <sodipodi:namedview
     pagecolor="#ffffff"
     bordercolor="#666666"
     borderopacity="1"
     objecttolerance="10"
     gridtolerance="10"
     guidetolerance="10"
     inkscape:pageopacity="0"
     inkscape:pageshadow="2"
     inkscape:window-width="1240"
     inkscape:window-height="1016"
     id="namedview1856"
     showgrid="false"
     inkscape:zoom="0.077901824"
     inkscape:cx="1122.7382"
     inkscape:cy="1132.5011"
     inkscape:window-x="0"
     inkscape:window-y="0"
     inkscape:window-maximized="0"
     inkscape:current-layer="svg2" />
  <g
     id="g5998"
     transform="translate(4.9032716,32.828008)">
    <path
       id="path24"
       d="m 1839,1178 c 5.68,-1.66 6.34,-14.71 7.4,-20 4.26,-21.26 9.23,-42.45 11.73,-64 7.62,-65.64 13.21,-132.885 6.74,-199 -2.17,-22.072 -6.45,-43.217 -9.61,-65 C 1829.96,655.566 1747.59,489.377 1624.98,362 1584.71,320.165 1539.03,282.811 1492,249.019 1476.92,238.187 1460.5,230.5 1445.02,220.569 1384.49,181.727 1316.43,151.155 1247,131.412 1051.1,75.708 834.978,82.0135 647,165.921 489.05,236.426 355.202,351.371 260.394,495.94 208.406,575.213 169.176,664.605 147.468,757 c -6.654,28.319 -10.061,56.565 -14.746,85 -10.812,65.632 -13.546,133.604 -5.861,200 1.497,12.93 0.644,25.97 2.398,39 7.903,58.69 20.674,117.3 40.422,173 64.2,181.08 188.252,341.71 350.319,446.32 150.629,97.22 324.839,141.84 503,138.68 26.41,-0.47 53.04,-5.15 79.02,-7.92 259.73,-27.69 493.3,-180.66 633.02,-401.08 34.84,-54.97 63.11,-114.39 83.96,-176 8.14,-24.07 20,-50.32 20,-76 z"
       style="fill:#ffffff;stroke:none"
       inkscape:connector-curvature="0" />
    <path
       id="path182"
       d="m 658,1689 c 0.221,-26.75 4.796,-52.39 5.961,-79 2.082,-47.56 2.69,-95.8 9.248,-143 3.591,-25.84 6.168,-52.95 6.806,-79 0.175,-7.16 3.7,-17.86 1.456,-24.68 -2.088,-6.34 -12.665,-12.04 -17.471,-16.39 -15.229,-13.82 -30.758,-27.31 -46,-41.1 -26.02,-23.54 -56.178,-50.04 -74.816,-80.09 -7.419,-11.96 -9.835,-27.52 -13.753,-40.74 -2.846,-9.6 -7.947,-19.09 -9.431,-29 l -3,0 c -0.39,-13.48 -6.881,-25.28 -10.265,-38 -8.077,-30.35 -17.607,-62.25 -23.472,-93.09 -5.026,-26.427 -8.018,-55.973 -6.173,-82.91 0.694,-10.146 4.084,-19.891 4.91,-30 6.587,1.493 9.827,6.072 15.039,9.871 10.602,7.728 20.451,16.485 30.961,24.51 36.604,27.952 71.922,57.759 109,85.349 9.513,7.08 18.664,14.74 28,22.06 3.528,2.77 8.463,8.26 13,9.05 4.185,0.73 8.803,-4.35 12,-6.49 L 719,1037 c 37.071,-24.83 74.567,-54.086 115,-73.626 8.982,-4.341 21.19,-4.546 31,-5.543 16.008,-1.626 32.037,-4.002 48,-6.015 28.996,-3.656 57.978,-9.429 87,-12.687 26.18,-2.94 53.12,-3.324 79,-8.129 l 0,1 c -12.82,3.764 -24.97,13.831 -36,21.166 -22.36,14.864 -44.522,30.157 -64.089,48.554 -64.475,60.6 -126.494,121.91 -156.602,207.28 -10.389,29.46 -17.309,60.66 -17.309,92 0,6.5 -3.11,24.44 1.603,29.27 4.318,4.43 15.565,6.2 21.397,7.93 18.417,5.47 39.842,6.82 59,4.67 9.573,-1.07 18.209,-3.87 28,-3.87 l -36.598,179 -20.915,93 -11.487,54 10.153,-23 23.916,-66 73.685,-191 23.286,-62 6.96,-19 c -29.271,-3.94 -59.403,-10.12 -89,-10.99 -8.278,-0.24 -30.405,-2.31 -34.972,-10.2 -5.641,-9.74 2.964,-30.03 2.972,-40.81 l 3,0 c 4.844,-32.95 22.816,-65.77 39.554,-94 46.649,-78.68 118.166,-140.57 193.446,-191.001 30.87,-20.676 63.83,-43.547 99,-56.188 22.44,-8.064 47.59,-11.77 70.99,-16.1 11.25,-2.084 22.37,-6.276 34.01,-7.582 18.48,-2.075 37.79,-1.643 56,-6.129 l 0,-1 c -19.05,-1.896 -39.13,-3.827 -58,-7.6 -6.69,-1.338 -14.88,-1.568 -20.96,-4.794 -10.26,-5.444 -22.15,-22.728 -22.76,-34.606 -0.46,-8.915 5.25,-18.863 8.3,-27 7.97,-21.331 20.14,-42.193 26.42,-64 -10.54,4.917 -18.43,17.077 -27,24.83 -23.25,21.033 -49.86,44.582 -81,52.41 -9.61,2.416 -19.47,-0.031 -29,-1.066 -18.39,-1.999 -36.87,-5.862 -55,-9.552 -7.11,-1.448 -13.69,-4.894 -21,-5.622 l 0,-3 c -23.25,-4.001 -47.97,-17.239 -69,-27.753 -5.82,-2.91 -18.544,-5.94 -22.012,-11.436 -2.694,-4.27 -2.468,-10.954 -3.437,-15.811 -2.654,-13.297 -3.808,-26.687 -6.354,-40 -2.46,-12.859 -3.197,-25.907 -3.197,-39 0,-5.284 -1.003,-11.684 3.228,-15.697 6.134,-5.816 19.811,-7.473 27.772,-9.872 24.81,-7.473 49.89,-14.373 75,-20.909 69.64,-18.128 138.76,-39.21 208,-58.949 20.31,-5.792 40.59,-11.66 61,-17.156 10.6,-2.854 21.84,-6.578 33,-5.128 17.92,2.328 39.91,6.949 52.79,20.804 10.2,10.976 13.69,34.71 18.42,48.907 12.15,36.548 25.76,72.635 38.29,109 21.67,62.857 43.74,125.219 62.37,189 3.82,13.056 6.84,27.426 11.91,40 3.68,9.153 10.68,21.671 7.71,32 -2.85,9.914 -15.39,19.863 -22.49,27 -17.81,17.9 -35.15,36.15 -53,54 -45.25,45.25 -91.55,89.32 -137.24,133.96 -15.02,14.68 -28.42,31.35 -44.05,45.53 -17.77,16.12 -33.62,34.67 -51.8,50.33 -8.3,7.15 -15.3,14.26 -22.93,22.18 -3.71,3.85 -9.47,7.84 -11.38,13 -3.66,9.94 2.91,22.14 3.36,32 1.4,30.47 3.86,60.94 8.78,91 1.98,12.08 1.26,24.8 2.43,37 2.84,29.71 7.47,59.26 10.66,89 1.76,16.5 1.31,33.45 3.3,49.91 2.44,20.21 3.61,40.74 6.05,61.09 1.59,13.2 4.82,25.62 4.82,39 21.98,-4.09 42.78,-15.08 63,-24.45 47.6,-22.06 90.36,-49.71 132.55,-80.29 222.63,-161.33 345.92,-435.4 320.55,-708.26 -3.91,-42.083 -7.77,-82.588 -17.85,-124 C 1704.94,511.708 1501.97,295.25 1244,209.355 1152.68,178.947 1053.19,166.827 957,171.039 661.738,183.97 381.314,371.74 264.288,646 c -27.177,63.69 -46.916,131.712 -57.963,200 -8.857,54.748 -7.783,110.842 -5.364,166 9.217,210.18 106.156,413.53 265.664,551.68 45.556,39.46 94.234,78.91 149.286,104.75 13.658,6.41 26.929,17.87 42.089,20.57 z"
       style="fill:#010101;stroke:none"
       inkscape:connector-curvature="0" />
    <path
       id="path292"
       d="m 1345,507 c -1.37,-15.603 -13.39,-33.729 -19.76,-48 -15.56,-34.847 -29.26,-70.58 -46.94,-104 -5.5,-10.385 -11.03,-20.927 -15.88,-31.615 -2.01,-4.423 -2.63,-10.588 -7.72,-12.782 -9.73,-4.192 -25.42,4.128 -34.71,6.937 -26.72,8.073 -54.19,15.314 -80.99,23.03 -24.92,7.174 -47.84,15.904 -72,25.065 -7.59,2.878 -23.6,6.383 -27.97,13.691 -3.89,6.493 3.01,17.781 5.66,23.674 9.06,20.073 20.27,39.231 29.5,59.039 10.78,23.137 26.48,44.165 36.04,67.961 3.38,8.408 7.45,16.019 11.77,24 1.6,2.955 3.29,8.194 6.39,9.882 4.19,2.28 13.35,-1.968 17.61,-3.172 15.03,-4.247 30.27,-7.419 45,-12.675 21.13,-7.54 44.07,-10.674 66,-16.452 29.48,-7.765 58.72,-17.234 88,-24.583 z"
       style="fill:#ffffff;stroke:none"
       inkscape:connector-curvature="0" />
    <path
       id="path344"
       d="m 943,724 1,0 c -0.988,-23.024 -5.991,-45.854 -6,-69 -0.003,-8.463 -1.111,-19.286 3.14,-26.996 6.077,-11.023 26.745,-14.338 37.86,-17.813 35.37,-11.057 72.46,-25.999 109,-32.191 l 3,-3 c -7.31,-19.975 -19.45,-38.9 -28.84,-58 -11.69,-23.774 -21.63,-48.813 -32.87,-73 -5.13,-11.05 -10.26,-22.107 -15.73,-33 -2.07,-4.142 -4.42,-10.62 -8.66,-12.972 -3.98,-2.204 -10.502,-1.03 -14.9,-1.028 -14.566,0.006 -28.456,2.583 -42.089,7.33 -40.129,13.972 -77.085,27.735 -111.911,53.349 -10.047,7.39 -20.644,14.08 -30,22.371 -3.231,2.863 -8.922,6.24 -9.378,10.951 -0.691,7.133 4.973,17.071 8.378,22.999 8.727,15.194 17.623,30.408 27.333,45 36.584,54.976 74.042,109.697 110.667,165 z"
       style="fill:#ffffff;stroke:none"
       inkscape:connector-curvature="0" />
    <path
       id="path414"
       d="M 1002,901 C 999.66,890.076 991.721,883.257 986.84,873.946 975.273,851.878 963.502,830.341 950.79,808.83 910.518,740.684 870.562,672.57 827.692,606 c -14.255,-22.137 -28.747,-44.082 -43.359,-66 -5.128,-7.693 -12.06,-22.603 -20.373,-26.972 -13.33,-7.006 -34.646,6.457 -46.96,10.918 -35.489,12.857 -68.04,36.16 -95.285,62.134 -10.33,9.849 -22.647,21.755 -28.684,34.92 -6.157,13.424 -0.363,19.177 5.159,31.039 7.837,16.839 17.792,32.146 27.618,47.961 37.335,60.095 84.08,112.588 125.942,169 12.332,16.619 24.596,33.479 40.25,47.286 4.371,3.855 9.331,11.846 15.089,13.396 16.852,4.535 37.34,-2.17 53.911,-4.473 32.386,-4.5 64.646,-8.95 97,-14.823 14.617,-2.654 29.193,-8.095 44,-9.386 z"
       style="fill:#ffffff;stroke:none"
       inkscape:connector-curvature="0" />
    <path
       id="path546"
       d="m 551,672.518 c -21.715,4.631 -40.673,22.08 -57,36.061 -18.245,15.625 -33.776,33.207 -48.151,52.406 -8.484,11.331 -16.636,23.124 -15.806,38.015 1.036,18.573 24.017,35.026 35.956,47 35.581,35.682 72.742,67.633 110.926,100.296 24.362,20.838 48.817,41.26 74.075,60.914 9.83,7.64 20.54,19.29 34,16.26 26.969,-6.06 54.444,-28.08 75.039,-45.565 6.111,-5.188 19.194,-14.836 18.597,-23.905 -0.405,-6.15 -4.6,-9.352 -7.756,-14.039 -8.49,-12.61 -18.312,-23.948 -27.335,-36.05 C 708.779,857.277 674.884,809.756 639.873,763 622.282,739.507 604.665,716.227 586.651,693 576.819,680.325 568.55,668.775 551,672.518 Z"
       style="fill:#ffffff;stroke:none"
       inkscape:connector-curvature="0" />
  </g>
</svg>
