<?xml version="1.0" encoding="UTF-8" standalone="no"?>
<!-- Created with Inkscape (http://www.inkscape.org/) -->

<svg
   xmlns:dc="http://purl.org/dc/elements/1.1/"
   xmlns:cc="http://creativecommons.org/ns#"
   xmlns:rdf="http://www.w3.org/1999/02/22-rdf-syntax-ns#"
   xmlns:svg="http://www.w3.org/2000/svg"
   xmlns="http://www.w3.org/2000/svg"
   xmlns:sodipodi="http://sodipodi.sourceforge.net/DTD/sodipodi-0.dtd"
   xmlns:inkscape="http://www.inkscape.org/namespaces/inkscape"
   id="svg4218"
   version="1.1"
   inkscape:version="0.91 r13725"
   width="238.125"
   height="218.4375"
   viewBox="0 0 238.125 218.4375"
   sodipodi:docname="Ribbon2.svg">
  <metadata
     id="metadata4224">
    <rdf:RDF>
      <cc:Work
         rdf:about="">
        <dc:format>image/svg+xml</dc:format>
        <dc:type
           rdf:resource="http://purl.org/dc/dcmitype/StillImage" />
        <dc:title></dc:title>
      </cc:Work>
    </rdf:RDF>
  </metadata>
  <defs
     id="defs4222" />
  <sodipodi:namedview
     pagecolor="#ffffff"
     bordercolor="#666666"
     borderopacity="1"
     objecttolerance="10"
     gridtolerance="10"
     guidetolerance="10"
     inkscape:pageopacity="0"
     inkscape:pageshadow="2"
     inkscape:window-width="1600"
     inkscape:window-height="837"
     id="namedview4220"
     showgrid="false"
     inkscape:zoom="3.0672389"
     inkscape:cx="119.0625"
     inkscape:cy="109.21875"
     inkscape:window-x="-8"
     inkscape:window-y="-8"
     inkscape:window-maximized="1"
     inkscape:current-layer="svg4218" />
  <path
     style="fill:#000000"
     d="m 112.10922,216.97529 c -3.91819,-3.9182 -5.23422,-8.49112 -5.23422,-18.18794 0,-12.42917 -1.98578,-12.36919 -6.52277,0.19702 -1.147968,3.17956 -2.813202,3.2697 -5.600146,0.30313 -2.13435,-2.27191 -2.13521,-2.28513 -0.632175,-9.70293 0.827804,-4.08535 1.505091,-8.37019 1.505091,-9.52187 0,-2.46833 -1.901942,-2.17878 -3.28125,0.49953 -0.515625,1.00123 -1.801819,3.07729 -2.858208,4.61346 -1.05639,1.53619 -2.418439,3.95322 -3.026777,5.37118 -0.608337,1.41797 -1.472171,2.57813 -1.91963,2.57813 -1.55505,0 -6.433615,-2.80983 -8.12658,-4.68053 -1.536057,-1.69733 -1.56247,-2.04294 -0.269211,-3.5226 1.197832,-1.37047 9.765371,-26.07767 14.385244,-41.48437 1.366474,-4.55703 3.873162,-15.70899 5.05744,-22.5 0.97051,-5.5652 2.615869,-13.21824 4.333481,-20.15625 0.765911,-3.09375 2.416211,-13.429688 3.667331,-22.96875 1.25113,-9.539063 2.56422,-18.567981 2.91798,-20.064262 1.12101,-4.741472 -3.90568,-11.659875 -6.550239,-9.015317 -0.540037,0.540039 -1.272037,3.401525 -1.626665,6.358859 -2.289178,19.090202 -10.399483,56.04473 -13.730848,62.56447 -0.7904,1.54688 -2.132944,3.44531 -2.98343,4.21875 -0.850487,0.77344 -2.561998,2.88281 -3.803359,4.6875 -6.557211,9.53286 -18.839629,21.15558 -24.718261,23.39063 -1.242298,0.47233 -3.676683,2.0956 -5.409745,3.60728 -4.310649,3.76 -13.650532,8.90391 -14.289567,7.86993 -0.701003,-1.13425 4.431848,-9.11952 6.330175,-9.84798 2.974888,-1.14158 14.269127,-21.31017 17.031676,-30.41418 2.487657,-8.19811 1.717189,-9.18758 -4.541887,-5.83292 -1.947447,1.04377 -6.370887,2.96522 -9.829866,4.26989 -5.825805,2.19741 -7.324891,2.35767 -20.351554,2.17564 -23.7070186,-0.33127 -21.88804583,-0.0354 -21.234375,-3.45366 0.3153848,-1.64924 6.3014007,-4.19979 14.789628,-6.30165 5.070149,-1.25547 10.508742,-3.2751 12.459171,-4.62675 C 29.949421,106.07943 31.95369,105 32.499606,105 c 0.545915,0 2.632614,-1.30758 4.637108,-2.90573 2.004495,-1.59816 5.121098,-3.676279 6.925786,-4.618045 4.481807,-2.338819 16.139199,-13.666497 18.788886,-18.257475 1.190373,-2.0625 4.094376,-5.901353 6.45334,-8.530785 2.358963,-2.629432 5.976524,-6.94753 8.039024,-9.595775 2.0625,-2.648244 4.530952,-5.770328 5.485448,-6.937965 2.868588,-3.509145 8.268615,-14.884222 7.730998,-16.285231 -0.869623,-2.266199 -3.398754,-1.42121 -5.056924,1.689531 -0.878363,1.647813 -3.234998,4.495469 -5.236967,6.328125 -2.00197,1.832655 -7.214593,6.758675 -11.583607,10.94671 -8.839107,8.472963 -20.067742,15.654936 -28.653478,18.327117 -7.870807,2.449671 -8.677049,1.665323 -1.965347,-1.911977 3.116043,-1.660834 7.619256,-4.582897 10.007139,-6.493474 2.387883,-1.910576 6.259703,-4.894142 8.604047,-6.630144 4.781358,-3.540631 5.770261,-6.331586 1.899179,-5.360006 C 52.334087,56.331054 37.571183,65.4448 29.528746,72.695849 20.857087,80.514204 16.987528,82.551075 15.108178,80.286597 12.280843,76.879867 27.898092,62.747781 42.1875,55.782452 c 3.867187,-1.885048 7.664062,-3.749128 8.4375,-4.142399 0.773437,-0.393272 6.569056,-2.364573 12.879152,-4.380671 7.437732,-2.376381 11.476937,-4.127369 11.484375,-4.978453 0.0095,-1.083634 -1.747921,-1.202256 -10.066652,-0.679486 -5.542969,0.348333 -11.660156,1.000143 -13.59375,1.448466 -5.592425,1.29666 -4.715881,-0.315377 3.75,-6.896558 5.796489,-4.506059 7.352065,-7.090851 4.267405,-7.090851 -0.875582,0 -5.094211,0.506372 -9.374729,1.12527 -6.162617,0.891022 -8.025136,0.882895 -8.947068,-0.03904 -0.927412,-0.927412 -0.87978,-1.342877 0.234104,-2.04194 2.094621,-1.314564 15.526054,-5.37347 22.77939,-6.883808 3.509537,-0.730779 6.610376,-1.558088 6.890752,-1.838464 2.809417,-2.809417 -10.202991,-3.36278 -24.122151,-1.025815 -4.860393,0.816039 -13.778324,3.346586 -19.817625,5.623439 -14.911178,5.621607 -17.7339838,7.047365 -17.3931586,8.785035 0.320969,1.636437 7.4996886,2.000351 14.5455806,0.737366 3.451166,-0.618626 3.983548,-0.493165 3.978198,0.9375 -0.0034,0.908437 -0.844368,2.917329 -1.868823,4.464204 -1.024455,1.546875 -1.865425,3.339844 -1.868823,3.984375 -0.0087,1.650884 4.837461,1.469332 9.388746,-0.351731 2.094326,-0.837983 4.054272,-1.277199 4.355435,-0.976035 0.301165,0.301163 -1.720245,2.642988 -4.492019,5.204054 -2.771774,2.561065 -7.078267,6.551048 -9.569985,8.866629 -3.440989,3.19775 -4.923587,5.480942 -6.165516,9.494864 -0.899316,2.906595 -2.0247,5.156609 -2.500854,5.000031 C 14.92083,69.971859 14.53125,64.78125 14.53125,58.59375 c 0,-10.728349 -0.126658,-11.467355 -2.73153,-15.9375 -1.502342,-2.578125 -3.7541162,-5.80382 -5.0039433,-7.168209 l -2.2724129,-2.48071 3.4501383,-3.14429 C 13.190006,25.108969 28.778993,16.135402 35.413335,14.067712 46.090781,10.739929 53.038946,9.9937341 66.078213,10.774471 c 21.502885,1.287503 19.288721,1.701192 22.259738,-4.1589577 1.423,-2.8067802 2.959101,-5.4750653 3.413558,-5.92952233 0.476714,-0.47671414 4.521575,-0.18858403 9.560871,0.68105603 7.28712,1.2575509 9.83418,1.3225757 15.37004,0.3923871 5.8777,-0.9876257 7.03486,-0.92542893 10.13277,0.5446258 4.71224,2.2361062 4.40141,3.3190808 -0.95581,3.3300984 -2.67269,0.00549 -6.32728,0.8800494 -9.14063,2.1873721 -2.57812,1.1980176 -5.77685,2.4497866 -7.10828,2.7817096 -1.36921,0.341345 -4.21553,2.8527 -6.55249,5.781378 -2.27245,2.847835 -4.450914,5.177882 -4.841027,5.177882 -0.390122,0 0.176719,-2.214844 1.259653,-4.921875 2.866664,-7.1658647 2.777164,-8.4501947 -0.638868,-9.1680475 -6.319785,-1.3280518 -7.866926,1.3074915 -7.88992,13.4404035 -0.01369,7.224446 1.570072,13.170909 4.154573,15.59892 2.882381,2.707854 4.539497,1.760613 6.952759,-3.974328 1.12973,-2.684728 3.34414,-6.357886 4.9209,-8.162573 2.60354,-2.979892 2.8097,-3.065994 2.24471,-0.9375 -0.34217,1.289062 -0.82825,3.188617 -1.08016,4.221232 -0.69503,2.848996 1.22963,6.924407 3.82958,8.109026 4.10013,1.868142 7.64884,-0.422066 9.87547,-6.373255 C 122.89304,26.595091 123.75,23.41106 123.75,22.318876 123.75,19.378264 132.16257,7.5 134.24522,7.5 c 1.90772,0 13.95184,-3.1109284 17.99394,-4.6477361 2.95661,-1.1240987 25.01565,-1.1971058 31.97959,-0.1058403 8.55128,1.3400078 19.63023,4.8393739 23.90625,7.5509654 2.32031,1.471402 5.80078,3.4205 7.73437,4.33133 1.95826,0.922448 3.51563,2.336517 3.51563,3.192141 0,0.844848 -3.16406,5.229214 -7.03125,9.743037 -3.86719,4.513823 -7.03125,8.496209 -7.03125,8.849745 0,1.710525 -13.867,14.995095 -15.96073,15.290361 -2.04784,0.288793 -2.3541,0.85053 -2.60626,4.780372 -0.15716,2.449219 -0.647,4.453125 -1.08854,4.453125 -0.44154,0 -1.78951,-1.160156 -2.99551,-2.578125 -2.14967,-2.527522 -6.33143,-4.927687 -8.56494,-4.915947 -0.62027,0.0033 -1.85727,1.287769 -2.74888,2.854463 -0.89161,1.566695 -2.89551,3.292797 -4.45312,3.835783 -1.79482,0.625676 -2.83202,1.631864 -2.83202,2.747326 0,0.974413 4.28945,6.103615 9.60937,11.490636 7.59128,7.687004 11.06465,10.456846 16.53878,13.188843 3.81117,1.902056 10.1349,5.40415 14.05273,7.782427 8.93407,5.423354 17.82098,9.656214 20.26787,9.653664 2.83534,-0.003 13.69459,4.85716 13.32565,5.96396 -0.62741,1.88225 -5.12234,2.19987 -19.79808,1.399 -12.36702,-0.67489 -16.34538,-1.27808 -23.8906,-3.6222 -4.9902,-1.55033 -11.14715,-4.24448 -13.71984,-6.00352 -2.56692,-1.75509 -6.79044,-4.446376 -9.38559,-5.980651 -2.59515,-1.534275 -5.28352,-3.470453 -5.97417,-4.302623 -0.69064,-0.83217 -2.18993,-1.513036 -3.33176,-1.513036 l -2.07607,0 1.67663,6.328125 c 0.92214,3.480465 2.29206,8.648435 3.04426,11.484375 0.75219,2.83594 1.83746,7.05469 2.4117,9.375 2.62882,10.6222 4.0582,14.78048 6.19657,18.02678 1.26641,1.92254 2.30255,4.0785 2.30255,4.79104 0,0.71254 1.05469,2.8497 2.34375,4.74924 2.42552,3.57421 3.02515,6.18294 1.42118,6.18294 -1.52612,0 -33.3289,-34.59243 -34.47586,-37.5 -0.3051,-0.77344 -3.26355,-5.94056 -6.57432,-11.4825 -7.85748,-13.152756 -15.02117,-33.044465 -16.679,-46.313371 -0.75879,-6.073071 -2.10647,-6.981935 -6.69156,-4.512701 -4.63086,2.493886 -5.24258,4.188371 -3.05853,8.472276 1.01164,1.984262 1.83934,4.551457 1.83934,5.704877 0,1.153421 0.99783,5.388437 2.21739,9.411148 1.21957,4.022712 2.73944,9.212459 3.37748,11.532771 0.63804,2.320313 1.95359,5.973336 2.92343,8.117831 0.96984,2.144494 2.8201,9.527309 4.11168,16.406249 3.67181,19.55595 3.8557,20.41459 6.39299,29.85092 1.31711,4.89844 3.04454,12.28125 3.83872,16.40625 0.79417,4.125 2.72518,11.08247 4.29113,15.46104 3.41792,9.5569 3.45963,10.35551 0.67738,12.96929 -3.54394,3.32937 -5.1812,2.62263 -7.76591,-3.35221 -3.60316,-8.3291 -4.49362,-9.89405 -5.89347,-10.35748 -1.5744,-0.5212 -1.06348,5.97889 1.2746,16.216 1.26466,5.53716 1.31156,7.19523 0.3004,10.61981 -0.65903,2.23201 -1.72389,4.49444 -2.36634,5.02762 -2.06685,1.71534 -4.00448,0.0929 -4.00448,-3.35297 0,-4.51738 -0.82811,-6.19985 -3.05157,-6.19985 -1.82328,0 -1.88802,0.39279 -1.37354,8.33389 0.43539,6.72029 0.23536,8.93306 -1.03311,11.42854 -1.8925,3.72316 -3.18814,4.26978 -5.24506,2.21286 z M 65.344927,129.84066 c 2.059944,-1.44284 10.185634,-17.33352 14.84761,-29.03611 1.432766,-3.596572 3.74018,-8.464433 5.127588,-10.817482 1.387407,-2.353048 3.193068,-6.371343 4.012578,-8.929544 2.900524,-9.054328 7.055703,-25.34117 7.684569,-30.120813 0.552422,-4.198632 0.369422,-5.112522 -1.372575,-6.854515 -2.950934,-2.950933 -4.982862,-2.064225 -6.418315,2.80087 C 86.543837,55.974849 81.665194,65.758431 75,75.412503 74.226562,76.532774 72.328125,79.501979 70.78125,82.010737 69.234375,84.519493 64.488281,90.372102 60.234375,95.016534 55.980469,99.660966 52.5,104.01818 52.5,104.69922 c 0,2.67718 6.578882,0.43997 8.835946,-3.00474 C 62.708234,99.600094 67.5,97.948191 67.5,99.569484 c 0,0.479586 -1.022237,4.956246 -2.271637,9.948126 -2.559849,10.22766 -4.007008,21.73239 -2.733678,21.73239 0.460964,0 1.743572,-0.63421 2.850242,-1.40934 z m 94.010453,-6.32503 c -0.0108,-0.64454 -0.63044,-6.23438 -1.377,-12.42188 -0.74657,-6.1875 -1.37055,-14.4945 -1.38664,-18.460008 l -0.0292,-7.210007 -5.7011,-7.086868 c -8.06379,-10.023881 -10.05083,-9.279464 -6.95515,2.605656 0.77344,2.969427 1.39699,5.905719 1.38566,6.525093 -0.0756,4.139207 -9.28267,-23.186558 -11.60985,-34.457287 -1.35421,-6.55857 -3.28467,-9.289684 -6.16393,-8.720391 -4.47061,0.883941 4.33419,33.79346 14.40772,53.851368 2.37828,4.735524 4.32415,8.866944 4.32415,9.180914 0,0.75946 6.82859,11.52809 9.37681,14.78716 2.13806,2.73449 3.76105,3.34661 3.72857,1.40625 z M 193.125,99.606328 c 0,-1.004466 -4.74304,-5.3331 -7.38307,-6.737999 -7.02732,-3.739603 -19.85732,-16.445437 -26.5629,-26.305829 -2.62596,-3.861413 -4.89458,-6.203496 -6.1928,-6.393329 -3.27085,-0.478284 -2.57344,3.321027 1.68983,9.205829 2.05451,2.835937 4.77819,6.632812 6.05261,8.4375 5.98188,8.470754 11.34435,13.179773 20.20883,17.746266 8.48561,4.371309 12.1875,5.600734 12.1875,4.047562 z M 167.63691,48.095915 c 0.36181,-2.542977 -4.10532,-5.017656 -15.20294,-8.422037 -13.11,-4.02171 -25.57617,-2.749691 -22.50973,2.296838 2.61583,4.304928 18.49232,8.676865 30.38826,8.368058 6.46203,-0.167747 7.05498,-0.349321 7.32441,-2.242859 z m 18.92559,-1.195836 c 0,-3.957766 -3.47764,-10.609036 -6.66261,-12.742789 -1.48885,-0.997447 -2.70821,-2.129946 -2.70969,-2.516665 -0.005,-1.2411 5.62346,-0.750674 8.50889,0.741438 2.92463,1.51239 4.61341,1.175307 4.61341,-0.920847 0,-1.613488 -7.00523,-8.613995 -11.40641,-11.398722 -3.13688,-1.984768 -4.07923,-2.116841 -10.76997,-1.509415 -5.91764,0.53724 -7.39295,0.982205 -7.6467,2.306296 -0.24297,1.267858 0.32478,1.640625 2.4988,1.640625 1.93257,0 3.43015,0.784331 4.78409,2.505585 2.7464,3.491485 1.44443,4.025352 -9.85875,4.042559 -6.67973,0.01017 -9.96097,0.404982 -11.25,1.35365 -2.21276,1.628488 -2.18232,1.642464 9.35734,4.295799 10.48083,2.409878 18.66739,6.281959 23.51035,11.119927 4.63581,4.631025 7.03125,4.999837 7.03125,1.082559 z m 21.12872,-22.581664 c 1.10393,-1.786203 -1.5372,-6.317431 -5.13591,-8.811334 -10.56423,-7.3210174 -44.662,-10.38487 -46.29,-4.159385 -0.49313,1.885735 -0.2872,1.912454 9.73394,1.262957 10.77229,-0.698181 13.06325,-0.117243 13.06325,3.312562 0,1.286004 1.13301,1.764296 5.35477,2.26048 7.31195,0.859377 14.76577,3.127996 17.34574,5.279294 2.38796,1.991192 4.99387,2.367218 5.92821,0.855426 z"
     id="path4228"
     inkscape:connector-curvature="0" />
</svg>
