<?xml version="1.0" encoding="UTF-8" standalone="no"?>
<svg
   xmlns:dc="http://purl.org/dc/elements/1.1/"
   xmlns:cc="http://creativecommons.org/ns#"
   xmlns:rdf="http://www.w3.org/1999/02/22-rdf-syntax-ns#"
   xmlns:svg="http://www.w3.org/2000/svg"
   xmlns="http://www.w3.org/2000/svg"
   id="svg4513"
   version="1.1"
   viewBox="0 0 47.625003 13.229174"
   height="50.000027"
   width="180.00002">
  <title
     id="title5087">Minipix - Screw</title>
  <defs
     id="defs4507" />
  <metadata
     id="metadata4510">
    <rdf:RDF>
      <cc:Work
         rdf:about="">
        <dc:format>image/svg+xml</dc:format>
        <dc:type
           rdf:resource="http://purl.org/dc/dcmitype/StillImage" />
        <dc:title>Minipix - Screw</dc:title>
        <cc:license
           rdf:resource="http://creativecommons.org/publicdomain/zero/1.0/" />
        <dc:creator>
          <cc:Agent>
            <dc:title>Beagle Bros - Fred &amp; Sara Crone</dc:title>
          </cc:Agent>
        </dc:creator>
        <dc:publisher>
          <cc:Agent>
            <dc:title>Openclipart.org</dc:title>
          </cc:Agent>
        </dc:publisher>
        <dc:identifier>https://openclipart.org/</dc:identifier>
        <dc:source></dc:source>
        <dc:contributor>
          <cc:Agent>
            <dc:title>Arvin61r58 (https://openclipart.org/user-detail/Arvin61r58)</dc:title>
          </cc:Agent>
        </dc:contributor>
        <dc:subject>
          <rdf:Bag>
            <rdf:li>Beagle Bros</rdf:li>
            <rdf:li>Minipix</rdf:li>
            <rdf:li>retro</rdf:li>
            <rdf:li>old school</rdf:li>
            <rdf:li>OldSchool</rdf:li>
            <rdf:li>old skool</rdf:li>
            <rdf:li>OldSkool</rdf:li>
            <rdf:li>pixel art</rdf:li>
            <rdf:li>PixelArt</rdf:li>
            <rdf:li>one-bit</rdf:li>
            <rdf:li>1bit</rdf:li>
            <rdf:li>1-bit</rdf:li>
            <rdf:li>OneBit</rdf:li>
            <rdf:li>bitmap</rdf:li>
            <rdf:li>raster</rdf:li>
            <rdf:li>vectorized</rdf:li>
            <rdf:li>screw</rdf:li>
            <rdf:li>hardware</rdf:li>
          </rdf:Bag>
        </dc:subject>
        <dc:description>old school stye graphics - screw

This clipart is from Mixipix by Beagle Bros. Minipix was a three part clip-art collection for the Apple II version of the original Print Shop.  Original artist/authors are Fred &amp; Sara Crone.</dc:description>
      </cc:Work>
      <cc:License
         rdf:about="http://creativecommons.org/publicdomain/zero/1.0/">
        <cc:permits
           rdf:resource="http://creativecommons.org/ns#Reproduction" />
        <cc:permits
           rdf:resource="http://creativecommons.org/ns#Distribution" />
        <cc:permits
           rdf:resource="http://creativecommons.org/ns#DerivativeWorks" />
      </cc:License>
    </rdf:RDF>
  </metadata>
  <g
     transform="translate(-81.1875,-141.88541)"
     id="layer1">
    <g
       transform="translate(34.379209,-6.6467338)"
       id="g5085">
      <path
         id="path5079"
         d="m 48.131208,158.32173 v -2.11667 h 0.79375 0.79375 v -1.05833 -1.05833 h -0.79375 -0.79375 v -2.11667 -2.11667 h 2.38125 2.381251 v 0.26459 0.26458 h 0.264583 0.264583 v 0.26459 0.26458 h 0.264584 0.264583 v 0.26458 0.26458 h 0.264584 0.264583 v 0.26459 0.26458 h 0.264583 0.264583 v 0.26458 0.26459 h 0.264584 0.264583 v 0.26458 0.26459 h 0.529167 0.529167 v -0.26459 -0.26458 h 0.264583 0.264584 v -0.26459 -0.26458 h 1.322916 1.322917 v 0.52917 0.52917 h 0.529167 0.529167 v -0.26459 -0.26458 h 0.264583 0.264583 v -0.26459 -0.26458 h 1.322917 1.322917 v 0.52917 0.52917 h 0.529167 0.529167 v -0.26459 -0.26458 h 0.264583 0.264583 v -0.26459 -0.26458 h 1.322917 1.322917 v 0.52917 0.52917 h 0.529167 0.529166 v -0.26459 -0.26458 h 0.264584 0.264583 v -0.26459 -0.26458 h 1.322917 1.322917 v 0.52917 0.52917 h 0.529166 0.529167 v -0.26459 -0.26458 h 0.264584 0.264583 v -0.26459 -0.26458 h 1.322917 1.322917 v 0.52917 0.52917 h 0.529166 0.529167 v -0.26459 -0.26458 h 0.264583 0.264584 v -0.26459 -0.26458 h 1.322917 1.322917 v 0.52917 0.52917 h 0.529166 0.529167 v -0.26459 -0.26458 h 0.264583 0.264584 v -0.26459 -0.26458 h 1.322916 1.322917 v 0.52917 0.52917 h 0.529168 0.529166 v -0.26459 -0.26458 h 1.322918 1.322914 v 0.52917 0.52916 h 0.793751 0.793751 v -0.26458 -0.26458 h 0.793748 0.793751 v 0.52916 0.52917 H 91.787465 91.52288 v 0.26458 0.26458 h 0.793751 0.793748 v 0.52917 0.52917 h -0.529166 -0.529167 v 0.26458 0.26458 H 91.787465 91.52288 v 0.26459 0.26458 h -0.264585 -0.264581 v 0.26459 0.26458 h -0.529167 -0.529166 v -0.26458 -0.26459 h -0.529166 -0.52917 v 0.26459 0.26458 h -0.264581 -0.264585 v 0.26458 0.26459 h -1.058333 -1.058333 v -0.26459 -0.26458 h -0.793751 -0.793749 v 0.26458 0.26459 h -0.264584 -0.264583 v 0.26458 0.26458 h -1.322917 -1.322917 v -0.52916 -0.52917 h -0.529166 -0.529167 v 0.26458 0.26459 h -0.264584 -0.264583 v 0.26458 0.26458 h -1.322917 -1.322917 v -0.52916 -0.52917 h -0.529166 -0.529167 v 0.26458 0.26459 h -0.264583 -0.264584 v 0.26458 0.26458 h -1.322917 -1.322917 v -0.52916 -0.52917 h -0.529166 -0.529167 v 0.26458 0.26459 h -0.264583 -0.264584 v 0.26458 0.26458 h -1.322916 -1.322917 v -0.52916 -0.52917 h -0.529167 -0.529167 v 0.26458 0.26459 H 67.445794 67.18121 v 0.26458 0.26458 h -1.322917 -1.322916 v -0.52916 -0.52917 H 64.00621 63.477043 v 0.26458 0.26459 H 63.21246 62.947877 v 0.26458 0.26458 H 61.62496 60.302043 v -0.52916 -0.52917 H 59.772876 59.24371 v 0.26458 0.26459 h -0.264584 -0.264583 v 0.26458 0.26458 h -1.322917 -1.322917 v -0.52916 -0.52917 h -0.264583 -0.264584 v 0.26458 0.26459 h -0.264583 -0.264584 v 0.26458 0.26458 h -0.264583 -0.264583 v 0.26458 0.26459 h -0.264583 -0.264584 v 0.26458 0.26459 h -0.264583 -0.264584 v 0.26458 0.26458 h -0.264583 -0.264583 v 0.26459 0.26458 h -2.381251 -2.38125 z"
         style="fill:#ffffff;stroke-width:0.13229167" />
      <path
         id="path5077"
         d="m 48.131208,158.32173 v -2.11667 h 0.79375 0.79375 v -1.05833 -1.05833 h -0.79375 -0.79375 v -2.11667 -2.11667 h 2.38125 2.381251 v 0.26459 0.26458 h 0.264583 0.264583 v 0.26459 0.26458 h 0.264584 0.264583 v 0.26458 0.26458 h 0.264584 0.264583 v 0.26459 0.26458 h 0.264583 0.264583 v 0.26458 0.26459 h 0.264584 0.264583 v 0.26458 0.26459 h 0.529167 0.529167 v -0.26459 -0.26458 h 0.264583 0.264584 v -0.26459 -0.26458 h 1.322916 1.322917 v 0.52917 0.52917 h 0.529167 0.529167 v -0.26459 -0.26458 h 0.264583 0.264583 v -0.26459 -0.26458 h 1.322917 1.322917 v 0.52917 0.52917 h 0.529167 0.529167 v -0.26459 -0.26458 h 0.264583 0.264583 v -0.26459 -0.26458 h 1.322917 1.322917 v 0.52917 0.52917 h 0.529167 0.529166 v -0.26459 -0.26458 h 0.264584 0.264583 v -0.26459 -0.26458 h 1.322917 1.322917 v 0.52917 0.52917 h 0.529166 0.529167 v -0.26459 -0.26458 h 0.264584 0.264583 v -0.26459 -0.26458 h 1.322917 1.322917 v 0.52917 0.52917 h 0.529166 0.529167 v -0.26459 -0.26458 h 0.264583 0.264584 v -0.26459 -0.26458 h 1.322917 1.322917 v 0.52917 0.52917 h 0.529166 0.529167 v -0.26459 -0.26458 h 0.264583 0.264584 v -0.26459 -0.26458 h 1.322916 1.322917 v 0.52917 0.52917 h 0.529168 0.529166 v -0.26459 -0.26458 h 1.322918 1.322914 v 0.52917 0.52916 h 0.793751 0.793751 v -0.26458 -0.26458 h 0.793748 0.793751 v 0.52916 0.52917 H 91.787465 91.52288 v 0.26458 0.26458 h 0.793751 0.793748 v 0.52917 0.52917 h -0.529166 -0.529167 v 0.26458 0.26458 H 91.787465 91.52288 v 0.26459 0.26458 h -0.264585 -0.264581 v 0.26459 0.26458 h -0.529167 -0.529166 v -0.26458 -0.26459 h -0.529166 -0.52917 v 0.26459 0.26458 h -0.264581 -0.264585 v 0.26458 0.26459 h -1.058333 -1.058333 v -0.26459 -0.26458 h -0.793751 -0.793749 v 0.26458 0.26459 h -0.264584 -0.264583 v 0.26458 0.26458 h -1.322917 -1.322917 v -0.52916 -0.52917 h -0.529166 -0.529167 v 0.26458 0.26459 h -0.264584 -0.264583 v 0.26458 0.26458 h -1.322917 -1.322917 v -0.52916 -0.52917 h -0.529166 -0.529167 v 0.26458 0.26459 h -0.264583 -0.264584 v 0.26458 0.26458 h -1.322917 -1.322917 v -0.52916 -0.52917 h -0.529166 -0.529167 v 0.26458 0.26459 h -0.264583 -0.264584 v 0.26458 0.26458 h -1.322916 -1.322917 v -0.52916 -0.52917 h -0.529167 -0.529167 v 0.26458 0.26459 H 67.445794 67.18121 v 0.26458 0.26458 h -1.322917 -1.322916 v -0.52916 -0.52917 H 64.00621 63.477043 v 0.26458 0.26459 H 63.21246 62.947877 v 0.26458 0.26458 H 61.62496 60.302043 v -0.52916 -0.52917 H 59.772876 59.24371 v 0.26458 0.26459 h -0.264584 -0.264583 v 0.26458 0.26458 h -1.322917 -1.322917 v -0.52916 -0.52917 h -0.264583 -0.264584 v 0.26458 0.26459 h -0.264583 -0.264584 v 0.26458 0.26458 h -0.264583 -0.264583 v 0.26458 0.26459 h -0.264583 -0.264584 v 0.26458 0.26459 h -0.264583 -0.264584 v 0.26458 0.26458 h -0.264583 -0.264583 v 0.26459 0.26458 h -2.381251 -2.38125 z m 3.704167,-3.175 v -4.7625 h -1.5875 -1.5875 v 1.5875 1.5875 h 0.79375 0.79375 v 1.5875 1.5875 h -0.79375 -0.79375 v 1.5875 1.5875 h 1.5875 1.5875 z m 1.058334,3.96875 v -0.26458 h 0.264583 0.264583 v -0.26459 -0.26458 h 0.264584 0.264583 v -0.26458 -0.26458 h 0.264584 0.264583 v -0.26459 -0.26458 h 0.264583 0.264583 v -2.11667 -2.11666 h -0.264583 -0.264583 v -0.26459 -0.26458 h -0.264583 -0.264584 v -0.26459 -0.26458 h -0.264583 -0.264584 v -0.26458 -0.26459 h -0.264583 -0.264583 v -0.26458 -0.26458 h -0.264584 -0.264583 v 4.23333 4.23334 h 0.264583 0.264584 z m 5.291667,-1.5875 v -0.26458 h 0.264583 0.264584 v -0.26458 -0.26459 h 0.264583 0.264584 v -0.26458 -0.26459 h 0.264583 0.264583 v -0.26458 -0.26458 h 0.264583 0.264584 v -0.26458 -0.26459 h 0.264583 0.264584 v -0.26458 -0.26459 h 0.264583 0.264583 v -0.26458 -0.26458 h 0.264584 0.264583 v -0.26459 -0.26458 h 0.264583 0.264584 v -0.26458 -0.26458 h 0.264583 0.264584 v -0.26459 -0.26458 H 62.41871 61.889543 v 0.26458 0.26459 H 61.62496 61.360376 v 0.26458 0.26458 H 61.095793 60.83121 v 0.26458 0.26459 h -0.264584 -0.264583 v 0.26458 0.26458 h -0.264584 -0.264583 v 0.26459 0.26458 H 59.508293 59.24371 v 0.26459 0.26458 h -0.264584 -0.264583 v 0.26458 0.26458 h -0.264584 -0.264583 v 0.26459 0.26458 h -0.264583 -0.264584 v 0.26459 0.26458 h -0.264583 -0.264583 v 0.26458 0.26459 h 0.529166 0.529167 z m 4.233334,0 v -0.26458 h 0.264583 0.264584 v -0.26458 -0.26459 h 0.264583 0.264583 v -0.26458 -0.26459 h 0.264584 0.264583 v -0.26458 -0.26458 h 0.264583 0.264584 v -0.26458 -0.26459 h 0.264583 0.264584 v -0.26458 -0.26459 h 0.264583 0.264583 v -0.26458 -0.26458 h 0.264583 0.264584 v -0.26459 -0.26458 h 0.264583 0.264584 v -0.26458 -0.26458 h 0.264583 0.264583 v -0.26459 -0.26458 h -0.529166 -0.529167 v 0.26458 0.26459 H 65.858293 65.59371 v 0.26458 0.26458 h -0.264583 -0.264583 v 0.26458 0.26459 H 64.79996 64.535377 v 0.26458 0.26458 H 64.270793 64.00621 v 0.26459 0.26458 h -0.264583 -0.264584 v 0.26459 0.26458 H 63.21246 62.947877 v 0.26458 0.26458 H 62.683293 62.41871 v 0.26459 0.26458 h -0.264584 -0.264583 v 0.26459 0.26458 H 61.62496 61.360376 v 0.26458 0.26459 h 0.529167 0.529167 z m 4.233334,0 v -0.26458 h 0.264583 0.264583 v -0.26458 -0.26459 h 0.264584 0.264583 v -0.26458 -0.26459 h 0.264583 0.264584 v -0.26458 -0.26458 h 0.264583 0.264584 v -0.26458 -0.26459 h 0.264583 0.264583 v -0.26458 -0.26459 h 0.264584 0.264583 v -0.26458 -0.26458 h 0.264584 0.264583 v -0.26459 -0.26458 h 0.264583 0.264584 v -0.26458 -0.26458 h 0.264583 0.264583 v -0.26459 -0.26458 h -0.529166 -0.529167 v 0.26458 0.26459 h -0.264583 -0.264584 v 0.26458 0.26458 h -0.264583 -0.264584 v 0.26458 0.26459 h -0.264583 -0.264583 v 0.26458 0.26458 h -0.264584 -0.264583 v 0.26459 0.26458 H 67.97496 67.710377 v 0.26459 0.26458 H 67.445794 67.18121 v 0.26458 0.26458 h -0.264583 -0.264583 v 0.26459 0.26458 H 66.38746 66.122877 v 0.26459 0.26458 H 65.858293 65.59371 v 0.26458 0.26459 h 0.529167 0.529167 z m 4.233334,0 v -0.26458 h 0.264583 0.264583 v -0.26458 -0.26459 h 0.264584 0.264583 v -0.26458 -0.26459 h 0.264584 0.264583 v -0.26458 -0.26458 h 0.264583 0.264583 v -0.26458 -0.26459 h 0.264584 0.264583 v -0.26458 -0.26459 h 0.264584 0.264583 v -0.26458 -0.26458 h 0.264583 0.264584 v -0.26459 -0.26458 h 0.264583 0.264583 v -0.26458 -0.26458 h 0.264584 0.264583 v -0.26459 -0.26458 h -0.529167 -0.529166 v 0.26458 0.26459 h -0.264584 -0.264583 v 0.26458 0.26458 h -0.264583 -0.264584 v 0.26458 0.26459 h -0.264583 -0.264584 v 0.26458 0.26458 h -0.264583 -0.264583 v 0.26459 0.26458 h -0.264583 -0.264584 v 0.26459 0.26458 h -0.264583 -0.264584 v 0.26458 0.26458 h -0.264583 -0.264583 v 0.26459 0.26458 h -0.264584 -0.264583 v 0.26459 0.26458 h -0.264583 -0.264584 v 0.26458 0.26459 h 0.529167 0.529167 z m 4.233333,0 v -0.26458 h 0.264584 0.264583 v -0.26458 -0.26459 h 0.264584 0.264583 v -0.26458 -0.26459 h 0.264583 0.264584 v -0.26458 -0.26458 h 0.264583 0.264583 v -0.26458 -0.26459 h 0.264584 0.264583 v -0.26458 -0.26459 h 0.264583 0.264584 v -0.26458 -0.26458 h 0.264583 0.264583 v -0.26459 -0.26458 h 0.264584 0.264583 v -0.26458 -0.26458 h 0.264584 0.264583 v -0.26459 -0.26458 h -0.529167 -0.529167 v 0.26458 0.26459 h -0.264583 -0.264583 v 0.26458 0.26458 h -0.264584 -0.264583 v 0.26458 0.26459 h -0.264583 -0.264584 v 0.26458 0.26458 h -0.264583 -0.264583 v 0.26459 0.26458 h -0.264584 -0.264583 v 0.26459 0.26458 h -0.264583 -0.264584 v 0.26458 0.26458 h -0.264583 -0.264584 v 0.26459 0.26458 h -0.264583 -0.264583 v 0.26459 0.26458 h -0.264584 -0.264583 v 0.26458 0.26459 h 0.529167 0.529166 z m 4.233334,0 v -0.26458 h 0.264584 0.264583 v -0.26458 -0.26459 h 0.264583 0.264584 v -0.26458 -0.26459 h 0.264583 0.264584 v -0.26458 -0.26458 h 0.264583 0.264583 v -0.26458 -0.26459 h 0.264584 0.264583 v -0.26458 -0.26459 h 0.264583 0.264584 v -0.26458 -0.26458 h 0.264583 0.264584 v -0.26459 -0.26458 h 0.264583 0.264583 v -0.26458 -0.26458 h 0.264583 0.264584 v -0.26459 -0.26458 h -0.529167 -0.529166 v 0.26458 0.26459 h -0.264584 -0.264583 v 0.26458 0.26458 h -0.264584 -0.264583 v 0.26458 0.26459 h -0.264583 -0.264584 v 0.26458 0.26458 h -0.264583 -0.264583 v 0.26459 0.26458 h -0.264584 -0.264583 v 0.26459 0.26458 h -0.264584 -0.264583 v 0.26458 0.26458 h -0.264583 -0.264584 v 0.26459 0.26458 h -0.264583 -0.264584 v 0.26459 0.26458 h -0.264583 -0.264583 v 0.26458 0.26459 h 0.529166 0.529167 z m 4.233334,-0.26458 v -0.52917 h 0.529167 0.529167 v -0.26458 -0.26459 h 0.264583 0.264583 v -0.26458 -0.26458 h 0.264583 0.264585 v -0.26458 -0.26459 h 0.264581 0.264585 v -0.26458 -0.26459 h 0.264582 0.264585 v -0.26458 -0.26458 h 0.264585 0.264581 v -0.26459 -0.26458 h 0.264585 0.264581 v -0.26458 -0.26458 H 87.289546 86.76038 v 0.26458 0.26458 h -0.264585 -0.264582 v 0.26458 0.26459 h -0.264585 -0.264581 v 0.26458 0.26458 h -0.264585 -0.264583 v 0.26459 0.26458 h -0.264583 -0.264583 v 0.26459 0.26458 h -0.264584 -0.264583 v 0.26458 0.26458 h -0.264584 -0.264583 v 0.26459 0.26458 h -0.264583 -0.264583 v 0.26459 0.26458 h -0.264584 -0.264583 v 0.26458 0.26459 h 0.529167 0.529166 z m 4.233333,-0.26458 v -0.26459 h 0.264585 0.264582 v -0.26458 -0.26459 h 0.264585 0.264581 v -0.26458 -0.26458 h 0.264585 0.264585 v -0.26458 -0.26459 h 0.264581 0.264585 v -0.26458 -0.26459 h 0.264581 0.264585 v -0.26458 -0.26458 h 0.264582 0.264585 v -0.26459 -0.26458 h -0.264585 -0.264582 v 0.26458 0.26459 h -0.264585 -0.264581 v 0.26458 0.26458 h -0.264585 -0.264581 v 0.26459 0.26458 H 89.14163 88.877045 v 0.26459 0.26458 h -0.264581 -0.264585 v 0.26458 0.26458 h -0.264582 -0.264585 v 0.26459 0.26458 h -0.264581 -0.264585 v 0.26459 0.26458 h 0.264585 0.264581 z m -30.691669,-0.52917 v -0.26459 h 0.264583 0.264583 v -0.26458 -0.26458 h 0.264584 0.264583 v -0.26458 -0.26459 h 0.264583 0.264584 v -0.26458 -0.26459 h 0.264583 0.264584 v -0.26458 -0.26458 h 0.264583 0.264583 v -0.26459 -0.26458 H 59.24371 58.714543 v 0.26458 0.26459 h -0.264584 -0.264583 v 0.26458 0.26458 h -0.264583 -0.264584 v 0.26459 0.26458 h -0.264583 -0.264583 v 0.26459 0.26458 h -0.264584 -0.264583 v 0.26458 0.26458 h -0.264584 -0.264583 v 0.26459 0.26458 h 0.529167 0.529167 z m 4.233333,0 v -0.26459 h 0.264584 0.264583 v -0.26458 -0.26458 h 0.264583 0.264584 v -0.26458 -0.26459 h 0.264583 0.264584 v -0.26458 -0.26459 h 0.264583 0.264583 v -0.26458 -0.26458 h 0.264584 0.264583 v -0.26459 -0.26458 h -0.529167 -0.529166 v 0.26458 0.26459 H 62.683293 62.41871 v 0.26458 0.26458 h -0.264584 -0.264583 v 0.26459 0.26458 H 61.62496 61.360376 v 0.26459 0.26458 H 61.095793 60.83121 v 0.26458 0.26458 h -0.264584 -0.264583 v 0.26459 0.26458 h 0.529167 0.529166 z m 4.233334,0 v -0.26459 h 0.264583 0.264584 v -0.26458 -0.26458 h 0.264583 0.264584 v -0.26458 -0.26459 h 0.264583 0.264583 v -0.26458 -0.26459 h 0.264584 0.264583 v -0.26458 -0.26458 h 0.264583 0.264584 v -0.26459 -0.26458 H 67.710377 67.18121 v 0.26458 0.26459 h -0.264583 -0.264583 v 0.26458 0.26458 H 66.38746 66.122877 v 0.26459 0.26458 H 65.858293 65.59371 v 0.26459 0.26458 h -0.264583 -0.264583 v 0.26458 0.26458 H 64.79996 64.535377 v 0.26459 0.26458 h 0.529167 0.529166 z m 4.233334,0 v -0.26459 h 0.264584 0.264583 v -0.26458 -0.26458 h 0.264583 0.264584 v -0.26458 -0.26459 h 0.264583 0.264583 v -0.26458 -0.26459 h 0.264584 0.264583 v -0.26458 -0.26458 h 0.264584 0.264583 v -0.26459 -0.26458 h -0.529167 -0.529167 v 0.26458 0.26459 h -0.264583 -0.264583 v 0.26458 0.26458 h -0.264584 -0.264583 v 0.26459 0.26458 h -0.264583 -0.264584 v 0.26459 0.26458 h -0.264583 -0.264584 v 0.26458 0.26458 h -0.264583 -0.264583 v 0.26459 0.26458 h 0.529166 0.529167 z m 4.233334,0 v -0.26459 h 0.264583 0.264584 v -0.26458 -0.26458 h 0.264583 0.264583 v -0.26458 -0.26459 h 0.264584 0.264583 v -0.26458 -0.26459 h 0.264584 0.264583 v -0.26458 -0.26458 h 0.264583 0.264584 v -0.26459 -0.26458 h -0.529167 -0.529167 v 0.26458 0.26459 h -0.264583 -0.264584 v 0.26458 0.26458 h -0.264583 -0.264583 v 0.26459 0.26458 h -0.264584 -0.264583 v 0.26459 0.26458 h -0.264583 -0.264584 v 0.26458 0.26458 h -0.264583 -0.264584 v 0.26459 0.26458 h 0.529167 0.529167 z m 4.233334,0 v -0.26459 h 0.264583 0.264583 v -0.26458 -0.26458 h 0.264584 0.264583 v -0.26458 -0.26459 h 0.264584 0.264583 v -0.26458 -0.26459 h 0.264583 0.264584 v -0.26458 -0.26458 h 0.264583 0.264584 v -0.26459 -0.26458 h -0.529167 -0.529167 v 0.26458 0.26459 h -0.264583 -0.264584 v 0.26458 0.26458 h -0.264583 -0.264584 v 0.26459 0.26458 h -0.264583 -0.264583 v 0.26459 0.26458 h -0.264584 -0.264583 v 0.26458 0.26458 h -0.264583 -0.264584 v 0.26459 0.26458 h 0.529167 0.529167 z m 4.233334,0 v -0.26459 h 0.264583 0.264584 v -0.26458 -0.26458 h 0.264583 0.264583 v -0.26458 -0.26459 h 0.264583 0.264584 v -0.26458 -0.26459 h 0.264583 0.264584 v -0.26458 -0.26458 h 0.264583 0.264583 v -0.26459 -0.26458 h -0.529166 -0.529167 v 0.26458 0.26459 h -0.264584 -0.264583 v 0.26458 0.26458 h -0.264583 -0.264583 v 0.26459 0.26458 h -0.264584 -0.264583 v 0.26459 0.26458 h -0.264584 -0.264583 v 0.26458 0.26458 h -0.264583 -0.264584 v 0.26459 0.26458 h 0.529167 0.529167 z m 4.233334,0 v -0.26459 h 0.264585 0.264581 v -0.26458 -0.26458 h 0.264585 0.264581 v -0.26458 -0.26459 h 0.264585 0.264582 v -0.26458 -0.26459 h 0.264585 0.264581 v -0.26458 -0.26458 h -0.529166 -0.529167 v 0.26458 0.26458 h -0.264581 -0.264585 v 0.26459 0.26458 H 87.024965 86.76038 v 0.26459 0.26458 h -0.264585 -0.264582 v 0.26458 0.26458 h -0.264585 -0.264581 v 0.26459 0.26458 h 0.529166 0.529167 z m 4.233334,0 v -0.26459 h 0.264581 0.264585 v -0.26458 -0.26458 h 0.264585 0.264581 v -0.26458 -0.26459 H 91.787465 91.52288 v 0.26459 0.26458 h -0.264585 -0.264581 v 0.26458 0.26458 h -0.264585 -0.264582 v 0.26459 0.26458 h 0.264582 0.264585 z m -34.925005,-1.05833 v -0.26459 h 0.264583 0.264584 v -0.26458 -0.26459 h 0.264583 0.264584 v -0.26458 -0.26458 h 0.264583 0.264583 v -0.26459 -0.26458 h 0.264584 0.264583 v -0.26458 -0.26458 h 0.264583 0.264584 v -0.26459 -0.26458 h -0.529167 -0.529167 v 0.26458 0.26459 h -0.264583 -0.264583 v 0.26458 0.26458 h -0.264584 -0.264583 v 0.26458 0.26459 h -0.264584 -0.264583 v 0.26458 0.26458 h -0.264583 -0.264584 v 0.52917 0.52917 h 0.264584 0.264583 z"
         style="fill:#000000;stroke-width:0.13229167" />
    </g>
  </g>
</svg>
