<?xml version="1.0" encoding="UTF-8" standalone="no"?>
<svg xmlns:rdf="http://www.w3.org/1999/02/22-rdf-syntax-ns#" xmlns="http://www.w3.org/2000/svg" height="868.9" viewBox="0 0 634.85938 868.89843" width="634.86" version="1.1" xmlns:cc="http://creativecommons.org/ns#" xmlns:dc="http://purl.org/dc/elements/1.1/">
<path d="m309.31 0-84 84v16l48 48h20v-20l-36-36 60-60 60 60-36 36v20h20l48-48v-16l-84-84h-16zm-64 164v56h144v-56h-144zm16 8h12v36h-12v-36zm56.117 62.039a317.43 317.43 0 0 0 -303.67 225.26c32.963-9.4684 66.945-15.31 99.773-16.039 41.481-0.92164 81.094 6.2262 114.4 24.211 81.54-28.596 173.39-35.969 240 0 48.086-16.864 99.752-26.333 147.72-23.898a317.43 317.43 0 0 0 -298.22 -209.53zm-303.74 225.54a317.43 317.43 0 0 0 -6.25 25.625 317.43 317.43 0 0 1 6.25 -25.625zm-6.25 25.625a317.43 317.43 0 0 0 -4.5474 25.97 317.43 317.43 0 0 1 4.5469 -25.97zm-4.5474 25.97a317.43 317.43 0 0 0 -2.8906 40.3 317.43 317.43 0 0 0 2.0547 32.85c22.131-8.0372 42.24-17.236 59.547-26.289-11.077-11.82-23.126-22.73-36.071-32.6-7.443-5.29-15.006-9.99-22.64-14.26zm107.75-31.617c-29.813 0.66392-59.177 5.707-87.039 13.32 19.538 17.059 36.54 36.689 50.57 58.328 20.45-11.448 36.071-22.034 45.148-28.789 3.7994-2.6702 7.7304-5.2852 11.727-7.875-6.3282-11.232-11.936-22.897-16.688-34.977-1.2387 0.0121-2.4815-0.0358-3.7188-0.008zm240 0c-29.813 0.66392-59.177 5.707-87.039 13.32 19.538 17.059 36.54 36.689 50.57 58.328 20.45-11.448 36.071-22.034 45.148-28.789 3.7994-2.6702 7.7304-5.2852 11.727-7.875-6.3282-11.232-11.936-22.897-16.688-34.977-1.2387 0.0121-2.4815-0.0358-3.7188-0.008zm240 0c-29.813 0.66392-59.177 5.707-87.039 13.32 19.538 17.059 36.54 36.689 50.57 58.328 20.45-11.448 36.071-22.034 45.148-28.789 3.7994-2.6702 7.7304-5.2852 11.727-7.875-6.3282-11.232-11.936-22.897-16.688-34.977-1.2386 0.0121-2.4815-0.0358-3.7187-0.008zm-471.46 0.0156c6.4626 10.149 13.554 19.856 21.188 29.109 12.751-7.7748 26.332-15.111 40.531-21.859-20.493-4.9434-41.179-7.1268-61.719-7.25zm240 0c6.4626 10.149 13.554 19.856 21.188 29.109 12.751-7.7748 26.332-15.111 40.531-21.859-20.493-4.9434-41.179-7.1268-61.719-7.25zm240 0c6.4626 10.149 13.554 19.856 21.188 29.109 3.4295-2.091 6.9312-4.1472 10.477-6.1719a317.43 317.43 0 0 0 -4.3047 -21.469c-9.1296-0.9246-18.258-1.4144-27.359-1.4688zm-370.28 24.289c-23.908 8.6317-46.138 18.797-65.969 29.211 8.1348 7.8487 16.722 15.258 25.75 22.141 17.185 12.219 34.603 21.945 52.086 29.602 22.653-8.1484 43.186-17.548 60.836-26.781-11.076-11.816-23.126-22.733-36.07-32.602-11.966-8.508-24.21-15.628-36.633-21.57zm240 0c-23.908 8.6317-46.138 18.797-65.969 29.211 8.1348 7.8487 16.722 15.258 25.75 22.141 17.185 12.219 34.603 21.945 52.086 29.602 22.653-8.1484 43.186-17.548 60.836-26.781-11.076-11.816-23.126-22.733-36.07-32.602-11.966-8.508-24.21-15.628-36.633-21.57zm-320.82 37.27c-15.948 9.0036-29.947 17.944-41.438 25.992-5.4888 3.7384-11.24 7.3521-17.141 10.883 4.8688 9.7073 9.1802 19.715 12.914 29.992 34.724 1.4013 68.274-3.2456 99.18-11.125-20.446-16.081-38.417-34.863-53.516-55.742zm240 0c-15.948 9.0036-29.947 17.944-41.438 25.992-5.4888 3.7384-11.24 7.3521-17.141 10.883 4.8688 9.7073 9.1802 19.715 12.914 29.992 34.724 1.4013 68.274-3.2456 99.18-11.125-20.446-16.081-38.417-34.863-53.516-55.742zm240 0c-15.948 9.0036-29.947 17.944-41.437 25.992-5.4888 3.7384-11.24 7.3521-17.141 10.883 4.8688 9.7073 9.1802 19.715 12.914 29.992 16.095 0.64956 31.922-0.0497 47.367-1.7188a317.43 317.43 0 0 0 5.0781 -54.812 317.43 317.43 0 0 0 -0.0547 -1.4531c-2.2952-2.9214-4.5496-5.8724-6.7266-8.8828zm-546.04 41.22c-11.269 6.3945-23.168 12.387-35.555 17.922 17.73 4.294 35.363 6.6764 52.719 7.5625-5.2781-8.8059-11.017-17.307-17.164-25.484zm240 0c-11.269 6.3945-23.168 12.387-35.555 17.922 17.73 4.294 35.363 6.6764 52.719 7.5625-5.2781-8.8059-11.017-17.307-17.164-25.484zm240 0c-11.269 6.3945-23.168 12.387-35.555 17.922 17.73 4.294 35.363 6.6764 52.719 7.5625-5.2781-8.8059-11.017-17.307-17.164-25.484zm-559.97 2.06a317.43 317.43 0 0 0 2.9844 19.09 317.43 317.43 0 0 1 -2.9844 -19.09zm2.9844 19.09a317.43 317.43 0 0 0 3.4219 19.09 317.43 317.43 0 0 1 -3.4219 -19.09zm624.7 2.9141a317.43 317.43 0 0 1 -3.7266 16.398 317.43 317.43 0 0 0 3.7266 -16.398zm-3.7266 16.398a317.43 317.43 0 0 1 -3.5937 15.578 317.43 317.43 0 0 0 3.5937 -15.578zm-388.46-3.93c-76.67 24.36-162.7 30.39-228.86 4.68a317.43 317.43 0 0 0 308.73 245.34 317.43 317.43 0 0 0 304.98 -230.41c-52.048 4.8848-103.07-0.3844-144.85-19.617-81.048 25.758-172.56 31.044-240 0z"/>
</svg>
