<?xml version="1.0" encoding="UTF-8" standalone="no"?>
<!-- Created with Inkscape (http://www.inkscape.org/) -->
<!-- ClipArt by Arvin61r58 (http://openclipart.org/user-detail/Arvin61r58) -->
<svg
   xmlns:dc="http://purl.org/dc/elements/1.1/"
   xmlns:cc="http://creativecommons.org/ns#"
   xmlns:rdf="http://www.w3.org/1999/02/22-rdf-syntax-ns#"
   xmlns:svg="http://www.w3.org/2000/svg"
   xmlns="http://www.w3.org/2000/svg"
   height="330"
   width="330"
   x="0px"
   y="0px"
   version="1.1"
   viewBox="0 0 330 330"
   xml:space="preserve"
   enable-background="new 0 0 360 360"
   id="Layer_1"><defs
   id="defs4302" />
<rect
   style="opacity:1;fill:#000000;fill-opacity:1;fill-rule:nonzero;stroke:none;stroke-width:6;stroke-miterlimit:4;stroke-dasharray:none;stroke-opacity:1"
   id="rect4884"
   width="300"
   height="300"
   x="15"
   y="15" /><rect
   y="44.499992"
   x="44.5"
   height="241.00002"
   width="241"
   id="rect4927"
   style="opacity:1;fill:none;fill-opacity:1;fill-rule:nonzero;stroke:#ffffff;stroke-width:4;stroke-miterlimit:4;stroke-dasharray:none;stroke-opacity:1" />
<metadata
   id="metadata4298"><rdf:RDF><cc:Work><dc:format>image/svg+xml</dc:format><dc:type
         rdf:resource="http://purl.org/dc/dcmitype/StillImage" /><cc:license
         rdf:resource="http://creativecommons.org/publicdomain/zero/1.0/" /><dc:publisher><cc:Agent
           rdf:about="http://openclipart.org/"><dc:title>Openclipart.org</dc:title></cc:Agent></dc:publisher><dc:title></dc:title><dc:date>2012-12-06T21:24:16</dc:date><dc:description>decorative square ornament</dc:description><dc:source>https://openclipart.org/user-detail/Arvin61r58</dc:source><dc:creator><cc:Agent><dc:title>Arvin61r58</dc:title></cc:Agent></dc:creator><dc:subject><rdf:Bag><rdf:li>decoration</rdf:li><rdf:li>decorative</rdf:li><rdf:li>design</rdf:li><rdf:li>emblem</rdf:li><rdf:li>ornament</rdf:li><rdf:li>pattern</rdf:li><rdf:li>square</rdf:li><rdf:li>monotone</rdf:li><rdf:li>monochrome</rdf:li><rdf:li>black &amp; white</rdf:li><rdf:li>black and white</rdf:li><rdf:li>grey scale</rdf:li><rdf:li>GreyScale</rdf:li><rdf:li>GrayScale</rdf:li></rdf:Bag></dc:subject><dc:identifier>https://openclipart.org/</dc:identifier></cc:Work><cc:License
       rdf:about="http://creativecommons.org/publicdomain/zero/1.0/"><cc:permits
         rdf:resource="http://creativecommons.org/ns#Reproduction" /><cc:permits
         rdf:resource="http://creativecommons.org/ns#Distribution" /><cc:permits
         rdf:resource="http://creativecommons.org/ns#DerivativeWorks" /></cc:License></rdf:RDF></metadata><path
   style="color:#000000;font-style:normal;font-variant:normal;font-weight:normal;font-stretch:normal;font-size:medium;line-height:normal;font-family:sans-serif;text-indent:0;text-align:start;text-decoration:none;text-decoration-line:none;text-decoration-style:solid;text-decoration-color:#000000;letter-spacing:normal;word-spacing:normal;text-transform:none;direction:ltr;block-progression:tb;writing-mode:lr-tb;baseline-shift:baseline;text-anchor:start;white-space:normal;clip-rule:nonzero;display:inline;overflow:visible;visibility:visible;opacity:1;isolation:auto;mix-blend-mode:normal;color-interpolation:sRGB;color-interpolation-filters:linearRGB;solid-color:#000000;solid-opacity:1;fill:#ffffff;fill-opacity:1;fill-rule:nonzero;stroke:none;stroke-width:8;stroke-linecap:butt;stroke-linejoin:miter;stroke-miterlimit:4;stroke-dasharray:none;stroke-dashoffset:0;stroke-opacity:1;color-rendering:auto;image-rendering:auto;shape-rendering:auto;text-rendering:auto;enable-background:accumulate"
   d="m 27.5,27.5 0,4 0,271 275,0 0,-275 -275,0 z m 8,8 259,0 0,259 -259,0 0,-259 z"
   id="path5828" /><path
   id="path4173"
   d="m 64.999997,228.02085 c 0,-23.47225 2.85362,-38.31085 7.81249,-40.625 6.25003,-2.9167 6.25003,-4.375 0,-7.2917 -10.11164,-4.71875 -10.11164,-25.48955 0,-30.2083 6.25003,-2.9167 6.25003,-4.375 0,-7.2917 -4.95887,-2.31415 -7.81249,-17.15275 -7.81249,-40.625 l 0,-36.97915 36.979163,0 c 23.47226,0 38.31084,2.8536 40.62499,7.8125 2.91669,6.25 4.37501,6.25 7.2917,0 4.71874,-10.11165 25.48956,-10.11165 30.2083,0 2.91669,6.25 4.37501,6.25 7.2917,0 C 189.71,67.8536 204.54858,65 228.02084,65 L 265,65 l 0,36.97915 c 0,23.47225 -2.85362,38.31085 -7.81249,40.625 -6.25003,2.9167 -6.25003,4.375 0,7.2917 10.11164,4.71875 10.11164,25.48955 0,30.2083 -6.25003,2.9167 -6.25003,4.375 0,7.2917 C 262.14638,189.71 265,204.5486 265,228.02085 L 265,265 l -36.97916,0 c -23.47226,0 -38.31084,-2.8536 -40.62499,-7.8125 -2.91669,-6.25 -4.37501,-6.25 -7.2917,0 C 178.09895,261.48435 171.3021,265 165,265 c -6.3021,0 -13.09895,-3.51565 -15.10415,-7.8125 -2.91669,-6.25 -4.37501,-6.25 -7.2917,0 C 140.29,262.1464 125.45142,265 101.97916,265 l -36.979163,0 0,-36.97915 z m 77.604153,16.66665 c 2.91669,-6.25 4.37501,-6.25 7.2917,0 2.0052,4.29685 8.80205,7.8125 15.10415,7.8125 6.3021,0 13.09895,-3.51565 15.10415,-7.8125 2.91669,-6.25 4.37501,-6.25 7.2917,0 2.19161,4.6963 15.90275,7.8125 34.37501,7.8125 l 30.72914,0 0,-30.72915 c 0,-18.47225 -3.11619,-32.1834 -7.81249,-34.375 -6.25003,-2.9167 -6.25003,-4.375 0,-7.2917 10.11164,-4.71875 10.11164,-25.48955 0,-30.2083 -6.25003,-2.9167 -6.25003,-4.375 0,-7.2917 4.6963,-2.1916 7.81249,-15.90275 7.81249,-34.375 l 0,-30.72915 -30.72914,0 c -18.47226,0 -32.1834,3.11615 -34.37501,7.8125 -2.91669,6.25 -4.37501,6.25 -7.2917,0 C 178.09895,81.0156 171.3021,77.5 165,77.5 c -6.3021,0 -13.09895,3.5156 -15.10415,7.8125 -2.91669,6.25 -4.37501,6.25 -7.2917,0 C 140.41254,80.61615 126.7014,77.5 108.22914,77.5 l -30.729143,0 0,30.72915 c 0,18.47225 3.11614,32.1834 7.81249,34.375 6.25003,2.9167 6.25003,4.375 0,7.2917 -10.11164,4.71875 -10.11164,25.48955 0,30.2083 6.25003,2.9167 6.25003,4.375 0,7.2917 -4.69635,2.1916 -7.81249,15.90275 -7.81249,34.375 l 0,30.72915 30.729143,0 c 18.47226,0 32.1834,-3.1162 34.37501,-7.8125 z m -33.13673,-27.66345 c -16.990763,-17.761 -19.452533,-23.30915 -12.500003,-28.1712 6.683703,-4.6741 6.876363,-6.77725 0.845072,-9.2245 -4.296902,-1.7435 -7.812492,-8.32625 -7.812492,-14.62835 0,-6.3021 3.51559,-12.88485 7.812492,-14.62835 6.026241,-2.44525 5.828141,-4.5573 -0.866462,-9.2377 -6.94113,-4.8527 -3.99351,-10.7531 14.720643,-29.4673 18.71419,-18.71415 24.61459,-21.66175 29.46726,-14.7206 4.68041,6.6946 6.79246,6.8927 9.23773,0.86645 C 152.11514,93.5156 158.6979,90 165,90 c 6.3021,0 12.88486,3.5156 14.62834,7.8125 2.44527,6.02625 4.55732,5.82815 9.23773,-0.86645 4.85267,-6.94115 10.75307,-3.99355 29.46726,14.7206 18.71415,18.7142 21.66177,24.6146 14.72064,29.4673 -6.6946,4.6804 -6.8927,6.79245 -0.86646,9.2377 10.12413,4.108 10.12413,25.1487 0,29.2567 -6.02624,2.44525 -5.82814,4.5573 0.86646,9.2377 6.94113,4.8527 3.99351,10.7531 -14.72064,29.4673 -18.71419,18.71415 -24.61459,21.66175 -29.46726,14.7206 -4.68041,-6.6946 -6.79246,-6.89275 -9.23773,-0.86645 C 177.88486,236.48435 171.3021,240 165,240 c -6.3021,0 -13.09895,-3.51565 -15.10415,-7.8125 -2.91669,-6.25 -4.37501,-6.25 -7.2917,0 -5.311,11.38075 -9.63783,9.40075 -33.13673,-15.16345 z M 140,224.0909 c 0,-6.433 -32.0064,-35.41785 -35.38221,-32.042 -1.85602,1.85605 3.23628,10.4198 11.31624,19.0306 C 129.94403,226.00975 140,231.4466 140,224.0909 Z M 199.45467,196.1691 230.31444,164.83825 197.65722,132.181 165,99.5238 132.34278,132.181 99.685559,164.83825 130.54533,196.1691 C 147.51819,213.4011 163.02279,227.5 165,227.5 c 1.97721,0 17.48181,-14.0989 34.45467,-31.3309 z m -57.89215,-9.45305 C 133.82809,178.4554 127.5,168.6558 127.5,164.93925 127.5,156.13525 156.18171,127.5 165,127.5 c 8.85032,0 37.5,28.6497 37.5,37.5 0,9.7045 -29.11629,37.5739 -38.77841,37.11775 -4.45312,-0.21 -14.42474,-7.141 -22.15907,-15.4017 z M 177.5,165 c 0,-8.33335 -4.16667,-12.5 -12.5,-12.5 -8.33333,0 -12.5,4.16665 -12.5,12.5 0,8.33335 4.16667,12.5 12.5,12.5 8.33333,0 12.5,-4.16665 12.5,-12.5 z m 35.32194,46.4962 c 8.8021,-8.80205 14.46971,-17.53785 12.5947,-19.41285 C 222.01694,188.6836 190,217.61865 190,224.0909 c 0,6.97285 7.26227,2.96505 22.82194,-12.5947 z m -87.5,-87.5 c 8.8021,-8.80205 14.46971,-17.53785 12.5947,-19.41285 -3.3997,-3.39975 -35.41664,25.5353 -35.41664,32.00755 0,6.97285 7.26227,2.96505 22.82194,-12.5947 z M 227.5,136.5909 c 0,-6.433 -32.00635,-35.41785 -35.38221,-32.042 -1.85602,1.85605 3.23628,10.4198 11.31624,19.0306 14.01,14.93025 24.06597,20.3671 24.06597,13.0114 z"
   style="fill:#ffffff" /></svg>