<?xml version="1.0" encoding="UTF-8" standalone="no"?>
<!-- Created with Inkscape (http://www.inkscape.org/) -->

<svg
   xmlns:dc="http://purl.org/dc/elements/1.1/"
   xmlns:cc="http://creativecommons.org/ns#"
   xmlns:rdf="http://www.w3.org/1999/02/22-rdf-syntax-ns#"
   xmlns:svg="http://www.w3.org/2000/svg"
   xmlns="http://www.w3.org/2000/svg"
   xmlns:sodipodi="http://sodipodi.sourceforge.net/DTD/sodipodi-0.dtd"
   xmlns:inkscape="http://www.inkscape.org/namespaces/inkscape"
   width="210mm"
   height="297mm"
   id="svg2"
   version="1.1"
   inkscape:version="0.48.1 "
   sodipodi:docname="daniel.svg">
  <defs
     id="defs4" />
  <sodipodi:namedview
     id="base"
     pagecolor="#ffffff"
     bordercolor="#666666"
     borderopacity="1.0"
     inkscape:pageopacity="0.0"
     inkscape:pageshadow="2"
     inkscape:zoom="0.51218108"
     inkscape:cx="529.15797"
     inkscape:cy="466.17366"
     inkscape:document-units="px"
     inkscape:current-layer="layer1"
     showgrid="false"
     inkscape:window-width="1366"
     inkscape:window-height="706"
     inkscape:window-x="-8"
     inkscape:window-y="-8"
     inkscape:window-maximized="1" />
  <metadata
     id="metadata7">
    <rdf:RDF>
      <cc:Work
         rdf:about="">
        <dc:format>image/svg+xml</dc:format>
        <dc:type
           rdf:resource="http://purl.org/dc/dcmitype/StillImage" />
      </cc:Work>
    </rdf:RDF>
  </metadata>
  <g
     inkscape:label="Capa 1"
     inkscape:groupmode="layer"
     id="layer1">
    <path
       style="color:#000000;fill:#000000;fill-opacity:1;fill-rule:evenodd;stroke:none;stroke-width:0.595;marker:none;visibility:visible;display:inline;overflow:visible;enable-background:accumulate;stroke-opacity:1;stroke-miterlimit:4;stroke-dasharray:none"
       d="M 372.0625 181.1875 C 467.33161 181.1875 544.5625 258.41838 544.5625 353.6875 C 544.5625 448.95662 467.33161 526.1875 372.0625 526.1875 C 371.89598 526.1875 371.72891 526.18797 371.5625 526.1875 C 276.52303 526.45683 199.5625 603.58491 199.5625 698.6875 C 199.5625 793.79009 276.52303 870.91817 371.5625 871.1875 C 371.72891 871.18797 371.89598 871.1875 372.0625 871.1875 C 562.60073 871.1875 717.0625 716.72573 717.0625 526.1875 C 717.0625 335.64926 562.60073 181.1875 372.0625 181.1875 z M 27.5625 507.34375 C 27.226539 513.58378 27.0625 519.86367 27.0625 526.1875 C 27.0625 532.51133 27.226539 538.79122 27.5625 545.03125 L 27.5625 507.34375 z M 372.5625 658.375 C 397.41531 658.375 417.5625 678.29833 417.5625 702.875 C 417.5625 727.45167 397.41531 747.375 372.5625 747.375 C 347.70969 747.375 327.5625 727.45167 327.5625 702.875 C 327.5625 678.29833 347.70969 658.375 372.5625 658.375 z "
       id="path3828" />
    <path
       sodipodi:type="arc"
       style="color:#000000;fill:#000000;fill-opacity:1;fill-rule:evenodd;stroke:none;stroke-width:1.97437191;marker:none;visibility:visible;display:inline;overflow:visible;enable-background:accumulate"
       id="path3853"
       sodipodi:cx="915.69177"
       sodipodi:cy="456.86966"
       sodipodi:rx="87.85955"
       sodipodi:ry="87.85955"
       d="m 1003.5513,456.86966 a 87.85955,87.85955 0 1 1 -175.71908,0 87.85955,87.85955 0 1 1 175.71908,0 z"
       transform="matrix(0.51218109,0,0,0.51218109,-94.452769,115.18098)" />
    <path
       id="path3904"
       d="m 374.0625,871.18771 c -95.26911,0 -172.5,-77.23088 -172.5,-172.5 0,-95.26912 77.23089,-172.5 172.5,-172.5 0.16652,0 0.33359,-4.7e-4 0.5,0 95.03947,-0.26933 172,-77.39741 172,-172.5 0,-95.10259 -76.96053,-172.23067 -172,-172.5 -0.16641,-4.7e-4 -0.33348,0 -0.5,0 -190.53823,0 -345,154.46177 -345,345 0,190.53824 154.46177,345 345,345 z m 344.5,-326.15625 c 0.33596,-6.24003 0.5,-12.51992 0.5,-18.84375 0,-6.32383 -0.16404,-12.60372 -0.5,-18.84375 l 0,37.6875 z m -345,-151.03125 c -24.85281,0 -45,-19.92333 -45,-44.5 0,-24.57667 20.14719,-44.5 45,-44.5 24.85281,0 45,19.92333 45,44.5 0,24.57667 -20.14719,44.5 -45,44.5 z"
       style="color:#000000;fill:#ffffff;fill-opacity:1;fill-rule:evenodd;stroke:none;stroke-width:0.59500003000000001;marker:none;visibility:visible;display:inline;overflow:visible;enable-background:accumulate"
       inkscape:connector-curvature="0" />
    <path
       style="color:#000000;fill:#000000;fill-opacity:1;fill-rule:evenodd;stroke:none;stroke-width:0.59508163000000003;marker:none;visibility:visible;display:inline;overflow:visible;enable-background:accumulate"
       d="M 372.0625 173.6875 C 177.38213 173.6875 19.5625 331.50713 19.5625 526.1875 C 19.5625 720.86787 177.38213 878.6875 372.0625 878.6875 C 566.74287 878.6875 724.5625 720.86787 724.5625 526.1875 C 724.5625 331.50713 566.74287 173.6875 372.0625 173.6875 z M 372.0625 181.1875 C 562.60073 181.1875 717.0625 335.64927 717.0625 526.1875 C 717.0625 716.72573 562.60073 871.1875 372.0625 871.1875 C 181.52427 871.1875 27.0625 716.72573 27.0625 526.1875 C 27.0625 335.64927 181.52427 181.1875 372.0625 181.1875 z "
       id="path3789" />
    <flowRoot
       xml:space="preserve"
       id="flowRoot3925"
       style="font-size:56px;font-style:normal;font-weight:normal;text-align:center;line-height:125%;letter-spacing:0px;word-spacing:0px;text-anchor:middle;fill:#000000;fill-opacity:1;stroke:none;font-family:Sans"
       transform="translate(-42.953558,64.430338)"><flowRegion
         id="flowRegion3927"><rect
           id="rect3929"
           width="849.30902"
           height="216.72023"
           x="41.001125"
           y="855.16632"
           style="text-align:center;text-anchor:middle;font-size:56px" /></flowRegion><flowPara
         id="flowPara3931">DANIEL VELEZ</flowPara><flowPara
         id="flowPara3933"> ARIAS</flowPara></flowRoot>  </g>
</svg>
